<svg width="14" height="14" viewBox="0 0 14 14" fill="none" xmlns="http://www.w3.org/2000/svg">
<path d="M0.645981 12.6469C0.450976 12.8424 0.451393 13.159 0.646913 13.354C0.842432 13.549 1.15901 13.5486 1.35402 13.3531L0.645981 12.6469ZM6.98421 7L7.33823 7.35309C7.53287 7.15793 7.53287 6.84207 7.33823 6.64691L6.98421 7ZM12.646 13.3531C12.841 13.5486 13.1576 13.549 13.3531 13.354C13.5486 13.159 13.549 12.8424 13.354 12.6469L12.646 13.3531ZM7.01579 7L6.66177 6.64691C6.46713 6.84207 6.46713 7.15793 6.66177 7.35309L7.01579 7ZM13.354 1.35309C13.549 1.15757 13.5486 0.840986 13.3531 0.645981C13.1576 0.450976 12.841 0.451393 12.646 0.646913L13.354 1.35309ZM1.35402 0.646913C1.15901 0.451393 0.842432 0.450976 0.646913 0.645981C0.451393 0.840986 0.450976 1.15757 0.645981 1.35309L1.35402 0.646913ZM1.35402 13.3531L7.33823 7.35309L6.6302 6.64691L0.645981 12.6469L1.35402 13.3531ZM13.354 12.6469L7.3698 6.64691L6.66177 7.35309L12.646 13.3531L13.354 12.6469ZM12.646 0.646913L6.66177 6.64691L7.3698 7.35309L13.354 1.35309L12.646 0.646913ZM0.645981 1.35309L6.6302 7.35309L7.33823 6.64691L1.35402 0.646913L0.645981 1.35309Z" fill="currentColor"/>
</svg>
