<svg width="95" height="66" viewBox="0 0 95 66" fill="none" xmlns="http://www.w3.org/2000/svg">
<path fill-rule="evenodd" clip-rule="evenodd" d="M31.0204 60.7107L29.91 61.7255H29.6234L30.2801 60.5674H31.0204V60.7107ZM30.22 64.639H29.9812C29.6827 64.9972 29.3483 65.2837 29.026 65.2837C28.6917 65.2837 28.5245 65.0807 28.5245 64.639C28.5245 64.4599 28.5484 64.2688 28.5842 64.1017L30.5304 63.4569C30.9125 62.5495 30.4587 62.1555 29.9215 62.1555C29.0021 62.1555 27.9514 63.7674 27.9514 65.0569C27.9514 65.6658 28.2379 66.0001 28.6917 66.0001C29.217 65.9882 29.7662 65.4748 30.22 64.639ZM29.5521 62.6808C29.8147 62.6808 30.0416 62.8837 29.9222 63.3494L28.7163 63.6718C28.9073 63.0987 29.2655 62.6808 29.5521 62.6808ZM25.7552 62.7047H26.3999L25.3731 65.5225C25.2776 65.7613 25.4089 66.0001 25.6597 66.0001C26.388 66.0001 27.2596 65.3793 27.5939 64.4957H27.4148C27.1522 64.8658 26.579 65.2718 26.1492 65.3434L27.0925 62.7047H28.0596L28.179 62.2988H27.2357L27.5939 61.2839H27.2238L26.5552 62.2988L25.7552 62.4062V62.7047ZM24.8597 62.1674C24.9911 62.1674 25.1702 62.3107 25.0866 62.5734L23.9284 65.3792C24.2269 65.3315 24.5374 65.0449 24.7165 64.7823H24.9075C24.6329 65.4867 24.012 66.0001 23.4747 66.0001C23.3434 66.0001 23.1523 65.8568 23.2479 65.5942L24.3225 62.7883C24.024 62.8361 23.7135 63.1226 23.5344 63.3853H23.3553C23.6299 62.6689 24.2986 62.1674 24.8597 62.1674ZM25.1936 61.4509C25.4324 61.4509 25.6354 61.2599 25.6354 61.0092C25.6354 60.7704 25.4324 60.5674 25.1936 60.5674C24.9429 60.5674 24.7519 60.7704 24.7519 61.0092C24.7519 61.248 24.9548 61.4509 25.1936 61.4509ZM19.9753 63.7793C20.238 63.2062 20.1425 62.9435 19.9753 62.9435C19.832 62.9435 19.6649 63.0987 19.4977 63.3853H19.3186C19.5932 62.7764 19.9514 62.1674 20.3454 62.1674C20.6798 62.1674 20.7992 62.5017 20.7992 62.8719V63.3972C20.8535 63.334 20.9064 63.272 20.958 63.2114C21.4624 62.6194 21.8476 62.1674 22.2916 62.1674C22.6379 62.1674 22.817 62.3823 22.817 62.7047C22.817 62.8958 22.7573 63.1346 22.626 63.3853L21.6349 65.3792C21.9334 65.3315 22.2439 65.0449 22.423 64.7823H22.6021C22.3275 65.4986 21.6588 66.0001 21.0977 66.0001C20.8469 66.0001 20.7036 65.7374 20.8111 65.5225L21.9573 63.3137C22.0887 63.0629 22.1125 62.8958 21.9096 62.8958C21.6349 62.8958 20.9902 63.3495 20.6439 63.7674L19.8917 65.7494C19.8081 65.9524 19.7246 66.0001 19.5335 66.0001C19.2231 66.0001 19.0679 65.7971 19.2112 65.4748L19.9753 63.7793ZM19.1987 63.0151C19.3301 62.5614 19.2584 62.1555 18.9122 62.1555C18.4804 62.1555 18.3452 62.4407 17.9267 63.3233L17.8973 63.3853V62.8599C17.8973 62.4898 17.7779 62.1555 17.4436 62.1555C17.0496 62.1555 16.6914 62.7644 16.4168 63.3733H16.5959C16.7869 63.0987 16.966 62.9316 17.1093 62.9316C17.2764 62.9316 17.372 63.1942 17.1093 63.7674L16.3451 65.4628C16.2018 65.7852 16.3571 65.9882 16.6675 65.9882C16.8585 65.9882 16.9421 65.9404 17.0257 65.7374L17.7779 63.7554C17.9928 63.4927 18.1839 63.2659 18.4227 63.0151H19.1987ZM15.4265 63.3494C15.5459 62.8837 15.319 62.6808 15.0563 62.6808C14.7698 62.6808 14.4116 63.0987 14.2205 63.6718L15.4265 63.3494ZM15.7242 64.639H15.4854C15.1869 64.9972 14.8526 65.2837 14.5302 65.2837C14.1959 65.2837 14.0288 65.0807 14.0288 64.639C14.0288 64.4599 14.0526 64.2688 14.0885 64.1017L16.0347 63.4569C16.4167 62.5495 15.963 62.1555 15.4257 62.1555C14.5064 62.1555 13.4557 63.7674 13.4557 65.0569C13.4557 65.6658 13.7422 66.0001 14.1959 66.0001C14.7213 65.9882 15.2705 65.4748 15.7242 64.639ZM11.9042 62.7047H11.2595V62.4062L12.0594 62.2988L12.7281 61.2839H13.0982L12.74 62.2988H13.6833L13.5639 62.7047H12.5967L11.6535 65.3434C12.0833 65.2718 12.6564 64.8658 12.9191 64.4957H13.0982C12.7639 65.3793 11.8923 66.0001 11.1639 66.0001C10.9132 66.0001 10.7819 65.7613 10.8774 65.5225L11.9042 62.7047ZM7.84486 64.8895C7.84486 64.0179 8.81198 62.8478 9.34928 62.8478C9.46868 62.8478 9.58807 62.8597 9.68359 62.8955L9.12242 64.4C8.80004 64.794 8.29857 65.2716 8.05977 65.2716C7.92843 65.2716 7.84486 65.1522 7.84486 64.8895ZM10.5068 61.9762L10.8053 62.0001L9.76652 64.3881C9.51578 64.9612 9.62324 65.2238 9.76652 65.2238C9.9098 65.2238 10.0889 65.0567 10.2799 64.7821H10.459C10.1844 65.391 9.82622 65.9999 9.4322 65.9999C9.09789 65.9999 8.89491 65.6417 8.95461 64.997L8.97849 64.7701L8.91347 64.861C8.48577 65.4589 8.09876 65.9999 7.70092 65.9999C7.35467 65.9999 7.17557 65.785 7.17557 65.4626C7.17557 64.0776 8.69193 62.3105 10.1128 62.3105H10.1725L10.5068 61.9762ZM7.77222 63.0151C7.90355 62.5614 7.83191 62.1555 7.48566 62.1555C7.05384 62.1555 6.91862 62.4407 6.50016 63.3233L6.47077 63.3853V62.8599C6.47077 62.4898 6.35137 62.1555 6.01706 62.1555C5.62304 62.1555 5.26485 62.7644 4.99023 63.3733H5.16933C5.36037 63.0987 5.53946 62.9316 5.6708 62.9316C5.83796 62.9316 5.93348 63.1942 5.6708 63.7674L4.90665 65.4748C4.76337 65.7971 4.91859 66.0001 5.22903 66.0001C5.42006 66.0001 5.50364 65.9523 5.58722 65.7494L6.33943 63.7674C6.55435 63.5047 6.74539 63.2778 6.98419 63.0271H7.77222V63.0151ZM2.85362 65.6419L2.78199 65.8568H0L0.0716391 65.63C0.931308 65.4747 1.07459 65.4031 1.43278 64.436L2.20887 62.3584C2.55513 61.3913 2.48349 61.3197 1.73128 61.1645L1.80292 60.9495H5.42069L5.20578 62.1077H4.9431C4.9431 61.4152 4.87146 61.2361 4.21477 61.2361H4.04761C3.40286 61.2361 3.31928 61.3316 3.14018 61.8331L2.62677 63.2301H3.37898C3.88045 63.2301 4.07149 62.9196 4.29835 62.5137H4.56102L3.94015 64.2091H3.67747C3.73717 63.6957 3.73717 63.4927 3.27152 63.4927H2.51931L2.17305 64.4479C1.79876 65.4421 1.90572 65.4624 2.797 65.6312C2.81553 65.6347 2.83441 65.6383 2.85362 65.6419Z" fill="#1E1E1E"/>
<path fill-rule="evenodd" clip-rule="evenodd" d="M5.21678 51.5769L4.10638 52.3768V52.3888H3.81982L4.47651 51.4336H5.21678V51.5769ZM12.9783 57.1767L14.7574 52.4485L14.6977 52.3769L13.4679 52.5202V52.6634L13.7067 52.8425C13.9105 53.0011 13.8566 53.1489 13.6874 53.6121L13.6589 53.6903L12.2978 57.32C12.1903 57.5349 12.3336 57.7976 12.5843 57.7976C13.1455 57.7976 13.7425 57.2842 14.0171 56.5797H13.838C13.647 56.8424 13.2649 57.1289 12.9783 57.1767ZM21.1347 53.5351L22.2451 52.5202V52.3769H21.5048L20.8481 53.5351H21.1347ZM21.2056 56.4365H21.4443C21.0026 57.2842 20.4533 57.7977 19.928 57.7977C19.4743 57.7977 19.1877 57.4633 19.1877 56.8544C19.1877 55.5649 20.2384 53.953 21.1578 53.953C21.6831 53.953 22.1488 54.347 21.7667 55.2545L19.8086 55.8992C19.7728 56.0664 19.7489 56.2574 19.7489 56.4365C19.7489 56.8783 19.916 57.0813 20.2504 57.0813C20.5727 57.0813 20.9071 56.7947 21.2056 56.4365ZM21.1445 55.147C21.2639 54.6932 21.0371 54.4903 20.7744 54.4903C20.4998 54.4903 20.1416 54.9082 19.9386 55.4693L21.1445 55.147ZM17.6363 54.5139H16.9915V54.2155L17.7915 54.108L18.4601 53.0931H18.8303L18.4721 54.108H19.4153L19.2959 54.5139H18.3288L17.3855 57.1527C17.8154 57.081 18.3885 56.6751 18.6512 56.3049H18.8303C18.496 57.1885 17.6243 57.8093 16.896 57.8093C16.6453 57.8093 16.5139 57.5705 16.6095 57.3318L17.6363 54.5139ZM16.3209 54.3709C16.3925 54.1083 16.2254 53.965 16.0821 53.965C15.5209 53.965 14.8523 54.4784 14.5777 55.1828H14.7568C14.9359 54.9202 15.2463 54.6336 15.5448 54.5859L14.4702 57.3917C14.3747 57.6544 14.5657 57.7977 14.6971 57.7977C15.2344 57.7977 15.8552 57.2843 16.1299 56.5798H15.9508C15.7717 56.8425 15.4612 57.129 15.1627 57.1768L16.3209 54.3709ZM16.8718 52.8187C16.8718 53.0575 16.6688 53.2604 16.43 53.2604C16.1912 53.2604 15.9882 53.0575 15.9882 52.8187C15.9882 52.5799 16.1792 52.3769 16.43 52.3769C16.6688 52.3769 16.8718 52.5799 16.8718 52.8187ZM10.8418 54.6573C10.3045 54.6573 9.33734 55.8274 9.33734 56.699C9.33734 56.9617 9.42092 57.0811 9.56419 57.0811C9.79105 57.0811 10.2925 56.6035 10.6149 56.2095L11.1761 54.7051C11.0686 54.6692 10.9612 54.6573 10.8418 54.6573ZM12.2978 53.8096L11.9993 53.7857L11.665 54.12H11.6053C10.1844 54.12 8.66805 55.8871 8.66805 57.2721C8.66805 57.5945 8.84715 57.8094 9.19341 57.8094C9.59124 57.8094 9.97825 57.2684 10.4059 56.6705L10.471 56.5796L10.4471 56.8065C10.3874 57.4512 10.5904 57.8094 10.9247 57.8094C11.3187 57.8094 11.6769 57.2005 11.9515 56.5916H11.7724C11.5814 56.8662 11.4023 57.0333 11.259 57.0333C11.1157 57.0333 11.0083 56.7707 11.259 56.1976L12.2978 53.8096ZM6.27952 57.6781C5.76611 57.8811 5.40791 58.1199 5.40791 58.49C5.40791 58.8363 5.73029 58.9796 6.39892 58.9796C7.29441 58.9796 7.78394 58.7169 7.78394 58.3706C7.78394 58.2154 7.58097 58.1438 7.04367 57.9647C6.69742 57.8572 6.44668 57.7617 6.27952 57.6781ZM6.87763 56.2097C6.63884 56.2097 6.55526 56.0067 6.55526 55.7918C6.55526 55.0992 6.88957 54.2396 7.42687 54.2396C7.66566 54.2396 7.74924 54.4426 7.74924 54.6575C7.7373 55.3619 7.40299 56.2097 6.87763 56.2097ZM7.33004 57.332C7.98673 57.535 8.39269 57.6902 8.39269 58.1439C8.39269 58.729 7.3181 59.4215 6.01666 59.4095C5.26445 59.4095 4.6197 59.2066 4.6197 58.717C4.6197 58.2514 5.04953 57.8693 6.10024 57.5589C5.95696 57.4633 5.89726 57.3439 5.89726 57.1768C5.89726 56.8902 6.15994 56.6634 6.61365 56.4485C6.17188 56.3888 5.88532 56.0544 5.88532 55.5649C5.88532 54.8127 6.50619 53.953 7.48526 53.953C7.68824 53.953 7.86734 54.0008 8.01061 54.0963H9.0852L8.9658 54.5023H8.33299C8.36881 54.6097 8.39269 54.7291 8.39269 54.8605C8.39269 55.5888 7.80764 56.4246 6.87633 56.4723C6.63753 56.6037 6.51813 56.7828 6.51813 56.9261C6.51813 57.0947 6.71344 57.1517 7.1451 57.2776C7.20253 57.2944 7.26415 57.3124 7.33004 57.332ZM3.54614 55.2903C4.01179 55.2903 4.02373 55.4933 3.95209 56.0067H4.21477L4.83564 54.3112H4.57296C4.34611 54.7172 4.15507 55.0276 3.65359 55.0276H2.62677L3.12824 53.6306C3.30734 53.1292 3.39092 53.0337 4.03567 53.0337H4.48938C5.14608 53.0337 5.21771 53.2127 5.21771 53.9053H5.48039L5.69531 52.7471H1.80292L1.73128 52.962C2.48349 53.1172 2.55513 53.1889 2.20887 54.156L1.43278 56.2455C1.07459 57.2126 0.931308 57.2842 0.0596993 57.4395L0 57.6663H4.32223L5.09832 56.4365H4.79982C4.29835 56.926 3.79687 57.3798 2.8178 57.3798C1.7409 57.3798 1.76009 57.3271 2.0832 56.4394L2.08322 56.4394C2.10402 56.3822 2.12607 56.3217 2.14917 56.2574L2.50737 55.3022H3.54614V55.2903Z" fill="#1E1E1E"/>
<path fill-rule="evenodd" clip-rule="evenodd" d="M7.11596 45.0574C7.35476 45.0574 7.55774 44.8544 7.55774 44.6156C7.55774 44.3768 7.35476 44.1738 7.11596 44.1738C6.86523 44.1738 6.67419 44.3768 6.67419 44.6156C6.67419 44.8663 6.86523 45.0574 7.11596 45.0574ZM10.6499 46.5618C10.6499 45.9887 10.5066 45.7738 10.1006 45.7738C9.59917 45.7738 9.13352 46.3111 8.66787 46.9558L9.67081 44.2694L9.61111 44.1858L8.38131 44.3291V44.4723L8.62011 44.6514C8.82802 44.8131 8.76775 44.9749 8.59064 45.4501L8.57235 45.4992L7.48582 48.3408C7.3903 48.5796 7.28284 48.8662 7.28284 48.9378C7.28284 49.2722 7.73656 49.5945 8.15445 49.5945C9.08576 49.6065 10.6499 47.8871 10.6499 46.5618ZM21.0017 45.3439L22.1121 44.3291V44.1858H21.3719L20.7152 45.3439H21.0017ZM21.0729 48.2454H21.3117C20.858 49.0931 20.3088 49.6066 19.7834 49.5946C19.3297 49.5946 19.0431 49.2722 19.0431 48.6633C19.0431 47.3738 20.0938 45.7619 21.0132 45.7619C21.5386 45.7619 22.0042 46.1559 21.6221 47.0634L19.6759 47.7081C19.6401 47.8753 19.6162 48.0663 19.6162 48.2454C19.6162 48.6872 19.7834 48.8902 20.1177 48.8902C20.4401 48.8902 20.7744 48.6036 21.0729 48.2454ZM21.014 46.9558C21.1334 46.5021 20.9065 46.2992 20.6438 46.2992C20.3573 46.2992 19.9991 46.7171 19.808 47.2782L21.014 46.9558ZM17.4917 46.3231H16.8469V46.0246L17.6469 45.9172L18.3155 44.9023H18.6857L18.3275 45.9172H19.2707L19.1513 46.3231H18.1842L17.241 48.9618C17.6708 48.8902 18.2439 48.4842 18.5066 48.1141H18.6857C18.3514 48.9977 17.4798 49.6185 16.7514 49.6185C16.5007 49.6185 16.3694 49.3797 16.4649 49.1409L17.4917 46.3231ZM16.5126 46.6335C16.6439 46.1798 16.5723 45.7739 16.226 45.7739C15.7942 45.7739 15.659 46.0591 15.2405 46.9417L15.2111 47.0037V46.4783C15.2111 46.1082 15.0917 45.7739 14.7574 45.7739C14.3634 45.7739 14.0052 46.3828 13.7306 46.9917H13.9097C14.1007 46.7171 14.2798 46.55 14.4111 46.55C14.5783 46.55 14.6738 46.8126 14.4111 47.3858L13.647 49.0812C13.5037 49.4036 13.6589 49.6066 13.9694 49.6066C14.1604 49.6066 14.244 49.5588 14.3276 49.3558L15.0798 47.3738C15.2947 47.1111 15.4857 46.8843 15.7245 46.6335H16.5126ZM12.7283 46.9558C12.8477 46.5021 12.6209 46.2992 12.3582 46.2992C12.0717 46.2992 11.7254 46.7171 11.5224 47.2782L12.7283 46.9558ZM13.0261 48.2454H12.7873C12.4888 48.6036 12.1545 48.8902 11.8321 48.8902C11.4978 48.8902 11.3306 48.6872 11.3306 48.2454C11.3306 48.0663 11.3545 47.8753 11.3903 47.7081L13.3365 47.0634C13.7186 46.1559 13.2649 45.7619 12.7276 45.7619C11.8082 45.7619 10.7575 47.3738 10.7575 48.6633C10.7575 49.2722 11.0441 49.5946 11.4978 49.5946C12.0232 49.6066 12.5724 49.0931 13.0261 48.2454ZM8.01276 48.699C8.01276 48.8542 8.28738 49.0333 8.47841 49.0333C9.25451 49.0333 9.98284 47.6363 9.9709 46.8602C9.9709 46.5975 9.83956 46.4901 9.66046 46.4901C9.3739 46.4901 8.84855 46.9199 8.51423 47.3259L8.2038 48.1617C8.09634 48.4363 8.01276 48.6512 8.01276 48.699ZM6.75867 45.7739C6.90195 45.7739 7.0691 45.9172 6.99746 46.1798L5.85124 48.9857C6.14973 48.9379 6.46017 48.6514 6.63927 48.3887H6.81837C6.54375 49.0932 5.92288 49.6066 5.38558 49.6066C5.24231 49.6066 5.05127 49.4633 5.14679 49.2006L6.22137 46.3947C5.92288 46.4425 5.61244 46.7291 5.43334 46.9917H5.25425C5.52886 46.2873 6.19749 45.7739 6.75867 45.7739ZM1.80292 44.5321H4.36999L4.29835 44.7589C3.42674 44.9142 3.28346 44.9858 2.92526 45.9529L2.16111 48.0543C1.79098 49.0573 1.8865 49.1767 2.54319 49.1767C3.35452 49.1767 3.88653 48.587 4.35106 48.0721C4.38557 48.0338 4.41971 47.996 4.45356 47.9588H4.75206L3.90433 49.4632H0L0.0716391 49.2483C0.931308 49.0931 1.07459 49.0215 1.43278 48.0543L2.20887 45.941C2.55513 44.9739 2.48349 44.9022 1.73128 44.747L1.80292 44.5321Z" fill="#1E1E1E"/>
<path d="M1.2298 26.5186H2.92526V20.5725L4.78788 23.653H5.98187L7.84448 20.5725V26.5186H9.53994V18.1607H7.40271L5.38487 21.5993L3.36704 18.1607H1.2298V26.5186ZM12.0517 26.5186H13.7472V18.1607H12.0517V26.5186ZM16.2624 26.5186H17.9578V20.5128L21.695 26.5186H23.868V18.1607H22.1726V24.1425L18.4354 18.1607H16.2624V26.5186ZM26.3846 26.5186H28.0801V18.1607H26.3846V26.5186ZM29.8431 25.3604C30.2013 25.8022 30.6431 26.1484 31.1445 26.3872C31.646 26.638 32.243 26.7574 32.9475 26.7574C33.3295 26.7574 33.6877 26.7096 34.022 26.5902C34.3564 26.4708 34.6429 26.3036 34.8937 26.0887C35.1325 25.8738 35.3354 25.6111 35.4787 25.3007C35.622 24.9903 35.7056 24.644 35.7175 24.25C35.7175 23.5575 35.5145 23.0202 35.1205 22.65C34.7146 22.2918 34.2847 21.9934 33.8071 21.7665C33.3295 21.5396 32.8878 21.3247 32.4937 21.1337C32.0878 20.9426 31.8968 20.6561 31.8968 20.274C31.8968 20.0352 31.9803 19.8203 32.1594 19.6531C32.3266 19.486 32.5654 19.4024 32.8639 19.4024C33.1743 19.4024 33.4728 19.4979 33.7474 19.689C34.022 19.88 34.2847 20.1307 34.5355 20.4412L35.7772 19.3308C35.419 18.9129 35.0011 18.5786 34.5116 18.3159C34.022 18.0532 33.4728 17.9219 32.8519 17.9219C32.446 17.9219 32.0878 17.9935 31.7654 18.1129C31.4311 18.2442 31.1565 18.4233 30.9177 18.6383C30.6789 18.8532 30.4998 19.1158 30.3685 19.4143C30.2371 19.7128 30.1774 20.0233 30.1774 20.3457C30.1774 21.0382 30.3685 21.5635 30.7744 21.9217C31.1684 22.2799 31.6102 22.5784 32.0878 22.8053C32.5654 23.0321 32.9952 23.247 33.4012 23.4381C33.7952 23.6291 33.9982 23.9157 33.9982 24.2858C33.9982 24.5962 33.9026 24.835 33.7116 25.0022C33.5206 25.1694 33.2579 25.2529 32.9236 25.2529C32.5773 25.2529 32.243 25.1694 31.9206 24.9783C31.5983 24.7992 31.3117 24.5485 31.0729 24.2261L29.8431 25.3604ZM36.7564 19.7009H39.3354V26.5186H41.0308V19.7009H43.6098V18.1607H36.7564V19.7009ZM46.9616 17.4443H48.5138L47.1646 15.8324H45.4213L46.9616 17.4443ZM45.2781 26.5186H50.1495V25.0738H46.9735V22.9844H49.6719V21.5396H46.9735V19.6054H50.1495V18.1607H45.2781V26.5186ZM52.2988 26.5186H53.9942V23.1396H54.8659L57.0867 26.5186H59.1164L56.4897 22.8172C56.9076 22.6262 57.2299 22.3396 57.4687 21.9695C57.7075 21.5993 57.8269 21.1576 57.8269 20.6561C57.8269 19.8919 57.5523 19.283 57.027 18.8293C56.4897 18.3875 55.7613 18.1607 54.8539 18.1607H52.2988V26.5186ZM54.9494 19.6054C55.3076 19.6054 55.5822 19.7009 55.7852 19.88C55.9763 20.071 56.0837 20.3218 56.0837 20.6322C56.0837 20.9785 55.9763 21.2411 55.7852 21.4202C55.5822 21.6113 55.3076 21.6949 54.9494 21.6949H53.9942V19.6054H54.9494ZM60.3456 26.5186H65.2171V25.0738H62.0411V22.9844H64.7395V21.5396H62.0411V19.6054H65.2171V18.1607H60.3456V26.5186ZM1.2298 38.5186H4.51326C5.16996 38.5186 5.77889 38.4111 6.32812 38.1842C6.87735 37.9693 7.34301 37.6589 7.72508 37.2768C8.10716 36.8947 8.4176 36.453 8.63251 35.9515C8.84743 35.45 8.95489 34.9127 8.95489 34.3396C8.95489 33.7784 8.84743 33.2411 8.63251 32.7397C8.4176 32.2382 8.10716 31.7845 7.72508 31.4024C7.34301 31.0203 6.87735 30.7218 6.32812 30.495C5.77889 30.2801 5.16996 30.1607 4.51326 30.1607H1.2298V38.5186ZM4.53714 31.7009C4.91922 31.7009 5.27741 31.7725 5.61173 31.9039C5.93411 32.0472 6.20872 32.2263 6.44752 32.465C6.68632 32.7038 6.86541 32.9785 7.00869 33.3008C7.14003 33.6232 7.21167 33.9695 7.21167 34.3396C7.21167 34.7097 7.14003 35.056 7.00869 35.3784C6.86541 35.7007 6.68632 35.9754 6.44752 36.2142C6.20872 36.453 5.93411 36.644 5.61173 36.7753C5.27741 36.9186 4.91922 36.9783 4.53714 36.9783H2.92526V31.7009H4.53714ZM10.7691 38.5186H15.6406V37.0738H12.4646V34.9844H15.163V33.5396H12.4646V31.6054H15.6406V30.1607H10.7691V38.5186ZM21.0677 38.5186H25.9391V36.9783H22.7631V30.1607H21.0677V38.5186ZM26.9211 38.5186H28.724L29.524 36.3455H32.8671L33.6671 38.5186H35.47L32.306 30.1607H30.0852L26.9211 38.5186ZM30.0493 34.9008L31.1956 31.7606L32.3418 34.9008H30.0493ZM43.9429 37.1694C43.5488 37.1694 43.1906 37.0977 42.8563 36.9544C42.522 36.8112 42.2355 36.6082 41.9967 36.3574C41.7579 36.1067 41.5788 35.8082 41.4474 35.462C41.3041 35.1157 41.2444 34.7456 41.2444 34.3396C41.2444 33.9456 41.3041 33.5755 41.4474 33.2292C41.5788 32.8829 41.7579 32.5844 41.9967 32.3337C42.2355 32.083 42.522 31.88 42.8563 31.7367C43.1906 31.5934 43.5488 31.5099 43.9429 31.5099C44.4204 31.5099 44.8383 31.6173 45.2085 31.8322C45.5786 32.0472 45.889 32.3218 46.1278 32.6561L47.4651 31.6173C47.083 31.1158 46.5816 30.7099 45.9846 30.3995C45.3756 30.089 44.6951 29.9219 43.9429 29.9219C43.2862 29.9219 42.6892 30.0413 42.1399 30.2801C41.5907 30.5189 41.1131 30.8412 40.731 31.2352C40.337 31.6412 40.0385 32.1069 39.8236 32.6441C39.6087 33.1814 39.5012 33.7426 39.5012 34.3396C39.5012 34.9366 39.6087 35.5097 39.8236 36.047C40.0385 36.5843 40.337 37.05 40.731 37.444C41.1131 37.8499 41.5907 38.1604 42.1399 38.3992C42.6892 38.638 43.2862 38.7574 43.9429 38.7574C44.6951 38.7574 45.3756 38.6021 45.9846 38.2917C46.5816 37.9813 47.083 37.5753 47.4651 37.05L46.1278 36.0231C45.889 36.3694 45.5786 36.644 45.2085 36.8589C44.8383 37.0738 44.4204 37.1694 43.9429 37.1694ZM53.9512 35.3903C53.9512 35.9515 53.796 36.3933 53.4975 36.7037C53.1871 37.0141 52.7811 37.1694 52.2677 37.1694C51.7424 37.1694 51.3245 37.0141 51.026 36.7037C50.7155 36.3933 50.5723 35.9515 50.5723 35.3903V30.1607H48.8768V35.247C48.8768 36.3455 49.1753 37.2052 49.7842 37.826C50.3812 38.4469 51.2051 38.7574 52.2558 38.7574C53.2946 38.7574 54.1184 38.4469 54.7273 37.826C55.3363 37.2052 55.6467 36.3455 55.6467 35.247V30.1607H53.9512V35.3903ZM57.932 38.5186H62.8034V36.9783H59.6274V30.1607H57.932V38.5186ZM62.6355 31.7009H65.2145V38.5186H66.91V31.7009H69.489V30.1607H62.6355V31.7009ZM76.0861 35.3903C76.0861 35.9515 75.9309 36.3933 75.6324 36.7037C75.322 37.0141 74.916 37.1694 74.4026 37.1694C73.8773 37.1694 73.4594 37.0141 73.1609 36.7037C72.8504 36.3933 72.7072 35.9515 72.7072 35.3903V30.1607H71.0117V35.247C71.0117 36.3455 71.3102 37.2052 71.9191 37.826C72.5161 38.4469 73.34 38.7574 74.3907 38.7574C75.4295 38.7574 76.2533 38.4469 76.8622 37.826C77.4712 37.2052 77.7816 36.3455 77.7816 35.247V30.1607H76.0861V35.3903ZM80.0669 38.5186H81.7623V35.1396H82.6339L84.8548 38.5186H86.8845L84.2578 34.8172C84.6757 34.6262 84.998 34.3396 85.2368 33.9695C85.4756 33.5993 85.595 33.1576 85.595 32.6561C85.595 31.8919 85.3204 31.283 84.7951 30.8293C84.2578 30.3875 83.5294 30.1607 82.622 30.1607H80.0669V38.5186ZM82.7175 31.6054C83.0757 31.6054 83.3503 31.7009 83.5533 31.88C83.7443 32.071 83.8518 32.3218 83.8518 32.6322C83.8518 32.9785 83.7443 33.2411 83.5533 33.4202C83.3503 33.6113 83.0757 33.6949 82.7175 33.6949H81.7623V31.6054H82.7175ZM88.1137 38.5186H92.9851V37.0738H89.8091V34.9844H92.5075V33.5396H89.8091V31.6054H92.9851V30.1607H88.1137V38.5186Z" fill="#212121"/>
<path d="M10.6387 10.429C10.6425 10.429 10.6464 10.4251 10.6464 10.4251C10.6773 10.4096 10.7083 10.3903 10.7354 10.3671C10.7315 10.3671 10.7276 10.3671 10.7238 10.3633C10.6967 10.3826 10.6657 10.4058 10.6387 10.429Z" fill="#1F356C"/>
<path d="M15.0127 8.98069L14.9709 9.01651C14.9948 9.01054 15.0127 9.00457 15.0127 8.98069Z" fill="#1F356C"/>
<path fill-rule="evenodd" clip-rule="evenodd" d="M13.6211 10.4947C13.7488 10.3672 13.8764 10.232 14.004 10.0928H14.0001C14.2399 9.82236 14.472 9.56347 14.7504 9.32777C14.8355 9.25049 14.9167 9.1848 14.9941 9.1307C15.0054 9.11935 15.0112 9.10244 15.0169 9.08587C15.0228 9.0686 15.0286 9.05169 15.0405 9.04183C14.9854 9.06273 14.9414 9.09576 14.8972 9.129L14.8972 9.12901C14.8515 9.16338 14.8055 9.19797 14.7466 9.21958C14.7234 9.21958 14.7002 9.19639 14.7234 9.17321C14.8046 9.11525 14.8858 9.05342 14.9631 8.9916H14.9477C14.9245 8.9916 14.9245 8.96841 14.9245 8.94523C14.6365 8.89981 14.4154 9.09539 14.2175 9.27047L14.2051 9.2814C14.1743 9.29679 14.1452 9.28152 14.1223 9.26952C14.1107 9.26345 14.1008 9.25822 14.093 9.25822C13.9178 9.31654 13.7668 9.42408 13.6148 9.53232C13.4747 9.63202 13.3338 9.73232 13.1725 9.79532V9.74895C13.1177 9.76771 13.0636 9.79217 13.0093 9.81669C12.9295 9.85277 12.8493 9.88897 12.7664 9.90737C12.6151 9.94227 12.4747 9.93777 12.3386 9.93341C12.2939 9.93197 12.2497 9.93056 12.2057 9.93056C11.9579 9.95496 11.7134 10.0077 11.4691 10.0603L11.3896 10.0774C11.3858 10.0793 11.3819 10.0803 11.378 10.0813C11.3741 10.0822 11.3703 10.0832 11.3664 10.0851C11.2195 10.1238 11.0841 10.1779 10.9487 10.2551L10.9333 10.2629C10.9279 10.27 10.9226 10.2762 10.9177 10.2821C10.9118 10.289 10.9065 10.2952 10.9023 10.3015C10.8559 10.3556 10.8134 10.402 10.7476 10.4367C10.6505 10.4853 10.5666 10.5601 10.484 10.6337L10.484 10.6337C10.4482 10.6656 10.4126 10.6973 10.3763 10.7265C10.3686 10.7343 10.3531 10.7381 10.3415 10.7381C10.2217 10.8541 10.1018 10.97 9.978 11.082C9.97027 11.0898 9.93546 11.0936 9.90839 11.0898C9.90839 11.0898 9.91226 11.0898 9.91226 11.0859L9.92386 11.0627L9.98187 10.97C9.99347 10.9526 10.0041 10.9352 10.0147 10.9178C10.0254 10.9004 10.036 10.883 10.0476 10.8657C10.0786 10.8193 10.1095 10.7729 10.1443 10.7304C10.152 10.7188 10.152 10.7072 10.1443 10.6995C10.1366 10.6918 10.125 10.6879 10.1134 10.6879C10.2255 10.5797 10.357 10.487 10.4924 10.4058V10.402C10.4769 10.4058 10.4537 10.3942 10.4653 10.3788C10.4767 10.3646 10.4859 10.3483 10.4946 10.3331L10.504 10.317C10.5059 10.3131 10.5069 10.3102 10.5078 10.3073C10.5088 10.3044 10.5098 10.3015 10.5117 10.2976C10.5098 10.2938 10.5069 10.2909 10.504 10.288C10.5011 10.2851 10.4982 10.2822 10.4962 10.2783L10.4728 10.2937C10.4448 10.3119 10.4159 10.3306 10.3918 10.3517C10.3747 10.3664 10.3588 10.3864 10.3425 10.4069C10.307 10.4515 10.2695 10.4986 10.2139 10.4986C10.21 10.4986 10.1907 10.4986 10.1791 10.4947C10.1675 10.4947 10.1598 10.4908 10.1559 10.487C10.1559 10.4831 10.1559 10.4831 10.1598 10.4831C10.1598 10.4831 10.1636 10.4792 10.1636 10.4754C10.1636 10.4754 10.1636 10.4715 10.1675 10.4715C10.1694 10.4677 10.1714 10.4648 10.1733 10.4619L10.1759 10.4579L10.1775 10.4553L10.1791 10.4522C10.181 10.4483 10.183 10.4454 10.1849 10.4425C10.1868 10.4396 10.1888 10.4367 10.1907 10.4329C10.1926 10.4309 10.1936 10.4281 10.1946 10.4252C10.1955 10.4223 10.1965 10.4194 10.1984 10.4174L10.2028 10.4095C10.2066 10.4027 10.2112 10.3946 10.2139 10.3865C10.2159 10.3826 10.2178 10.3798 10.2197 10.3769C10.2217 10.374 10.2236 10.3711 10.2255 10.3672C10.2313 10.3595 10.2362 10.3508 10.241 10.3421L10.241 10.3421C10.2458 10.3334 10.2507 10.3247 10.2565 10.317L10.2565 10.317C10.2603 10.3092 10.2642 10.3015 10.2719 10.2938C10.2758 10.2861 10.2797 10.2793 10.2835 10.2725L10.2835 10.2725C10.2874 10.2658 10.2913 10.259 10.2951 10.2513C10.3067 10.232 10.2951 10.2165 10.2797 10.2126C10.3222 10.1585 10.3725 10.1122 10.4344 10.0774H10.4266C10.4802 10.0506 10.5352 10.0193 10.5899 9.9882L10.5899 9.98818L10.59 9.98816C10.6222 9.96984 10.6542 9.9516 10.6857 9.93442L10.6858 9.93441C10.6974 9.92282 10.709 9.91123 10.7244 9.90351C10.5968 9.94601 10.4808 10.004 10.3686 10.0813C10.3686 10.0813 10.3377 10.0928 10.3299 10.1006C10.3299 10.1006 10.3067 10.1083 10.2758 10.0813C10.2719 10.0774 10.2719 10.0735 10.2719 10.0658C10.2854 10.0389 10.3131 10.0211 10.3431 10.0019L10.3431 10.0019C10.3648 9.98796 10.3878 9.97324 10.4073 9.95374C10.4305 9.95374 10.4498 9.95374 10.4498 9.97692C10.8952 9.63 11.4445 9.54974 11.9955 9.46921L11.9956 9.4692C12.3345 9.41968 12.6741 9.37004 12.9907 9.25822C13.0236 9.23503 13.0575 9.21282 13.0913 9.1906C13.1251 9.16838 13.159 9.14616 13.1918 9.12297C13.2483 9.09966 13.2988 9.05972 13.3523 9.01743L13.3523 9.01742C13.4052 8.97562 13.461 8.93151 13.5283 8.89886C13.7062 8.76362 13.8416 8.60906 13.9112 8.38108C13.9112 8.3579 13.888 8.33471 13.888 8.33471C13.5941 8.6477 13.2576 8.895 12.8979 9.07661C12.555 9.25636 12.1875 9.283 11.8237 9.30937C11.687 9.31928 11.5508 9.32915 11.4167 9.34709C11.4399 9.30072 11.4863 9.30072 11.5288 9.30072C11.5288 9.24585 11.5553 9.22225 11.5893 9.19196C11.5984 9.18386 11.608 9.17527 11.6178 9.16548H11.6835C11.6951 9.16548 11.7009 9.15389 11.7067 9.14229C11.7126 9.1307 11.7184 9.11911 11.73 9.11911C11.7764 9.11911 11.8421 9.09593 11.8189 9.09593C11.7834 9.05063 11.7319 9.06857 11.675 9.08835C11.6203 9.10739 11.5606 9.12814 11.5056 9.09593C11.5261 9.07364 11.5322 9.04689 11.5378 9.02254C11.5439 8.99623 11.5493 8.97272 11.5714 8.96068H11.6603C11.6603 8.91432 11.7067 8.87181 11.7067 8.87181C11.9085 8.75133 12.1033 8.64613 12.2945 8.54289L12.2945 8.54287L12.2946 8.54285C12.4222 8.47392 12.5482 8.40586 12.6736 8.33471C12.6482 8.33471 12.6257 8.34507 12.6039 8.35513C12.5692 8.37113 12.5361 8.38637 12.4957 8.3579C12.5189 8.3579 12.5189 8.34147 12.5189 8.32505C12.5189 8.30863 12.5189 8.29221 12.5421 8.29221C12.6872 8.25371 12.8163 8.19131 12.9482 8.12758L12.9482 8.12757L12.9482 8.12757L12.9482 8.12757L12.9482 8.12757L12.9482 8.12756L12.9483 8.12756C13.0414 8.08257 13.1358 8.03692 13.2383 7.99854C13.2079 7.99854 13.1797 8.00667 13.1523 8.01459C13.0995 8.02984 13.0493 8.04432 12.9907 7.99854C13.0061 7.99086 13.0185 7.98107 13.0307 7.9714C13.0555 7.95187 13.0795 7.93285 13.1261 7.93285V7.86717C13.1261 7.84398 13.1493 7.84398 13.1725 7.84398C13.1493 7.84398 13.1261 7.8208 13.1261 7.8208C13.1384 7.79625 13.1626 7.79119 13.1895 7.78557C13.2135 7.78057 13.2396 7.77511 13.2615 7.75511C13.2383 7.75511 13.1957 7.75511 13.1957 7.73192C13.2615 7.64305 13.3736 7.61987 13.4858 7.59668C13.4742 7.5735 13.4519 7.5735 13.4326 7.5735C13.4133 7.5735 13.3968 7.5735 13.3968 7.55031C13.3968 7.52713 13.42 7.52713 13.4432 7.52713H13.3968C13.3604 7.50894 13.3669 7.47647 13.3713 7.45399L13.3713 7.45398C13.3725 7.44782 13.3736 7.44241 13.3736 7.43826C13.4645 7.33192 13.4943 7.20644 13.524 7.08167C13.5386 7.02055 13.5531 6.9596 13.5747 6.90116C13.5515 6.90116 13.5283 6.90116 13.5283 6.87797C13.3109 7.11772 12.9662 7.20857 12.6388 7.29487L12.6079 7.30302H12.4957C12.3836 7.34938 12.225 7.34938 12.1128 7.27983C12.0595 7.25203 12.0215 7.21729 11.9804 7.17976C11.9529 7.1547 11.9241 7.12839 11.8885 7.10209C11.7067 6.99003 11.5288 6.90116 11.3277 6.8316C10.767 6.65386 10.183 6.56112 9.59899 6.58431C9.76207 6.4952 9.93522 6.45977 10.1107 6.42387C10.2016 6.40528 10.2931 6.38656 10.3841 6.36019C10.4415 6.34339 10.4984 6.32606 10.555 6.30883L10.555 6.30882L10.555 6.30882L10.5551 6.30881L10.5551 6.3088C10.8758 6.21112 11.187 6.11637 11.5288 6.13608C11.4841 6.1203 11.4268 6.126 11.374 6.13125C11.3493 6.13372 11.3255 6.13608 11.3045 6.13608C11.046 6.11695 10.7849 6.17413 10.5124 6.23378C10.4547 6.24642 10.3965 6.25916 10.3377 6.27132C10.231 6.29338 10.1295 6.32506 10.0279 6.35679C9.91588 6.39176 9.8037 6.42678 9.68408 6.44907C9.63219 6.46684 9.59053 6.4971 9.54996 6.52658C9.48468 6.57401 9.42219 6.61941 9.3244 6.60749V6.53794C9.54872 6.26746 9.81944 6.00084 10.1791 5.97765C10.5268 5.92141 10.8546 5.96147 11.1966 6.00326C11.254 6.01028 11.3119 6.01735 11.3703 6.02402C11.6506 6.04643 11.9129 6.10854 12.1955 6.17548L12.225 6.18245C12.2869 6.18245 12.3217 6.23655 12.3554 6.28896C12.3828 6.33153 12.4094 6.37298 12.4493 6.38338C12.5044 6.40224 12.5594 6.40576 12.6145 6.40927C12.6948 6.4144 12.7751 6.41953 12.8554 6.47225C12.8554 6.45665 12.8528 6.44149 12.8502 6.42648L12.8502 6.42646C12.845 6.39684 12.84 6.36777 12.8554 6.33701C12.9053 6.28715 12.9625 6.30053 13.0188 6.3137C13.0629 6.324 13.1064 6.33418 13.1454 6.31382C13.2681 6.23822 13.153 6.12216 13.0379 6.00599C12.9824 5.94998 12.9269 5.89395 12.8979 5.84241C12.8979 5.81923 12.9211 5.79604 12.9211 5.79604C12.9719 5.84127 13.0192 5.88807 13.0661 5.93447C13.1836 6.0506 13.2984 6.16421 13.4587 6.24427C13.5709 6.29064 13.8416 6.35633 13.7952 6.22109C13.7157 6.04593 13.58 5.89403 13.443 5.74069L13.443 5.74067L13.443 5.74065L13.443 5.74063L13.443 5.74062L13.443 5.7406C13.3866 5.67747 13.3299 5.6141 13.2769 5.54875V5.45987C13.2417 5.45987 13.2332 5.4465 13.2227 5.4299C13.2194 5.42465 13.2158 5.41908 13.2112 5.41351V5.32463C13.1545 5.29508 13.1418 5.24826 13.129 5.20118C13.1217 5.17439 13.1145 5.14752 13.099 5.1237C13.0603 5.0613 13.0575 4.98452 13.0546 4.90537C13.0523 4.84239 13.05 4.77791 13.0294 4.71798C12.983 4.58274 12.9637 4.47068 12.9405 4.33544C12.9153 4.19708 12.8876 4.06478 12.8604 3.93526C12.8126 3.70669 12.7665 3.48675 12.7394 3.25738C12.7036 2.92953 12.8702 2.65226 13.0406 2.36882C13.0912 2.28479 13.142 2.20022 13.188 2.11362C13.3465 1.84314 13.5244 1.57652 13.8184 1.39491C13.8825 1.13111 14.057 0.911408 14.2306 0.692797L14.2438 0.676205C14.4151 0.464057 14.7013 0.334364 14.9122 0.238781L14.9361 0.227978C15.2493 0.0888727 15.5317 0 15.5355 0H0V11.8973H11.0222C11.317 11.6851 11.61 11.5512 11.9587 11.3917L11.9587 11.3917C12.1178 11.319 12.2886 11.2409 12.4764 11.1477C12.5162 11.1279 12.5634 11.1047 12.6159 11.0791C12.9307 10.9253 13.4322 10.6802 13.6211 10.4947ZM10.1645 8.88723C10.1532 8.88723 10.1393 8.88862 10.125 8.89004C10.0813 8.89441 10.0349 8.89905 10.0524 8.86404C10.0686 8.78559 10.1493 8.76206 10.2281 8.73909C10.2619 8.72926 10.2953 8.71952 10.3231 8.70562C10.3301 8.70215 10.3375 8.69824 10.3451 8.69417C10.3888 8.67109 10.4422 8.64283 10.4817 8.65925C10.5083 8.69691 10.5412 8.70663 10.5733 8.71607C10.5971 8.72311 10.6204 8.72999 10.6402 8.74812C10.5566 8.83171 10.4589 8.83996 10.3599 8.84832C10.2942 8.85387 10.2278 8.85947 10.1645 8.88723ZM6.70217 8.3462C6.70217 8.36938 6.72538 8.39257 6.72538 8.39257C7.26682 7.78591 7.75799 7.26813 8.45413 6.83923C8.47276 6.83147 8.46583 6.84116 8.45662 6.85403C8.44289 6.87321 8.4241 6.89947 8.47733 6.88559C8.70779 6.8334 8.8113 6.63729 8.912 6.44649C8.93804 6.39715 8.96389 6.34817 8.9917 6.30213C9.09731 6.1315 9.24731 6.02218 9.39847 5.91203C9.50747 5.83259 9.61706 5.75272 9.71105 5.6491C9.71105 5.67229 9.71105 5.69547 9.68784 5.71866C9.71105 5.74184 9.73425 5.74184 9.75745 5.74184C9.79825 5.71127 9.84279 5.69861 9.88548 5.68648C9.93991 5.67102 9.99133 5.65641 10.0282 5.6066C9.85027 5.53705 9.62209 5.51386 9.44419 5.58342C8.97236 5.80753 8.57015 6.16688 8.18727 6.57261C7.95523 6.81604 7.71545 7.04402 7.42152 7.20244C7.22041 7.6043 6.9961 7.96366 6.70217 8.3462ZM8.58932 6.90887C8.57719 6.93311 8.56506 6.94573 8.55348 6.95778C8.54291 6.96878 8.5328 6.9793 8.52357 6.99774C8.50037 7.04411 8.47716 7.06343 8.43462 7.08661C8.41142 7.08661 8.38821 7.08661 8.38821 7.06343C8.41142 6.97456 8.47716 6.88568 8.56611 6.8625C8.58932 6.86636 8.58932 6.88955 8.58932 6.90887ZM9.58078 10.3402C9.60011 10.3209 9.62332 10.2977 9.63492 10.2745C9.65426 10.2282 9.53437 10.2398 9.51503 10.2514C9.49748 10.2654 9.4863 10.2794 9.47283 10.2963L9.47282 10.2963L9.46862 10.3016C9.45249 10.32 9.43362 10.337 9.41446 10.3544L9.41445 10.3544L9.41444 10.3544L9.41443 10.3544C9.40143 10.3661 9.3883 10.378 9.3758 10.3905L9.37576 10.3905C9.32163 10.4446 9.2675 10.4987 9.2095 10.5489C9.17083 10.5837 9.29459 10.5991 9.32166 10.5759C9.3526 10.5528 9.37967 10.5257 9.40674 10.4987C9.41705 10.4987 9.42737 10.4969 9.43424 10.4958C9.43768 10.4952 9.44026 10.4948 9.44155 10.4948C9.50566 10.4734 9.55337 10.4291 9.59978 10.3861L9.61172 10.375C9.62719 10.3595 9.60785 10.3441 9.58078 10.3402ZM9.23224 10.0891C9.23031 10.0891 9.22934 10.0891 9.22886 10.0896C9.22837 10.09 9.22837 10.091 9.22837 10.0929C9.20465 10.1091 9.18123 10.1255 9.15786 10.142C9.0974 10.1845 9.03727 10.2267 8.97312 10.2629C8.91178 10.2973 8.84888 10.3269 8.7854 10.3569C8.74884 10.3741 8.71208 10.3914 8.67533 10.4098C8.67533 10.4098 8.67533 10.4059 8.67146 10.4059C8.66373 10.3943 8.64826 10.3905 8.63279 10.3982C8.5477 10.4446 8.47422 10.5064 8.40847 10.5721C8.39687 10.5798 8.38527 10.5914 8.37753 10.603L8.3466 10.6339L8.34273 10.6378V10.6416C8.32726 10.6571 8.31179 10.6725 8.29245 10.6957C8.28843 10.6997 8.28534 10.7038 8.28237 10.7076C8.27677 10.7149 8.27162 10.7216 8.26151 10.7266C8.24604 10.7344 8.20737 10.7344 8.21124 10.7112V10.7073C8.19963 10.715 8.18416 10.7228 8.17256 10.7266C8.16676 10.7305 8.16096 10.7334 8.15515 10.7363C8.14935 10.7392 8.14355 10.7421 8.13775 10.746C8.13389 10.7421 8.12615 10.7421 8.12228 10.7421C8.11842 10.7421 8.11068 10.7421 8.10681 10.746C8.09779 10.7537 8.08877 10.761 8.07974 10.7683C8.06169 10.7829 8.04365 10.7975 8.0256 10.8155C7.97919 10.858 7.93665 10.9044 7.8941 10.9546C7.8941 10.9546 7.8941 10.9585 7.89024 10.9585C7.89024 10.9604 7.88927 10.9614 7.8883 10.9623C7.88734 10.9633 7.88637 10.9643 7.88637 10.9662L7.87864 10.9739C7.87716 10.9754 7.87625 10.9769 7.87547 10.9781C7.8742 10.9802 7.87329 10.9817 7.8709 10.9817L7.86703 10.9855C7.86317 10.9932 7.8593 11.001 7.85156 11.0087C7.8477 11.0126 7.83996 11.0164 7.83223 11.0164C7.82836 11.0126 7.82449 11.0087 7.82449 11.0048C7.82256 11.0029 7.82159 11.001 7.82062 10.999C7.81966 10.9971 7.81869 10.9952 7.81676 10.9932C7.81289 10.9875 7.80999 10.9817 7.80709 10.9759C7.80419 10.9701 7.80129 10.9643 7.79742 10.9585V10.9546C7.79742 10.9527 7.79645 10.9507 7.79549 10.9488C7.79452 10.9469 7.79355 10.9449 7.79355 10.943L7.86317 10.8619L7.86703 10.858C7.8709 10.8541 7.87477 10.8493 7.87864 10.8445C7.8825 10.8397 7.88637 10.8348 7.89024 10.831C7.89604 10.8232 7.90281 10.8155 7.90957 10.8078C7.91634 10.8 7.92311 10.7923 7.92891 10.7846C7.93085 10.7807 7.93278 10.7778 7.93471 10.7749C7.93665 10.772 7.93858 10.7691 7.94051 10.7653C7.96372 10.7344 7.98692 10.7034 8.01013 10.6687V10.6648C8.014 10.6609 8.01786 10.6571 8.01786 10.6494C8.02947 10.6339 8.04107 10.6184 8.0488 10.603L8.07201 10.5566V10.5528L8.07587 10.5489C8.07587 10.547 8.07684 10.546 8.07781 10.545C8.07878 10.5441 8.07974 10.5431 8.07974 10.5412C8.08361 10.5315 8.08747 10.5228 8.09134 10.5141L8.09135 10.5141L8.09137 10.514C8.09523 10.5054 8.09909 10.4967 8.10295 10.4871V10.4832L8.10681 10.4677C8.10875 10.4639 8.10971 10.46 8.11068 10.4562C8.11165 10.4523 8.11262 10.4484 8.11455 10.4446V10.4407C8.11648 10.4349 8.11745 10.4291 8.11842 10.4233C8.11938 10.4175 8.12035 10.4117 8.12228 10.4059C8.12228 10.4021 8.12228 10.3943 8.11842 10.3905C8.14162 10.348 8.17256 10.3093 8.20737 10.2707C8.20543 10.2707 8.2035 10.2716 8.20157 10.2726C8.19963 10.2736 8.1977 10.2745 8.19577 10.2745C8.17855 10.2853 8.16373 10.2996 8.14865 10.3142L8.14864 10.3142C8.13661 10.3259 8.1244 10.3377 8.11068 10.348C8.08748 10.3673 8.04107 10.3364 8.07201 10.3132C8.09134 10.2977 8.10681 10.2823 8.12228 10.2668C8.12228 10.2668 8.12228 10.2629 8.12615 10.2629C8.14157 10.2491 8.15638 10.2334 8.17131 10.2175C8.19382 10.1936 8.2166 10.1695 8.24218 10.1509C8.26925 10.1316 8.28858 10.1161 8.31179 10.0968C8.31566 10.0929 8.31952 10.0891 8.32339 10.0891C8.33886 10.0697 8.35433 10.0504 8.37367 10.0311C8.37367 10.0311 8.37753 10.0311 8.37753 10.0272C8.51035 9.89929 8.69697 9.85416 8.88746 9.80809L8.88747 9.80809C9.00761 9.77904 9.12929 9.74961 9.23997 9.6988C9.30249 9.67295 9.37222 9.68312 9.44112 9.69318C9.49582 9.70116 9.55001 9.70906 9.59965 9.6988C9.66539 9.6988 9.73501 9.6988 9.80075 9.74517C9.64782 9.82606 9.50187 9.91856 9.35748 10.0101L9.35747 10.0101C9.31564 10.0366 9.27394 10.063 9.23224 10.0891ZM9.71175 8.51447C9.69365 8.51653 9.68191 8.51787 9.69197 8.52792C9.75772 8.59361 9.89308 8.57043 9.9859 8.52019C10.0516 8.47382 10.1213 8.47382 10.2102 8.47382C10.2334 8.47382 10.2334 8.43132 10.2334 8.40814C10.2992 8.43132 10.3456 8.43132 10.4113 8.43132C10.9489 8.31926 11.4671 8.20721 11.9622 7.95991C11.4613 7.57546 10.8437 7.40421 10.2389 7.23648C10.1385 7.20865 10.0385 7.18092 9.93949 7.15233C9.96126 7.15233 9.98303 7.15953 10.0049 7.16678C10.0492 7.18143 10.094 7.19626 10.1406 7.15233C10.0792 7.1037 10.0109 7.0944 9.94326 7.0852C9.88726 7.07758 9.83171 7.07002 9.78092 7.04027C9.78622 7.04027 9.79252 7.04148 9.79938 7.04279C9.82254 7.04723 9.85196 7.05287 9.86987 7.01709C9.75239 6.9584 9.63492 6.93847 9.51633 6.91834C9.45533 6.90799 9.39404 6.89759 9.3323 6.88184C9.44445 6.85866 9.51407 6.76979 9.51407 6.65773C9.51407 6.63455 9.46766 6.63455 9.44445 6.63455C9.1776 6.76979 8.99583 7.01709 8.88367 7.30689C8.98479 7.36602 9.09376 7.35917 9.20057 7.35245C9.26126 7.34863 9.32125 7.34486 9.37871 7.35326C9.328 7.40111 9.25471 7.4141 9.18426 7.42659C9.158 7.43125 9.13214 7.43583 9.10799 7.44213C9.03837 7.45758 8.97262 7.50782 8.99583 7.55419C9.0113 7.57351 9.02677 7.58123 9.04611 7.5851C8.99583 7.60055 8.94942 7.62374 8.90688 7.66624C8.97055 7.71603 9.0362 7.70642 9.101 7.69694C9.12673 7.69317 9.15232 7.68943 9.1776 7.68943C9.1776 7.71749 9.19614 7.72702 9.21543 7.73694C9.22535 7.74204 9.23546 7.74724 9.24335 7.75512C9.13119 7.79762 9.04224 7.89036 9.01903 7.95604C8.99131 8.02298 8.94013 8.06648 8.8894 8.1096C8.8552 8.13866 8.8212 8.16756 8.79472 8.20334V8.27289C8.72001 8.33869 8.64322 8.39743 8.56748 8.45538C8.41192 8.5744 8.26078 8.69004 8.14112 8.85636C8.16433 8.85636 8.16433 8.87955 8.16433 8.90273C8.14293 8.9348 8.11249 8.95701 8.08362 8.97808C8.04987 9.0027 8.01827 9.02576 8.00576 9.06116C8.00576 9.08434 8.00576 9.10752 8.02897 9.10752C8.17089 9.06094 8.29368 8.98249 8.41405 8.90559C8.52329 8.83579 8.63055 8.76727 8.74831 8.72499C8.84455 8.70199 8.92834 8.65864 9.01009 8.61635C9.07946 8.58047 9.14736 8.54534 9.22014 8.52406C9.27622 8.51246 9.3381 8.49604 9.39998 8.47962C9.46186 8.4632 9.52374 8.44678 9.57981 8.43518C9.57981 8.45837 9.57981 8.48155 9.60302 8.48155H9.78092C9.76996 8.50783 9.73541 8.51177 9.71175 8.51447Z" fill="#000091"/>
<path d="M32.8033 0.015625H20.0098C20.0098 0.015625 20.033 0.019489 20.1297 0.0697214C20.2342 0.123818 20.3695 0.197234 20.4507 0.239739C20.617 0.324747 20.7756 0.43294 20.88 0.599093C20.9264 0.664782 20.9922 0.800023 20.9496 0.888896C20.9032 1.00095 20.88 1.18256 20.7679 1.22507C20.6325 1.29462 20.4546 1.29462 20.296 1.27143C20.2071 1.27143 20.1181 1.24825 20.0253 1.22507C20.3618 1.36031 20.6789 1.51873 20.9032 1.83172C20.9264 1.87809 21.0154 1.89741 21.1043 1.89741C21.1275 1.89741 21.1275 1.94378 21.1275 1.9631C21.0811 2.00946 21.0386 2.03265 21.0618 2.09834H21.1275C21.2397 2.05197 21.2165 1.82785 21.375 1.89741C21.4872 1.9631 21.5336 2.12152 21.464 2.23358C21.375 2.32245 21.2861 2.392 21.1933 2.45769C21.1701 2.50406 21.1701 2.56975 21.1933 2.61612C21.259 2.70499 21.2822 2.79386 21.3054 2.8866C21.375 3.04502 21.3944 3.22277 21.464 3.38119C21.553 3.71737 21.6419 4.05354 21.6226 4.39357C21.6226 4.57132 21.5336 4.72974 21.5994 4.91135C21.6458 5.0891 21.7579 5.22434 21.8469 5.38276C21.9358 5.518 22.0248 5.60688 22.0944 5.74212C22.2298 5.96623 22.4773 6.19034 22.3651 6.46083C22.2994 6.61925 22.0519 6.59607 21.8933 6.68494C21.7579 6.797 21.8701 6.97861 21.9397 7.09066C22.0519 7.29159 21.8043 7.42683 21.6458 7.49639C21.6922 7.56594 21.7811 7.54275 21.8043 7.58526C21.8275 7.69732 21.9397 7.763 21.8701 7.87892C21.7811 8.01417 21.5104 8.07985 21.6458 8.28465C21.7347 8.44307 21.6767 8.61695 21.6226 8.77924C21.5568 8.98017 21.375 9.06905 21.2165 9.11541C21.0811 9.16178 20.9226 9.16178 20.7911 9.1386C20.7447 9.11541 20.7021 9.09223 20.6557 9.09223C20.2728 9.04586 19.89 8.93767 19.5109 8.93767C19.3988 8.96085 19.2866 8.98017 19.1977 9.02654C19.0971 9.09996 19.0043 9.1811 18.927 9.26611C18.927 9.26611 18.927 9.26611 18.9231 9.26998C18.9076 9.2893 18.8883 9.30475 18.8728 9.32407C18.8651 9.33566 18.8535 9.34726 18.8457 9.35885C18.838 9.36658 18.8341 9.3743 18.8264 9.38203C18.7607 9.46318 18.7026 9.55205 18.6485 9.64092C18.6446 9.64865 18.6408 9.65251 18.6369 9.65638C18.633 9.66797 18.6253 9.6757 18.6176 9.68729C18.5441 9.82253 18.4899 9.96164 18.4474 10.1007C18.2927 10.6147 18.3623 11.0552 18.4706 11.1634C18.5015 11.1943 19.2131 11.4145 19.7082 11.6348C19.9402 11.7391 20.1027 11.8164 20.238 11.9014H32.7995V0.015625H32.8033Z" fill="#E1000F"/>
<path d="M20.7724 4.34695C20.8614 4.37013 20.9968 4.37013 20.9968 4.4165C20.9503 4.59424 20.6835 4.64061 20.5481 4.82222H20.4785C20.4128 4.86859 20.4321 4.98065 20.3664 4.98065C20.3006 4.95746 20.231 4.98065 20.1653 5.00383C20.2542 5.0927 20.3664 5.16226 20.5017 5.13907C20.5249 5.13907 20.5675 5.18544 20.5675 5.22795C20.5675 5.22795 20.5907 5.22795 20.6139 5.20476C20.6371 5.20476 20.6603 5.20476 20.6603 5.22795V5.31682C20.5945 5.40569 20.4785 5.36319 20.3896 5.38251C20.5713 5.42887 20.7492 5.42887 20.9078 5.38251C21.0432 5.33614 20.9078 5.11202 20.9968 4.99997C20.9503 4.99997 20.9968 4.93042 20.9503 4.93042C20.9968 4.88405 21.0393 4.81836 21.0857 4.79517C21.1321 4.79517 21.1979 4.77199 21.2211 4.72562C21.2211 4.67925 21.1321 4.65993 21.1515 4.61356C21.2868 4.52469 21.399 4.38945 21.3526 4.25421C21.3294 4.18466 21.1515 4.18466 21.0393 4.14215C20.9271 4.09965 20.7918 4.14215 20.6564 4.16534C20.5443 4.16534 20.4321 4.23489 20.32 4.25421C20.1614 4.30058 20.026 4.38945 19.8945 4.47832C20.0531 4.41264 20.2078 4.38945 20.3896 4.34308C20.5249 4.34695 20.6371 4.31603 20.7724 4.34695Z" fill="#808080"/>
</svg>
