<svg width="294" height="69" viewBox="0 0 294 69" fill="none" xmlns="http://www.w3.org/2000/svg">
<path d="M166.886 27.9171C162.742 27.9171 159.375 24.4353 159.375 20.1567V9.56461C159.375 7.16803 157.49 5.22191 155.176 5.22191C153.904 5.22191 152.776 5.82233 152.005 6.74996C153.1 3.86033 155.809 1.8043 158.982 1.8043C163.125 1.8043 166.493 5.28291 166.493 9.56461V20.1567C166.493 22.5533 168.378 24.4994 170.692 24.4994C171.964 24.4994 173.092 23.8984 173.864 22.9714C172.768 25.861 170.06 27.9171 166.886 27.9171ZM158.521 20.1593C158.521 22.066 157.024 23.6131 155.176 23.6131C153.33 23.6131 151.833 22.066 151.833 20.1593V9.56144C151.833 9.55445 151.832 9.5481 151.832 9.54174C151.845 7.6401 153.336 6.10507 155.176 6.10507C157.024 6.10507 158.522 7.65217 158.522 9.56461V20.1567C158.522 20.1574 158.522 20.1586 158.522 20.1593H158.521ZM170.692 6.10507C172.54 6.10507 174.038 7.65217 174.038 9.56461V20.1567C174.038 22.066 172.541 23.6163 170.692 23.6163C168.844 23.6163 167.35 22.066 167.35 20.1567V9.56461C167.35 9.56334 167.35 9.56144 167.35 9.56017C167.352 7.64963 168.846 6.10507 170.692 6.10507ZM174.498 1.8043C178.639 1.8043 182.009 5.28291 182.009 9.56461V20.1567C182.009 22.5533 183.891 24.4994 186.209 24.4994C187.481 24.4994 188.608 23.8984 189.377 22.9714C188.284 25.861 185.578 27.9171 182.399 27.9171C178.258 27.9171 174.892 24.4353 174.892 20.1567V9.56461C174.892 7.16803 173.008 5.22191 170.692 5.22191C169.42 5.22191 168.293 5.82233 167.521 6.74996C168.616 3.86033 171.322 1.8043 174.498 1.8043ZM143.005 20.1593C143.005 22.0692 141.507 23.6163 139.662 23.6163C137.812 23.6163 136.314 22.0692 136.314 20.1593V9.56144H136.317C136.317 7.65217 137.814 6.10507 139.66 6.10507C141.507 6.10507 143.005 7.65217 143.005 9.56144V20.1593ZM127.489 20.1593C127.489 22.0692 125.992 23.6163 124.147 23.6163C122.296 23.6163 120.798 22.0692 120.798 20.1593V9.56144H120.801C120.801 7.65472 122.298 6.10761 124.143 6.10761C125.992 6.10761 127.489 7.65472 127.489 9.56144V20.1593ZM174.643 23.3761C175.878 26.5555 178.883 28.8002 182.399 28.8002C187.019 28.8002 190.762 24.934 190.762 20.1567H189.553C189.553 22.066 188.056 23.6163 186.209 23.6163C184.36 23.6163 182.863 22.066 182.863 20.1567V9.56461C182.863 4.7905 179.118 0.917969 174.498 0.917969C170.985 0.917969 167.98 3.16588 166.743 6.34206C165.505 3.16461 162.499 0.917969 158.982 0.917969C155.467 0.917969 152.463 3.16461 151.226 6.34206C149.989 3.16652 146.983 0.921146 143.465 0.921146C139.95 0.921146 136.945 3.16779 135.71 6.3446C134.475 3.16652 131.471 0.921146 127.952 0.921146C124.434 0.921146 121.429 3.16779 120.195 6.34777C118.96 3.16779 115.956 0.921146 112.437 0.921146C107.818 0.921146 104.074 4.78733 104.074 9.56144H105.285C105.285 7.65472 106.782 6.10761 108.627 6.10761C110.475 6.10761 111.973 7.65472 111.973 9.56144V20.1593C111.973 24.9309 115.718 28.8002 120.335 28.8002C123.852 28.8002 126.858 26.5548 128.096 23.3793C129.332 26.5548 132.336 28.8002 135.851 28.8002C139.37 28.8002 142.375 26.5523 143.609 23.3729C144.844 26.5523 147.85 28.8002 151.367 28.8002C154.883 28.8002 157.891 26.5567 159.128 23.3799C160.365 26.5574 163.369 28.8002 166.886 28.8002C170.404 28.8002 173.408 26.5548 174.643 23.3761Z" fill="#000096"/>
<path d="M208.77 67.6669H210.332V46.7787H208.77V67.6669Z" fill="#000096"/>
<path d="M263.261 60.7145L267.71 48.9005L272.247 60.7145H263.261ZM266.973 46.7791L259.048 67.6672H260.639L262.701 62.158H272.806L274.928 67.6672H276.489L268.476 46.7791H266.973Z" fill="#000096"/>
<path d="M69.5088 67.6669H71.0705V46.7787H69.5088V67.6669Z" fill="#000096"/>
<path d="M38.9463 64.9275C37.856 65.988 36.3242 66.5477 34.704 66.5477C33.0832 66.5477 31.5513 65.988 30.4617 64.9275C28.3993 62.9535 28.311 59.6833 28.311 57.2085C28.311 54.7338 28.3993 51.4928 30.4617 49.5187C31.5513 48.4583 33.0832 47.8986 34.704 47.8986C36.3242 47.8986 37.856 48.4583 38.9463 49.5187C41.0087 51.4928 41.097 54.7338 41.097 57.2085C41.097 59.6833 41.0087 62.9535 38.9463 64.9275ZM34.704 46.3959C32.4351 46.3959 30.6383 47.2797 29.3415 48.5174C26.985 50.7856 26.72 54.2033 26.72 57.2085C26.72 60.2132 26.985 63.6606 29.3415 65.9289C30.6383 67.1666 32.4351 68.0503 34.704 68.0503C36.9722 68.0503 38.7697 67.1666 40.0658 65.9289C42.423 63.6606 42.688 60.2132 42.688 57.2085C42.688 54.2033 42.423 50.7856 40.0658 48.5174C38.7697 47.2797 36.9722 46.3959 34.704 46.3959Z" fill="#000096"/>
<path d="M10.7877 65.3399L3.06867 46.7791H0.917969V67.6672H2.4206V49.1363L10.0507 67.3724H11.4059L19.0366 48.9889V67.6672H20.5392V46.7791H18.3593L10.7877 65.3399Z" fill="#000096"/>
<path d="M283.076 66.2237V46.7791H281.544V67.6672H293.918V66.2237H283.076Z" fill="#000096"/>
<path d="M79.7785 46.7791H78.2466V67.6672H90.6203V66.2237H79.7785V46.7791Z" fill="#000096"/>
<path d="M56.2484 66.2237H50.3859V57.5027H56.2484C59.2829 57.5027 61.846 58.3573 61.846 61.7749C61.846 65.399 59.1063 66.2237 56.2484 66.2237ZM50.3859 48.2226H56.2484C58.7823 48.2226 61.3745 49.1064 61.3745 52.0233C61.3745 55.352 59.1355 56.0299 56.2484 56.0299H50.3859V48.2226ZM59.607 56.7962C61.9934 56.1475 62.9363 54.174 62.9363 51.9052C62.9363 50.3441 62.1115 48.7824 60.7855 47.8986C59.4595 47.0148 57.8102 46.7791 56.2484 46.7791H48.8534V67.6672H56.2484C58.1043 67.6672 59.9901 67.4315 61.4927 66.2237C62.8181 65.1633 63.4077 63.5425 63.4077 61.8931C63.4077 59.5066 62.1999 57.4144 59.607 56.7962Z" fill="#000096"/>
<path d="M228.706 64.9275C227.617 65.988 226.084 66.5477 224.464 66.5477C222.844 66.5477 221.312 65.988 220.222 64.9275C218.159 62.9535 218.071 59.6833 218.071 57.2085C218.071 54.7338 218.159 51.4928 220.222 49.5187C221.312 48.4583 222.844 47.8986 224.464 47.8986C226.084 47.8986 227.617 48.4583 228.706 49.5187C230.769 51.4928 230.857 54.7338 230.857 57.2085C230.857 59.6833 230.769 62.9535 228.706 64.9275ZM224.464 46.3959C222.196 46.3959 220.398 47.2797 219.102 48.5174C216.745 50.7856 216.48 54.2033 216.48 57.2085C216.48 60.2132 216.745 63.6606 219.102 65.9289C220.398 67.1666 222.196 68.0503 224.464 68.0503C226.733 68.0503 228.53 67.1666 229.826 65.9289C232.183 63.6606 232.448 60.2132 232.448 57.2085C232.448 54.2033 232.183 50.7856 229.826 48.5174C228.53 47.2797 226.733 46.3959 224.464 46.3959Z" fill="#000096"/>
<path d="M252.49 65.2517L240.352 46.7791H238.614V67.6673H240.146V49.1656L252.255 67.6673H253.993V46.7791H252.49V65.2517Z" fill="#000096"/>
<path d="M164.496 65.2517L152.359 46.7791H150.62V67.6673H152.153V49.1656L164.261 67.6673H165.999V46.7791H164.496V65.2517Z" fill="#000096"/>
<path d="M188.811 48.2518H195.439V67.6672H196.971V48.2518H203.63V46.7791H188.811V48.2518Z" fill="#000096"/>
<path d="M175.267 60.7145L179.716 48.9005L184.253 60.7145H175.267ZM178.98 46.7791L171.055 67.6672H172.646L174.707 62.158H184.813L186.934 67.6672H188.495L180.482 46.7791H178.98Z" fill="#000096"/>
<path d="M131.25 57.356H125.152V48.2227H131.25C134.697 48.2227 136.7 49.8136 136.7 52.789C136.7 55.7651 134.697 57.356 131.25 57.356ZM138.291 52.789C138.291 49.1656 135.816 46.7791 131.25 46.7791H123.619V67.6673H125.152V58.7697H132.429L136.523 67.6673H138.203L133.96 58.3872C136.582 57.68 138.291 55.5293 138.291 52.789Z" fill="#000096"/>
<path d="M104.54 67.6672H117.916V66.1945H106.102V57.3852H116.502V55.9124H106.102V48.2518H117.916V46.7791H104.54V67.6672Z" fill="#000096"/>
<path d="M95.8027 67.6669H97.3644V46.7787H95.8027V67.6669Z" fill="#000096"/>
</svg>
