<svg width="38" height="14" viewBox="0 0 38 14" fill="none" xmlns="http://www.w3.org/2000/svg">
<path d="M4.4679 0.148438H36.509V13.561H4.4679V0.148438Z" fill="white"/>
<path d="M16.0094 12.2062C16.1651 12.0548 16.3208 11.9034 16.4624 11.7383C16.7455 11.4217 17.0286 11.1327 17.34 10.8712C17.4391 10.7886 17.5381 10.706 17.6372 10.6509C17.6655 10.6234 17.6655 10.5684 17.6939 10.5408C17.5665 10.5959 17.4815 10.6922 17.34 10.7473C17.3117 10.7473 17.2834 10.7198 17.3117 10.6922C17.4107 10.6234 17.5098 10.5546 17.5948 10.4858H17.5806C17.5523 10.4858 17.5523 10.4583 17.5523 10.4307C17.1984 10.3757 16.9436 10.6096 16.7171 10.8161C16.6605 10.8436 16.6039 10.7886 16.5898 10.7886C16.1934 10.9124 15.9103 11.2565 15.514 11.4079V11.3529C15.3583 11.4079 15.2026 11.5043 15.0327 11.5318C14.7921 11.5869 14.5797 11.5593 14.3816 11.5593C14.056 11.5869 13.7304 11.6557 13.419 11.7245C13.4049 11.7245 13.4049 11.7245 13.3907 11.7383C13.2208 11.7795 13.051 11.8484 12.8953 11.9309L12.8811 11.9447C12.867 11.9585 12.8528 11.9722 12.8387 11.986C12.782 12.041 12.7254 12.1099 12.6546 12.1374C12.4848 12.22 12.3574 12.3576 12.2158 12.4815C12.2017 12.4952 12.1875 12.4952 12.1734 12.4952C12.0318 12.6329 11.8903 12.7705 11.7487 12.8944C11.7487 12.8806 11.7063 12.8806 11.6779 12.8806C11.6779 12.8669 11.6921 12.8669 11.6921 12.8531C11.7204 12.8118 11.7346 12.7843 11.7629 12.743C11.7912 12.7017 11.8195 12.6604 11.8478 12.6191C11.8903 12.5641 11.9186 12.509 11.961 12.4677C11.9752 12.454 11.9752 12.4402 11.961 12.4402C11.9469 12.4264 11.9327 12.4264 11.9186 12.4264C12.046 12.3026 12.2158 12.1924 12.3715 12.0961C12.3574 12.0961 12.3291 12.0823 12.3432 12.0686C12.3574 12.041 12.3715 12.0273 12.3857 11.9998C12.3857 11.986 12.3857 11.986 12.3999 11.9722C12.3999 11.9585 12.3857 11.9585 12.3857 11.9447C12.3432 11.9722 12.3008 11.9998 12.2583 12.0273C12.1875 12.0823 12.1451 12.1924 12.046 12.1924C12.046 12.1924 12.0177 12.1924 12.0035 12.1924C11.9894 12.1924 11.9752 12.1924 11.9752 12.1787C11.9752 12.1787 11.9752 12.1787 11.9752 12.1649C11.9752 12.1512 11.9894 12.1512 11.9894 12.1374C11.9894 12.1236 12.0035 12.1236 12.0035 12.1099C12.0035 12.1099 12.0035 12.0961 12.0177 12.0961C12.0177 12.0823 12.0318 12.0686 12.0318 12.0686C12.0318 12.0548 12.046 12.0548 12.046 12.041C12.0601 12.0273 12.0743 11.9998 12.0743 11.986C12.0743 11.9722 12.0884 11.9722 12.0884 11.9585C12.1026 11.9447 12.1026 11.9309 12.1167 11.9172C12.1309 11.8897 12.1167 11.8759 12.1026 11.8759C12.1451 11.8071 12.2158 11.7658 12.2866 11.7245H12.2725C12.3715 11.6694 12.4848 11.6144 12.5839 11.5593C12.598 11.5456 12.6122 11.5318 12.6263 11.518C12.4706 11.5731 12.3432 11.6419 12.2017 11.7245C12.2017 11.7245 12.1734 11.7383 12.1592 11.752C12.1592 11.752 12.1309 11.7658 12.0884 11.7245V11.7107C12.1167 11.6557 12.2017 11.6281 12.2441 11.5869C12.2725 11.5869 12.3008 11.5869 12.3008 11.6144C13.1501 10.9813 14.3108 11.1189 15.3016 10.8023C15.3866 10.7473 15.4573 10.6922 15.5423 10.6509C15.6697 10.5959 15.7829 10.472 15.9386 10.3894C16.1509 10.238 16.3067 10.0453 16.3916 9.7976C16.3916 9.77008 16.3633 9.74255 16.3633 9.74255C16.0094 10.1004 15.6272 10.3757 15.2026 10.5821C14.6364 10.8712 14.0418 10.8161 13.4473 10.8987C13.4756 10.8436 13.5323 10.8436 13.5747 10.8436C13.5747 10.761 13.6313 10.7335 13.688 10.6922H13.7729C13.8012 10.6922 13.8012 10.6372 13.8295 10.6372C13.8861 10.6372 13.9711 10.6096 13.9428 10.6096C13.8578 10.4995 13.7021 10.6922 13.5747 10.6096C13.6313 10.5546 13.603 10.4858 13.6597 10.4583H13.7729C13.7729 10.4032 13.8295 10.3481 13.8295 10.3481C14.2259 10.1142 14.5939 9.93524 14.9619 9.72879C14.877 9.72879 14.8345 9.81137 14.7496 9.75631C14.8062 9.75631 14.7496 9.67373 14.8062 9.67373C15.1035 9.59115 15.3441 9.43975 15.6272 9.32965C15.514 9.32965 15.4432 9.41223 15.33 9.32965C15.3866 9.30212 15.4149 9.24707 15.4857 9.24707V9.16448C15.4857 9.13696 15.514 9.13696 15.5423 9.13696C15.514 9.13696 15.4857 9.10943 15.4857 9.10943C15.514 9.05438 15.5989 9.0819 15.6414 9.02685C15.6131 9.02685 15.5564 9.02685 15.5564 8.99932C15.6414 8.88922 15.7688 8.87545 15.9103 8.84793C15.882 8.79287 15.7971 8.84793 15.7971 8.79287C15.7971 8.76534 15.8254 8.76534 15.8537 8.76534H15.7971C15.7404 8.73782 15.7688 8.68276 15.7688 8.65524C15.9245 8.47631 15.9245 8.24233 16.0094 8.03588C15.9811 8.03588 15.9528 8.03588 15.9528 8.00835C15.6838 8.29739 15.2733 8.39373 14.877 8.50384H14.693C14.5656 8.55889 14.3674 8.55889 14.24 8.47631C14.1268 8.42126 14.0843 8.35244 13.9711 8.26986C13.7587 8.14599 13.5464 8.03588 13.3199 7.9533C12.6688 7.74685 11.9752 7.63674 11.2958 7.66427C11.593 7.51287 11.9186 7.49911 12.2158 7.40276C12.6688 7.27889 13.0793 7.11373 13.5606 7.14125C13.4756 7.11373 13.3766 7.14125 13.2916 7.14125C12.9236 7.11373 12.5556 7.22384 12.1592 7.29265C11.8903 7.34771 11.6496 7.44405 11.3948 7.49911C11.2391 7.55416 11.1542 7.70556 10.9702 7.67803V7.6505C11.2391 7.33394 11.5647 7.03115 11.9752 7.01738C12.4565 6.9348 12.8953 7.01738 13.3766 7.07244C13.7304 7.09996 14.0277 7.18255 14.3816 7.25136C14.509 7.25136 14.5373 7.45781 14.6505 7.48534C14.8062 7.5404 14.9761 7.48534 15.1318 7.59545C15.1318 7.5404 15.1035 7.48534 15.1318 7.44405C15.245 7.33394 15.3724 7.47158 15.4857 7.41652C15.698 7.29265 15.3016 7.05867 15.1884 6.86599C15.1884 6.83846 15.2167 6.81093 15.2167 6.81093C15.429 6.98986 15.5847 7.19631 15.8537 7.33394C15.9811 7.389 16.3067 7.45781 16.25 7.30642C16.1226 7.01738 15.8537 6.78341 15.6272 6.53566V6.41179C15.5706 6.41179 15.5706 6.38426 15.5423 6.35674V6.24663C15.429 6.19158 15.4573 6.09523 15.4149 6.01265C15.33 5.88878 15.3866 5.69609 15.33 5.54469C15.2733 5.39329 15.245 5.25566 15.2167 5.10426C15.1318 4.66383 15.0327 4.29222 14.9761 3.86555C14.9195 3.37007 15.2733 2.99845 15.514 2.55802C15.698 2.24146 15.9103 1.93866 16.25 1.74598C16.335 1.42942 16.5473 1.16791 16.7596 0.933932C16.9719 0.699953 17.3258 0.521028 17.5665 0.41092C17.9345 0.245758 18.2601 0.149414 18.2601 0.149414H0V13.7615H12.9802C13.4898 13.4036 13.9852 13.2385 14.693 12.9081C15.0044 12.7843 15.7688 12.454 16.0094 12.2062ZM11.961 10.3481C11.9044 10.3481 11.8053 10.3757 11.8336 10.3206C11.862 10.1967 12.046 10.1967 12.1592 10.1417C12.2158 10.1142 12.2866 10.0591 12.3432 10.0866C12.3999 10.1692 12.4706 10.1417 12.5272 10.1967C12.3432 10.3481 12.1451 10.2793 11.961 10.3481ZM7.89854 9.7976C7.89854 9.7976 7.87022 9.77008 7.87022 9.74255C8.2241 9.30212 8.47889 8.90298 8.71953 8.43502C9.07341 8.2561 9.35651 7.99459 9.6113 7.71932C10.0643 7.25136 10.5314 6.85222 11.0976 6.59072C11.3099 6.50814 11.5789 6.53566 11.777 6.61824C11.6921 6.72835 11.5647 6.70082 11.4515 6.76964C11.4232 6.76964 11.3948 6.76964 11.3665 6.74211C11.3948 6.71459 11.3948 6.68706 11.3948 6.65953C11.1259 6.94857 10.7579 7.07244 10.5597 7.40276C10.4181 7.6505 10.3049 7.98083 9.96518 8.06341C9.85194 8.09093 9.99349 7.98083 9.93687 8.00835C9.11587 8.50384 8.53551 9.09567 7.89854 9.7976ZM10.0926 8.09093C10.0643 8.14599 10.036 8.14599 10.0076 8.20104C9.97933 8.2561 9.95102 8.28362 9.8944 8.31115C9.86609 8.31115 9.83778 8.31115 9.83778 8.28362C9.86609 8.17351 9.95102 8.07717 10.0501 8.04964C10.0926 8.03588 10.0926 8.06341 10.0926 8.09093ZM11.3241 11.9447C11.3099 11.9722 11.2816 11.9998 11.2533 12.0273C11.2816 12.0273 11.3099 12.0548 11.2816 12.0686C11.225 12.1236 11.1542 12.1787 11.0834 12.2062C11.0834 12.2062 11.0551 12.2062 11.041 12.2062C11.0127 12.2337 10.9702 12.2613 10.9419 12.3026C10.9136 12.3301 10.7579 12.3163 10.8003 12.275C10.8711 12.22 10.9277 12.1512 10.9985 12.0961C11.041 12.0686 11.0834 12.0273 11.1117 11.986C11.1259 11.9585 11.14 11.9447 11.1684 11.9309C11.2108 11.9034 11.3524 11.8897 11.3241 11.9447ZM10.8428 11.7383C10.7296 11.8071 10.6305 11.8759 10.5314 11.9447C10.4181 12.0135 10.2907 12.0548 10.1775 12.1099C10.1633 12.0961 10.1492 12.0961 10.135 12.0961C10.036 12.1512 9.95102 12.22 9.86609 12.3026C9.85194 12.3163 9.83778 12.3301 9.82363 12.3438L9.78116 12.3851C9.76701 12.3989 9.7387 12.4264 9.72454 12.4402C9.71039 12.454 9.71039 12.4677 9.68208 12.4815C9.66792 12.4952 9.62545 12.4952 9.62545 12.4677C9.6113 12.4815 9.59714 12.4815 9.58299 12.4952C9.56883 12.509 9.55468 12.509 9.54052 12.5228H9.52637H9.51221C9.4839 12.5503 9.44144 12.5778 9.41313 12.6054C9.35651 12.6604 9.29989 12.7017 9.25742 12.7705C9.25742 12.7705 9.25742 12.7705 9.25742 12.7843C9.25742 12.7843 9.25742 12.7843 9.24327 12.798C9.24327 12.798 9.24327 12.8118 9.22911 12.8118C9.22911 12.8256 9.21496 12.8256 9.21496 12.8393C9.21496 12.8393 9.2008 12.8531 9.18665 12.8531L9.17249 12.8393C9.17249 12.8393 9.17249 12.8256 9.15834 12.8256C9.14418 12.8118 9.14418 12.798 9.13003 12.7843V12.7705C9.15834 12.743 9.18665 12.7155 9.21496 12.6742C9.22911 12.6604 9.22911 12.6466 9.24327 12.6466C9.25742 12.6329 9.27158 12.6054 9.28573 12.5916C9.28573 12.5778 9.29989 12.5778 9.29989 12.5641C9.3282 12.5228 9.35651 12.4952 9.38482 12.454L9.39897 12.4402C9.41313 12.4264 9.42728 12.3989 9.44144 12.3851C9.45559 12.3714 9.45559 12.3576 9.46975 12.3301C9.46975 12.3301 9.46975 12.3301 9.46975 12.3163C9.4839 12.2888 9.4839 12.275 9.49806 12.2613V12.2475C9.49806 12.2337 9.49806 12.2337 9.51221 12.22C9.51221 12.2062 9.51221 12.1924 9.52637 12.1787V12.1649C9.55468 12.1099 9.59715 12.0686 9.63961 12.0273H9.62545C9.58299 12.0548 9.55468 12.0823 9.52637 12.1099C9.49806 12.1374 9.44144 12.0961 9.4839 12.0686C9.51221 12.0548 9.52637 12.0273 9.54052 12.0135C9.58299 11.9722 9.62545 11.9172 9.68208 11.8759C9.71039 11.8484 9.7387 11.8346 9.76701 11.8208L9.78116 11.8071C9.79532 11.7795 9.82363 11.7658 9.83778 11.7383C10.0926 11.5043 10.5172 11.5043 10.8428 11.3529C10.9702 11.2978 11.14 11.3804 11.2674 11.3529C11.3524 11.3529 11.4232 11.3529 11.5081 11.4079C11.2816 11.4492 11.0693 11.6006 10.8428 11.7383ZM11.3948 9.949C11.3665 9.92147 11.4798 9.949 11.5081 9.89395H11.2958C11.2674 9.89395 11.2674 9.86642 11.2674 9.83889C11.14 9.86642 10.9702 9.92147 10.8428 9.949C10.6588 10.0041 10.4889 10.1279 10.2766 10.183C9.97933 10.2931 9.7387 10.5271 9.44144 10.6234C9.41313 10.6234 9.41313 10.5959 9.41313 10.5684C9.44144 10.4858 9.54053 10.4583 9.59715 10.3894C9.59715 10.3619 9.59715 10.3344 9.56883 10.3344C9.78116 10.0453 10.0784 9.89395 10.3332 9.67373V9.57739C10.4181 9.46728 10.5455 9.42599 10.6022 9.28836C10.6305 9.20578 10.7437 9.10943 10.8711 9.05438C10.8428 9.02685 10.7862 9.02685 10.7862 8.9718C10.6729 8.9718 10.5738 9.02685 10.4606 8.94427C10.5172 8.90298 10.5738 8.87545 10.6305 8.84793C10.6022 8.84793 10.588 8.83416 10.5738 8.80663C10.5455 8.75158 10.6305 8.69653 10.7012 8.68276C10.8145 8.65524 10.9419 8.65524 11.0268 8.57266C10.8428 8.54513 10.6305 8.62771 10.4323 8.5176C10.5597 8.17352 10.7862 7.89825 11.0834 7.74685C11.1117 7.74685 11.1684 7.74685 11.1684 7.77437C11.1684 7.89825 11.0834 8.00835 10.956 8.03588C11.1684 8.09093 11.3807 8.09093 11.593 8.18728C11.5647 8.24233 11.5081 8.21481 11.4798 8.21481C11.6072 8.29739 11.777 8.24233 11.9044 8.33868C11.8195 8.42126 11.7487 8.33868 11.6638 8.33868C12.4848 8.57266 13.3624 8.75158 14.0418 9.26083C13.4473 9.54986 12.8528 9.67373 12.2158 9.81137C12.1309 9.81137 12.0884 9.81137 12.0035 9.78384C12.0035 9.81137 12.0035 9.86642 11.9752 9.86642C11.862 9.86642 11.7912 9.86642 11.7063 9.92148C11.6355 10.0041 11.4798 10.0316 11.3948 9.949Z" fill="#3338BA"/>
<path d="M37.9844 0.148438H23.1516C23.1516 0.148438 23.1795 0.148438 23.2912 0.216703C23.4167 0.284968 23.5702 0.366886 23.6679 0.407845C23.8633 0.503416 24.0447 0.626294 24.1702 0.817436C24.2261 0.899354 24.2958 1.04954 24.254 1.15876C24.1982 1.28164 24.1702 1.50009 24.0447 1.54105C23.8912 1.62296 23.6819 1.62296 23.4865 1.59566C23.3749 1.59566 23.2772 1.56835 23.1656 1.54105C23.5563 1.69123 23.9191 1.88237 24.1842 2.2237C24.2121 2.27831 24.3098 2.30562 24.4214 2.30562C24.4493 2.30562 24.4493 2.36023 24.4493 2.38753C24.3935 2.44215 24.3377 2.46945 24.3656 2.53772H24.4493C24.5749 2.48311 24.561 2.2237 24.7424 2.30562C24.8679 2.38753 24.9237 2.56502 24.854 2.6879C24.7424 2.79713 24.6447 2.86539 24.533 2.94731C24.5051 3.00192 24.5051 3.07019 24.533 3.1248C24.6168 3.23402 24.6447 3.32959 24.6586 3.43882C24.7424 3.61631 24.7703 3.8211 24.84 4.01225C24.9517 4.39453 25.0493 4.77681 25.0214 5.1591C25.0214 5.3639 24.9098 5.54138 24.9935 5.74618C25.0493 5.95098 25.1749 6.10116 25.2865 6.2923C25.3982 6.44248 25.4959 6.55171 25.5796 6.70189C25.7331 6.9613 26.0261 7.22071 25.9005 7.50742C25.8168 7.68491 25.5377 7.6576 25.3424 7.76683C25.1889 7.88971 25.3145 8.10815 25.3982 8.23103C25.5238 8.46313 25.2447 8.61332 25.0493 8.69524C25.1051 8.77715 25.2028 8.74985 25.2307 8.80446C25.2586 8.92734 25.3842 9.00925 25.3145 9.14578C25.2028 9.29597 24.8958 9.37789 25.0493 9.60999C25.161 9.78748 25.0912 9.99227 25.0214 10.1834C24.9377 10.4155 24.7284 10.5247 24.547 10.5657C24.3935 10.6203 24.1982 10.6203 24.0447 10.593C23.9889 10.5657 23.933 10.5384 23.8912 10.5384C23.4447 10.4838 23.0121 10.3609 22.5656 10.3609C22.44 10.3882 22.3005 10.4155 22.2028 10.4565C22.0772 10.5384 21.9795 10.634 21.8818 10.7295C21.8679 10.7568 21.84 10.7705 21.826 10.7978C21.8121 10.8115 21.7981 10.8251 21.7981 10.8388C21.7842 10.8524 21.7842 10.8524 21.7702 10.8661C21.6865 10.9616 21.6307 11.0572 21.5609 11.1664C21.5609 11.1801 21.5469 11.1801 21.5469 11.1801C21.5469 11.1937 21.533 11.2074 21.519 11.221C21.4353 11.3712 21.3656 11.5351 21.3237 11.6989C21.1423 12.286 21.226 12.7775 21.3516 12.9004C21.3795 12.9277 22.2028 13.1871 22.7888 13.4465C23.0679 13.5694 23.2493 13.6513 23.4167 13.7605H37.9984L37.9844 0.148438Z" fill="#D51C29"/>
<path d="M24.3693 5.24835C24.4978 5.27519 24.6745 5.27519 24.6745 5.32885C24.6103 5.53008 24.2569 5.58375 24.0641 5.78498H23.9678C23.8714 5.83864 23.9035 5.95938 23.8232 5.95938C23.7268 5.93255 23.6465 5.95938 23.5502 5.98622C23.6787 6.09354 23.8232 6.16062 23.9999 6.13379C24.032 6.13379 24.0963 6.18745 24.0963 6.24111C24.0963 6.24111 24.1284 6.24111 24.1605 6.21428C24.1926 6.21428 24.2248 6.21428 24.2248 6.24111V6.34844C24.1284 6.45576 23.9838 6.4021 23.8553 6.42893C24.0963 6.4826 24.3372 6.4826 24.5621 6.42893C24.7388 6.37527 24.5621 6.12037 24.6906 5.99963C24.6263 5.99963 24.6906 5.91914 24.6263 5.91914C24.6906 5.86547 24.7548 5.7984 24.803 5.77156C24.8673 5.77156 24.9476 5.74473 24.9797 5.69107C24.9797 5.63741 24.8512 5.61058 24.8833 5.57033C25.06 5.463 25.2206 5.31543 25.1564 5.16786C25.1243 5.08737 24.8833 5.08737 24.7388 5.0337C24.5942 4.98004 24.4015 5.0337 24.2248 5.06053C24.0802 5.06053 23.9196 5.14103 23.775 5.16786C23.5662 5.22152 23.3735 5.31543 23.1968 5.42276C23.4056 5.34226 23.6144 5.31543 23.8553 5.27519C24.032 5.24835 24.1766 5.22152 24.3693 5.24835Z" fill="#808080"/>
</svg>
