<svg width="44" height="14" fill="none" xmlns="http://www.w3.org/2000/svg"><mask id="a" maskUnits="userSpaceOnUse" x="15.07" y=".14" width="13" height="14" fill="#000"><path fill="#fff" d="M15.07.14h13v14h-13z"/><path d="M27.93 10.27a4.01 4.01 0 01-3.98 2.92c-2.25 0-4.05-1.66-4.05-3.73V4.87c0-.81-.74-1.5-1.62-1.5-.89 0-1.62.69-1.62 1.5h-.6c0-2.07 1.81-3.73 4.06-3.73 2.24 0 4.05 1.66 4.05 3.73v4.59c0 .81.74 1.5 1.62 1.5.89 0 1.62-.69 1.62-1.5h.3"/></mask><path d="M27.93 10.27a4.01 4.01 0 01-3.98 2.92c-2.25 0-4.05-1.66-4.05-3.73V4.87c0-.81-.74-1.5-1.62-1.5-.89 0-1.62.69-1.62 1.5h-.6c0-2.07 1.81-3.73 4.06-3.73 2.24 0 4.05 1.66 4.05 3.73v4.59c0 .81.74 1.5 1.62 1.5.89 0 1.62-.69 1.62-1.5h.3" fill="#fff"/><path d="M16.66 4.87v.1h.1v-.1h-.1zm-.6 0h-.1v.1h.1v-.1zm11.35 4.59v-.1h-.1v.1h.1zm.42.8a3.92 3.92 0 01-3.88 2.84v.2c2 0 3.66-1.29 4.07-3l-.19-.05zm-3.88 2.84c-2.2 0-3.95-1.63-3.95-3.64h-.2c0 2.13 1.85 3.84 4.15 3.84v-.2zM20 9.46V4.87h-.2v4.59h.2zm0-4.59c0-.87-.8-1.6-1.72-1.6v.2c.83 0 1.52.65 1.52 1.4h.2zm-1.72-1.6c-.94 0-1.72.73-1.72 1.6h.2c0-.75.68-1.4 1.52-1.4v-.2zm-1.62 1.5h-.6v.2h.6v-.2zm-.5.1c0-2 1.76-3.63 3.96-3.63v-.2c-2.3 0-4.15 1.7-4.15 3.83h.2zm3.96-3.63c2.2 0 3.95 1.62 3.95 3.63h.2c0-2.13-1.86-3.83-4.15-3.83v.2zm3.95 3.63v4.59h.2V4.87h-.2zm0 4.59c0 .88.79 1.6 1.72 1.6v-.2c-.84 0-1.52-.65-1.52-1.4h-.2zm1.72 1.6c.93 0 1.72-.72 1.72-1.6h-.2c0 .75-.68 1.4-1.52 1.4v.2zm1.62-1.5h.3v-.2h-.3v.2z" fill="#fff" mask="url(#a)"/><path d="M16.7 9.46v-.05h-.03V4.87c0-2.1-1.83-3.78-4.1-3.78s-4.1 1.68-4.1 3.78v.05h.69v-.05c0-.78.7-1.44 1.6-1.44.86 0 1.57.66 1.57 1.44v4.59c0 2.1 1.84 3.79 4.1 3.79 2.28 0 4.1-1.69 4.1-3.8v-.04h-.68v.05c0 .78-.71 1.44-1.57 1.44-.86 0-1.57-.66-1.57-1.44z" fill="#fff" stroke="#fff" stroke-width=".1"/><path d="M12.35 9.41h-.05v.05c0 .78-.72 1.44-1.58 1.44-.86 0-1.57-.66-1.57-1.44V4.87c0-2.1-1.83-3.78-4.1-3.78-2.27 0-4.1 1.68-4.1 3.78v.05h.69v-.05c0-.78.71-1.44 1.57-1.44.86 0 1.57.66 1.57 1.44v4.59c0 2.1 1.83 3.79 4.1 3.79 2.27 0 4.1-1.69 4.1-3.8v-.04h-.64zm22.78-.1v-.04h-.28v.05c0 .79-.7 1.45-1.57 1.45-.86 0-1.57-.66-1.57-1.45V4.74c0-2.1-1.83-3.79-4.1-3.79-2.27 0-4.1 1.68-4.1 3.79v.05h.65v-.05c0-.79.67-1.45 1.57-1.45.86 0 1.57.66 1.57 1.45v4.58c0 2.1 1.83 3.79 4.1 3.79a4.07 4.07 0 004-2.9h0v-.02l-.27-.88zm-3.73 3.32c-2 0-3.6-1.47-3.6-3.3v-4.6c0-1.08-.94-1.91-2.07-1.91a2.24 2.24 0 00-1.4.5 3.6 3.6 0 013.24-1.9c2 0 3.6 1.48 3.6 3.32v4.58c0 1.09.95 1.92 2.07 1.92.55 0 1.04-.2 1.4-.5a3.6 3.6 0 01-3.24 1.9z" fill="#fff" stroke="#fff" stroke-width=".1"/><path d="M42.41 9.27h-.05v.05c0 .79-.71 1.45-1.57 1.45-.86 0-1.57-.66-1.57-1.45V4.74c0-2.1-1.83-3.79-4.1-3.79a4.1 4.1 0 00-3.96 2.75v.02l.15 1.02v.05h.4v-.05c0-.79.7-1.45 1.56-1.45.87 0 1.58.66 1.58 1.45v4.58c0 2.1 1.83 3.79 4.1 3.79 2.27 0 4.1-1.69 4.1-3.79v-.05h-.64zm-3.5 3.37c-2 0-3.6-1.48-3.6-3.32V4.74c0-1.09-.94-1.92-2.07-1.92a2.24 2.24 0 00-1.4.5 3.6 3.6 0 013.24-1.9c2 0 3.6 1.48 3.6 3.32v4.58c0 1.09.94 1.92 2.07 1.92.55 0 1.04-.2 1.4-.5a3.6 3.6 0 01-3.24 1.9z" fill="#fff" stroke="#fff" stroke-width=".1"/></svg>