<svg width="45" height="14" viewBox="0 0 45 14" fill="none" xmlns="http://www.w3.org/2000/svg">
<path d="M28.6096 10.806C28.1755 12.5893 26.6759 13.4182 24.5843 13.4182C22.177 13.4182 20.2432 11.635 20.2432 9.41502V4.50203C20.2432 3.62861 19.4539 2.90075 18.5068 2.90075C17.5597 2.90075 16.7704 3.62861 16.7704 4.50203H16.1389C16.1389 2.28208 18.0727 0.498845 20.48 0.498845C22.8873 0.498845 24.8211 2.28208 24.8211 4.50203V9.41502C24.8211 10.2884 25.6103 11.0163 26.5575 11.0163C27.5046 11.0163 28.2257 10.3375 28.2257 9.41502" fill="white"/>
<path d="M16.7709 9.41502C16.7709 10.2884 17.5602 11.0163 18.5073 11.0163C19.4545 11.0163 20.2432 10.2884 20.2432 9.41502L20.8752 9.41502C20.8752 11.635 18.9414 13.4182 16.5341 13.4182C14.1268 13.4182 12.1931 11.635 12.1931 9.41502V4.50203C12.1931 3.62861 11.4038 2.90075 10.4566 2.90075C9.47004 2.90075 8.68076 3.62861 8.68076 4.50203H8.04933C8.04933 2.28208 9.98308 0.498845 12.3904 0.498845C14.7977 0.498845 16.7315 2.28208 16.7315 4.50203V9.41502H16.7709Z" fill="white"/>
<path d="M8.68212 9.41502C8.68212 10.2884 9.4714 11.0163 10.4185 11.0163C11.3657 11.0163 12.155 10.2884 12.155 9.41502H12.7864C12.7864 11.635 10.8526 13.4182 8.44533 13.4182C6.03802 13.4182 4.10427 11.635 4.10427 9.41502V4.50203C4.10427 3.62861 3.31499 2.90075 2.36785 2.90075C1.42071 2.90075 0.631427 3.62861 0.631427 4.50203H0C0 2.28208 1.93374 0.498845 4.34106 0.498845C6.74837 0.498845 8.68212 2.28208 8.68212 4.50203V9.41502Z" fill="white"/>
<path fill-rule="evenodd" clip-rule="evenodd" d="M36.6132 10.7278C37.2429 12.2197 38.8114 13.2699 40.6589 13.2699C43.0662 13.2699 45 11.4867 45 9.26676H44.3686C44.3686 10.1402 43.5793 10.868 42.6321 10.868C41.685 10.868 40.8957 10.1402 40.8957 9.26676V4.35377C40.8957 2.13382 38.962 0.350586 36.5546 0.350586C34.7508 0.350586 33.1778 1.38465 32.5291 2.84112C31.8854 1.37667 30.3318 0.350586 28.5057 0.350586C26.0984 0.350586 24.1646 2.13382 24.1646 4.35377L24.5158 4.61505C24.5158 3.74163 25.5064 2.75249 26.493 2.75249C27.4402 2.75249 28.2295 3.48035 28.2295 4.35377V9.26676C28.2295 11.4867 30.1632 13.2699 32.5705 13.2699C34.4155 13.2699 35.9734 12.211 36.6132 10.7278ZM36.3183 9.3273C36.318 9.30715 36.3179 9.28698 36.3179 9.26676V4.35377C36.3179 3.48035 35.5286 2.75249 34.5814 2.75249C33.6563 2.75249 32.8817 3.44698 32.8463 4.29325C32.8466 4.31338 32.8468 4.33356 32.8468 4.35377V9.26676C32.8468 10.1402 33.6361 10.868 34.5832 10.868C35.5084 10.868 36.2829 10.1736 36.3183 9.3273Z" fill="white" fill-opacity="0.35"/>
</svg>
