<svg version="1" xmlns="http://www.w3.org/2000/svg" width="933.333" height="933.333" viewBox="0 0 700.000000 700.000000"><path d="M86 183c-4.7 1-10.7 2.6-13.5 3.5-40.2 13.9-68.7 51.4-70.8 93.2l-.3 6.1h6c9.1.1 9.2-.1 9.9-6.5 1.1-11 9.9-23.9 20.2-29.6 6.5-3.7 10.8-4.9 19.1-5.3 16.4-.8 31.4 8 38.9 22.6 2.1 4.1 2.6 5.8 4 13 .3 1.4.6 33.5.7 71.5 0 37.9.5 72.2.9 76.2 1.9 15.7 8.9 33.6 18.5 47.1 5.3 7.4 17.7 20.1 22.4 22.9 1.6.9 3 2.1 3 2.5 0 .4.7.8 1.5.8s1.5.3 1.5.8c0 .8.2.9 10.5 6 40.4 19.9 89.5 11.7 120.8-20.3 7.3-7.4 15.7-19.3 19.6-27.4l2.9-6.2 4.5 8.6c15.8 29.6 43.4 49.4 76.7 55.1 7.4 1.2 23.9 1.1 32.2-.2 33.7-5.4 62.4-26.5 77.8-57.3l3.2-6.5 3.5 6.9c5.1 10.2 10 17.1 17.7 25.3 21.2 22.3 49.1 33.8 79.6 32.6 12.1-.4 14.8-.8 25.6-3.9 27.5-8 50.7-26.9 63.6-52 5.4-10.6 9.4-22.6 10.2-31 .7-6.6 1.5-11.8 2.2-15.3.4-2.1.2-2.2-7.6-2.2-6.9 0-8 .2-8.1 1.7-1 27.8-30.3 47-56.4 37.2-8.9-3.3-16.1-9.3-21.1-17.7-5.8-9.5-5.7-7.5-5.9-84.9-.2-62.4-.5-75.2-2-83.7-6.6-37.1-35-69.4-71.1-80.6-11.9-3.7-21.1-4.9-34.4-4.5-13.9.4-15.8.6-27.7 4.1-18 5.2-34.4 15.7-48.2 30.9-6.2 6.8-8.9 10.9-14.6 21.8l-4.2 7.8-3.6-7.4c-2-4.1-5.4-9.8-7.4-12.7-28.4-39.7-78.4-55.1-123.5-38-6.5 2.4-16.5 7.5-18.9 9.6-.8.8-1.9 1.4-2.3 1.4-1.3 0-9.9 7.2-16.3 13.8-6.7 6.9-16.8 21.1-19.8 27.9-1 2.4-2.1 4.3-2.4 4.3-.3 0-1.7-2.4-3-5.3-1.3-2.8-3.2-6.3-4.1-7.7-.9-1.4-3-4.5-4.6-6.9-2.9-4.5-14.2-16.4-20.1-21.3-7.7-6.5-21.1-13.7-32.3-17.5-15-5.1-37.3-6.5-53-3.3zm365.5 61.3c17.7 1.8 33.6 16.7 36.4 34.4.4 2.7.7 35.9.6 73.9-.2 74.7-.1 72.9-5.8 82.6-7.9 13.5-21.5 20.9-37.4 20.3-9-.3-14.2-2-21.7-7-8.8-5.8-15.2-15.1-17.5-25.5-.7-2.8-1-30.5-1.1-73.6 0-60.4.2-69.8 1.6-74.5 5-16.6 17.5-28.1 33.7-30.6 1.8-.3 3.4-.6 3.5-.8.2-.2.9-.2 1.5 0 .7.2 3.5.6 6.2.8zm-184.2 2.6c6.3 2.5 14.2 8.3 18.1 13.3 3.2 4.2 7.3 13.2 8.2 17.8.3 1.9.6 34.8.6 73.2 0 51.8-.3 70.6-1.2 73.5-2.4 7.7-6.3 14.4-11 18.9-9.1 8.8-18.4 12.4-31 11.9-11.6-.5-19.7-4.1-27.7-12.2-5.8-5.9-7.5-8.8-10.4-17-1.7-5.1-1.9-9.9-1.9-76.7 0-67.5.1-71.5 1.9-76.8 4.6-13.3 15.4-23.7 28.3-27.2 7.4-2 18.9-1.4 26.1 1.3z"/></svg>