<svg width="252" height="170" viewBox="0 0 252 170" fill="none" xmlns="http://www.w3.org/2000/svg" preserveAspectRatio="xMidYMid meet">
<line x1="1.15479" y1="44.2295" x2="208.184" y2="44.2295" stroke="white"/>
<ellipse cx="6.48173" cy="38.6047" rx="1.63749" ry="1.65783" fill="white"/>
<ellipse cx="12.4861" cy="38.6047" rx="1.63749" ry="1.65783" fill="white"/>
<ellipse cx="18.49" cy="38.6047" rx="1.63749" ry="1.65783" fill="white"/>
<rect x="0.812988" y="33.3218" width="206.871" height="136.178" stroke="white"/>
<rect x="46.6001" y="43.0462" width="43.7624" height="57.9386" fill="white" fill-opacity="0.1"/>
<rect x="100.461" y="58.3829" width="43.7624" height="75.8314" fill="white" fill-opacity="0.1"/>
<rect x="100.461" y="153.811" width="43.7624" height="15.3367" fill="white" fill-opacity="0.1"/>
<rect x="154.323" y="66.9033" width="43.7624" height="42.6019" fill="white" fill-opacity="0.1"/>
<rect x="154.323" y="130.806" width="43.7624" height="38.3417" fill="white" fill-opacity="0.1"/>
<rect x="46.6001" y="119.73" width="43.7624" height="49.4182" fill="white" fill-opacity="0.1"/>
<circle cx="193.315" cy="58.348" r="57.848" fill="#131313" stroke="white"/>
<circle cx="193.349" cy="58.3825" r="25.9023" fill="white" stroke="#F0F0F0"/>
<rect x="190.311" y="51.1169" width="12.3248" height="17.5253" fill="white" stroke="black" stroke-linejoin="round"/>
<rect x="189.643" y="49.1321" width="11.6586" height="18.1869" fill="white" stroke="black" stroke-linejoin="round"/>
<rect x="187.645" y="48.4703" width="12.3248" height="17.5253" fill="white" stroke="black" stroke-linejoin="round"/>
<path d="M187.329 62.8228C187.476 62.9021 187.654 62.9023 187.801 62.8234C190.923 61.1546 192.765 59.3246 193.673 57.5774C194.586 55.8229 194.549 54.16 193.92 52.9099C193.297 51.6712 192.097 50.862 190.771 50.8417C189.622 50.8242 188.466 51.3971 187.566 52.6308C186.666 51.3968 185.51 50.8221 184.361 50.8369C183.035 50.854 181.834 51.6596 181.211 52.8967C180.582 54.145 180.546 55.8069 181.458 57.5628C182.366 59.3112 184.207 61.1455 187.329 62.8228Z" fill="#F24747" stroke="white" stroke-linecap="round" stroke-linejoin="round"/>
</svg>
