<svg width="19" height="19" viewBox="0 0 19 19" fill="none" xmlns="http://www.w3.org/2000/svg">
<path d="M18.3432 10.3636C18.544 10.1741 18.5532 9.85768 18.3636 9.65684C18.1741 9.456 17.8577 9.44683 17.6568 9.63635L18.3432 10.3636ZM9.1792 17.6364C8.97836 17.8259 8.96919 18.1423 9.15871 18.3432C9.34824 18.544 9.66469 18.5532 9.86552 18.3636L9.1792 17.6364ZM1.34316 9.63635C1.14232 9.44683 0.825873 9.456 0.636351 9.65684C0.446828 9.85768 0.456001 10.1741 0.656839 10.3636L1.34316 9.63635ZM9.13448 18.3636C9.33531 18.5532 9.65176 18.544 9.84129 18.3432C10.0308 18.1423 10.0216 17.8259 9.8208 17.6364L9.13448 18.3636ZM10 0.5C10 0.223858 9.77614 0 9.5 0C9.22386 0 9 0.223858 9 0.5H10ZM9 17.5C9 17.7761 9.22386 18 9.5 18C9.77614 18 10 17.7761 10 17.5H9ZM17.6568 9.63635L9.1792 17.6364L9.86552 18.3636L18.3432 10.3636L17.6568 9.63635ZM0.656839 10.3636L9.13448 18.3636L9.8208 17.6364L1.34316 9.63635L0.656839 10.3636ZM9 0.5V17.5H10V0.5H9Z" fill="currentColor"/>
</svg>
