<svg width="22" height="20" viewBox="0 0 22 20" fill="none" xmlns="http://www.w3.org/2000/svg">
<path d="M20 6.68553C19.798 6.46996 15.6566 0.218468 10 0.00289885C6.46465 -0.104886 3.33333 2.80529 0 6.68553C0.20202 6.9011 4.34344 12.5059 10 12.8292C10.101 12.8292 9.89899 12.8292 10 12.8292C13.4343 12.7215 16.8687 10.6736 20 6.68553ZM10 11.5358C6.76768 11.428 3.83838 9.05679 2.32323 7.54781C1.91919 7.11667 1.91919 6.36218 2.32323 5.93104C4.84849 3.02086 7.27273 1.08074 10 1.18853C13.3333 1.29631 16.2626 4.09871 17.7778 5.82326C18.1818 6.2544 18.1818 7.00889 17.7778 7.44002C15.2525 10.2424 12.7273 11.7514 10 11.5358Z" transform="translate(1 6.17188)" fill="black" stroke="black" stroke-width="0.5" stroke-miterlimit="10" stroke-linecap="round" stroke-linejoin="round"/>
<path d="M2.42424 5.17365C3.76311 5.17365 4.84848 4.01549 4.84848 2.58683C4.84848 1.15816 3.76311 0 2.42424 0C1.08537 0 0 1.15816 0 2.58683C0 4.01549 1.08537 5.17365 2.42424 5.17365Z" transform="translate(8.57617 9.83594)" fill="black" stroke="black" stroke-width="0.5" stroke-miterlimit="10" stroke-linecap="round" stroke-linejoin="round"/>
<path d="M1.0101 0H0V2.58683H1.0101V0Z" transform="translate(10.5957 1)" fill="black" stroke="black" stroke-width="0.5" stroke-miterlimit="10" stroke-linecap="round" stroke-linejoin="round"/>
<path d="M1.01911 0H0V2.5664H1.01911V0Z" transform="matrix(0.924952 -0.38022 0.339587 0.940629 5.53027 2.05859)" fill="black" stroke="black" stroke-width="0.5" stroke-miterlimit="10" stroke-linecap="round" stroke-linejoin="round"/>
<path d="M1.04452 0H0V2.50685H1.04452V0Z" transform="translate(1.29883 5.22656) scale(0.967037 1.03189) rotate(-45)" fill="black" stroke="black" stroke-width="0.5" stroke-miterlimit="10" stroke-linecap="round" stroke-linejoin="round"/>
<path d="M2.56643 0H0V1.0191H2.56643V0Z" transform="matrix(0.3393 -0.940618 0.924963 0.379907 14.7676 4.12109)" fill="black" stroke="black" stroke-width="0.5" stroke-miterlimit="10" stroke-linecap="round" stroke-linejoin="round"/>
<path d="M2.50685 0H0V1.04452H2.50685V0Z" transform="translate(18.3652 6.28516) scale(0.967037 1.03189) rotate(-45)" fill="black" stroke="black" stroke-width="0.5" stroke-miterlimit="10" stroke-linecap="round" stroke-linejoin="round"/>
</svg>
