<svg width="22" height="20" viewBox="0 0 22 20" fill="none" xmlns="http://www.w3.org/2000/svg">
<path d="M20 6.72503C19.798 6.50819 15.6566 0.219759 10 0.00291598C6.36364 -0.105505 3.33333 2.82187 0 6.72503C0.20202 6.94188 4.34343 12.5798 10 12.905C10.101 12.905 9.89899 12.905 10 12.905C13.3333 12.905 16.8687 10.7366 20 6.72503ZM10 11.7124C6.66667 11.604 3.83838 9.21872 2.32323 7.5924C1.91919 7.15872 1.91919 6.39977 2.32323 5.96609C4.84849 3.14713 7.37374 1.19555 10.101 1.30397C13.4343 1.41239 16.3636 4.23135 17.8788 5.96609C18.2828 6.39977 18.2828 7.15872 17.8788 7.5924C15.1515 10.3029 12.7273 11.8208 10 11.7124Z" transform="translate(1 6.09375)" fill="#434343"/>
<path d="M2.42424 5.20422C3.76311 5.20422 4.84848 4.03922 4.84848 2.60211C4.84848 1.16501 3.76311 0 2.42424 0C1.08537 0 0 1.16501 0 2.60211C0 4.03922 1.08537 5.20422 2.42424 5.20422Z" transform="translate(8.57617 9.89062)" fill="#434343"/>
<path d="M0 0V2.60211" transform="translate(11 1)" stroke="black" stroke-miterlimit="10"/>
<path d="M0 0L0.808081 2.38527" transform="translate(6.05078 1.86719)" stroke="black" stroke-miterlimit="10"/>
<path d="M0 0L1.71717 1.84316" transform="translate(1.60547 4.79297)" stroke="black" stroke-miterlimit="10"/>
<path d="M0.909091 0L0 2.38527" transform="translate(15.1416 1.86719)" stroke="black" stroke-miterlimit="10"/>
<path d="M1.71717 0L0 1.84316" transform="translate(18.6768 4.79297)" stroke="black" stroke-miterlimit="10"/>
</svg>
