<svg width="19" height="18" viewBox="0 0 19 18" fill="none" xmlns="http://www.w3.org/2000/svg">
<circle cx="9.47897" cy="8.47897" r="2.16207" stroke="currentColor"/>
<path d="M11.4379 0.961864L11.4025 0.5H10.9393H8.15026H7.68425L7.6515 0.964858L7.5147 2.9063C6.76845 3.15899 6.0758 3.55484 5.48846 4.0602L3.61185 3.15455L3.19286 2.95234L2.96103 3.35571L1.5665 5.78214L1.33549 6.18407L1.71885 6.44475L3.46668 7.63327C3.41015 7.96572 3.37726 8.30719 3.37726 8.67182C3.37726 9.11011 3.42439 9.55028 3.51977 9.97444L1.80653 11.1498L1.4225 11.4133L1.65808 11.8151L3.0705 14.2237L3.30538 14.6242L3.72219 14.4195L5.68357 13.4564C6.21934 13.8788 6.82696 14.2106 7.48161 14.436L7.66968 16.8289L7.70613 17.2926L8.17132 17.2897L10.9783 17.2718L11.4408 17.2689L11.4738 16.8075L11.6478 14.3774C12.2326 14.1381 12.7745 13.8258 13.2651 13.4481L15.3973 14.4253L15.8179 14.618L16.0427 14.2137L17.4015 11.7694L17.6276 11.3626L17.2381 11.108L15.4569 9.9434C15.5403 9.5397 15.5872 9.12704 15.5872 8.68966C15.5872 8.39575 15.5669 8.10091 15.526 7.81219L17.2863 6.58409L17.6673 6.31823L17.4301 5.91873L15.9998 3.51013L15.7642 3.11329L15.3498 3.31649L13.5911 4.17889C13.0103 3.64846 12.3376 3.23439 11.5912 2.96586L11.4379 0.961864Z" stroke="currentColor" stroke-miterlimit="10"/>
</svg>
