<svg width="23" height="23" viewBox="0 0 23 23" fill="none" xmlns="http://www.w3.org/2000/svg" preserveAspectRatio="xMidYMid meet">
<path d="M3.29693 7.18954L8.74027 12.4817L10.3601 19.897C10.4124 20.1292 10.5841 20.3165 10.8143 20.3823C10.8289 20.3865 10.8435 20.3906 10.8581 20.3948C11.1081 20.4465 11.3613 20.3489 11.5147 20.1439L22.0275 5.77038C22.1762 5.56796 22.1945 5.29665 22.0718 5.07594C21.9491 4.85522 21.709 4.72737 21.4585 4.74665L3.70078 6.08034C3.4466 6.09858 3.22897 6.26551 3.14079 6.50499C3.05261 6.74446 3.11475 7.01108 3.29693 7.18954ZM11.3141 18.2181L10.0634 12.4845L19.2463 7.38541L11.3141 18.2181ZM18.6172 6.25366L9.43797 11.3538L5.22444 7.26228L18.6172 6.25366Z" fill="currentColor"/>
</svg>
