<svg width="10" height="15" viewBox="0 0 10 15" fill="none" xmlns="http://www.w3.org/2000/svg">
<path d="M6.28249 4.66461C7.1756 4.66461 8.06871 4.66461 9.03625 4.66461C8.96182 5.59754 8.81297 6.53046 8.73854 7.46338C7.84543 7.46338 6.95232 7.46338 5.98479 7.46338C5.98479 9.9751 5.98479 12.415 5.98479 14.9268C4.94283 14.9268 3.97528 14.9268 2.93332 14.9268C2.93332 12.4868 2.93332 9.9751 2.93332 7.46338C2.26349 7.46338 1.59366 7.46338 0.923828 7.46338C0.923828 6.53046 0.923828 5.59754 0.923828 4.66461C1.59366 4.66461 2.26349 4.66461 2.93332 4.66461C2.93332 4.52109 2.93332 4.44932 2.93332 4.37756C2.93332 3.73169 2.93333 3.08582 3.08218 2.51172C3.37989 1.14821 4.34742 0.43058 5.68709 0.143527C6.13364 0.0717633 6.58019 0 7.02674 0C7.69658 0 8.36641 0 9.11067 0C9.11067 0.932923 9.11067 1.86585 9.11067 2.79877C8.81297 2.79877 8.51526 2.79877 8.21756 2.79877C7.77101 2.79877 7.25003 2.79877 6.80348 2.79877C6.50577 2.79877 6.43135 2.9423 6.43135 3.15759C6.28249 3.65993 6.28249 4.16227 6.28249 4.66461Z" fill="currentColor"/>
</svg>
