<svg width="17" height="17" viewBox="0 0 17 17" fill="none" xmlns="http://www.w3.org/2000/svg">
<path d="M16.3406 3L15 4.43374" stroke="white" stroke-miterlimit="10" class="ToggleVisibility__non-strike"/>
<path d="M0.414551 15.3415L16.1703 2.9027" stroke="white" class="ToggleVisibility__strike" />
<path d="M16.4192 9.03874C16.2534 8.87289 12.8534 4.06322 8.2096 3.89737C5.22429 3.81445 2.73653 6.05343 0 9.03874C0.165851 9.20459 3.56579 13.5167 8.2096 13.7655C8.29253 13.7655 8.12668 13.7655 8.2096 13.7655C10.9461 13.7655 13.8485 12.107 16.4192 9.03874ZM8.2096 12.8533C5.47307 12.7704 3.15116 10.946 1.90728 9.70214C1.57558 9.37044 1.57558 8.78996 1.90728 8.45826C3.98041 6.3022 6.05354 4.80955 8.29253 4.89248C11.0291 4.9754 13.4339 7.13146 14.6778 8.45826C15.0095 8.78996 15.0095 9.37044 14.6778 9.70214C12.4388 11.7753 10.4486 12.9362 8.2096 12.8533Z" fill="white"/>
<path d="M8.20993 10.7803C9.30909 10.7803 10.2001 9.88929 10.2001 8.79013C10.2001 7.69097 9.30909 6.79993 8.20993 6.79993C7.11077 6.79993 6.21973 7.69097 6.21973 8.79013C6.21973 9.88929 7.11077 10.7803 8.20993 10.7803Z" fill="white"/>
<path d="M8.20947 0V1.99021" stroke="white" stroke-miterlimit="10"/>
<path d="M4.14502 0.663269L4.80842 2.48763" stroke="white" stroke-miterlimit="10"/>
<path d="M0.497559 2.90247L1.90729 4.3122" stroke="white" stroke-miterlimit="10"/>
<path d="M12.3552 0.663269L11.6089 2.48763" stroke="white" stroke-miterlimit="10"/>
</svg>
