<svg width="19" height="19" viewBox="0 0 19 19" fill="none" xmlns="http://www.w3.org/2000/svg">
<path d="M0.999341 8.98438C0.723199 8.98474 0.499637 9.20889 0.5 9.48503C0.500364 9.76118 0.724517 9.98474 1.00066 9.98438L0.999341 8.98438ZM9.47478 9.97321C9.75092 9.97285 9.97448 9.7487 9.97412 9.47255C9.97375 9.19641 9.7496 8.97285 9.47346 8.97321L9.47478 9.97321ZM8.98438 17.9681C8.98401 18.2442 9.20757 18.4684 9.48372 18.4688C9.75986 18.4691 9.98401 18.2456 9.98438 17.9694L8.98438 17.9681ZM9.99554 9.49529C9.9959 9.21915 9.77234 8.995 9.4962 8.99463C9.22005 8.99427 8.9959 9.21783 8.99554 9.49397L9.99554 9.49529ZM17.9694 9.98438C18.2456 9.98401 18.4691 9.75986 18.4688 9.48372C18.4684 9.20757 18.2442 8.98401 17.9681 8.98438L17.9694 9.98438ZM9.49397 8.99554C9.21783 8.9959 8.99427 9.22005 8.99463 9.4962C8.995 9.77234 9.21915 9.9959 9.49529 9.99554L9.49397 8.99554ZM9.98438 1.00066C9.98474 0.724517 9.76118 0.500364 9.48503 0.5C9.20889 0.499637 8.98474 0.723199 8.98438 0.999341L9.98438 1.00066ZM8.97321 9.47346C8.97285 9.7496 9.19641 9.97375 9.47255 9.97412C9.7487 9.97448 9.97285 9.75092 9.97321 9.47478L8.97321 9.47346ZM1.00066 9.98438L9.47478 9.97321L9.47346 8.97321L0.999341 8.98438L1.00066 9.98438ZM9.98438 17.9694L9.99554 9.49529L8.99554 9.49397L8.98438 17.9681L9.98438 17.9694ZM17.9681 8.98438L9.49397 8.99554L9.49529 9.99554L17.9694 9.98438L17.9681 8.98438ZM8.98438 0.999341L8.97321 9.47346L9.97321 9.47478L9.98438 1.00066L8.98438 0.999341Z" fill="currentColor"/>
</svg>
