<svg width="13" height="15" viewBox="0 0 13 15" fill="none" xmlns="http://www.w3.org/2000/svg">
<path d="M10.7534 1.55227L10.7534 1.55229L10.7575 1.55532C11.6504 2.21762 12.2985 3.11381 12.4282 4.23952L12.4291 4.24756L12.4303 4.25556C12.4982 4.71337 12.4997 5.17627 12.4997 5.75311C12.428 6.8795 12.0127 8.00871 11.397 8.86614C10.8028 9.69377 9.87951 10.2651 8.82678 10.3919L8.79781 10.3954L8.76944 10.4023C8.55422 10.4542 8.3291 10.4591 8.0091 10.3974L7.98592 10.3929L7.96241 10.3907C7.45371 10.3416 7.18537 10.1872 6.78914 9.9593C6.71671 9.91763 6.64 9.87351 6.55678 9.82711C6.53165 9.8068 6.50802 9.78962 6.48849 9.77592C6.45439 9.75201 6.41903 9.72929 6.39302 9.71257L6.38998 9.71062C6.36015 9.69144 6.34087 9.67896 6.3249 9.66776C6.31848 9.66326 6.3146 9.66034 6.31273 9.6589L5.68739 9.05593L5.48378 9.90668C5.42771 10.141 5.37755 10.3671 5.3291 10.5856C5.17223 11.2929 5.03331 11.9192 4.76995 12.4779L4.76647 12.4852L4.76323 12.4927C4.50236 13.0964 4.22316 13.6153 3.85825 14.016C3.72373 12.1582 4.11331 10.5459 4.58062 8.93665L4.58454 8.92317L4.58769 8.9095C4.64267 8.67091 4.70744 8.44586 4.77451 8.21276C4.7942 8.14435 4.81408 8.07524 4.83398 8.0049C4.91901 7.70427 5.00259 7.386 5.04501 7.05879L5.06717 6.88786L4.9793 6.73959C4.75689 6.3643 4.68055 5.84257 4.74515 5.2631C4.81184 4.8865 4.94124 4.52262 5.12325 4.23012C5.29058 3.96121 5.5564 3.77617 5.76559 3.73583L5.7769 3.73365L5.78809 3.73095C5.99898 3.68011 6.26838 3.67951 6.53796 3.78349L6.53792 3.78359L6.54787 3.78719C6.75904 3.86354 6.86196 3.9616 6.91968 4.05436C6.98164 4.15393 7.02181 4.2968 7.02181 4.50677C7.02181 4.94954 6.84851 5.51897 6.61925 6.18217C6.58661 6.27659 6.55186 6.37267 6.51675 6.46976C6.40603 6.77594 6.29169 7.09214 6.22831 7.39772C6.14853 7.78232 6.10278 8.24979 6.27474 8.66432C6.46835 9.13101 6.88364 9.41439 7.46117 9.5072L7.46115 9.50733L7.47228 9.50886C8.1 9.59533 8.57278 9.50359 9.10375 9.2476L9.116 9.2417L9.1279 9.23514C9.77288 8.87977 10.288 8.20329 10.5475 7.46991C10.8756 6.74756 11.0319 5.88939 11.0319 5.04758C11.0319 3.99037 10.8014 2.88229 10.0563 2.16386C9.29258 1.42747 8.43434 1.09766 7.51152 1.01637C6.64743 0.933623 5.73773 1.18335 4.9675 1.48042L4.93862 1.49156L4.91133 1.50618C4.20563 1.88421 3.44067 2.44166 2.99848 3.20413C2.49598 4.01498 2.24015 4.99822 2.41017 6.06377L2.41393 6.08736L2.41993 6.11048C2.49838 6.41308 2.58909 6.69193 2.78126 6.97506C2.78295 6.97791 2.78463 6.98074 2.7863 6.98356C2.94458 7.25055 3.02862 7.39231 3.05578 7.55471C3.07574 7.674 3.0696 7.85406 2.90292 8.15831C2.37706 7.99743 2.0198 7.69468 1.83839 7.38857L1.8253 7.36648L1.81002 7.34586C1.52859 6.96594 1.38477 6.37158 1.38477 5.62445C1.38477 4.24711 1.92754 3.07094 2.74161 2.22058L2.748 2.21391L2.75413 2.20701C3.55344 1.30785 4.76816 0.71028 6.14375 0.572149C6.26308 0.572412 6.45678 0.572036 6.66499 0.5H6.6656H6.66647H6.66735H6.66823H6.6691H6.66998H6.67086H6.67173H6.67261H6.67349H6.67436H6.67524H6.67612H6.67699H6.67787H6.67874H6.67962H6.6805H6.68137H6.68225H6.68313H6.684H6.68488H6.68576H6.68663H6.68751H6.68838H6.68926H6.69014H6.69101H6.69189H6.69277H6.69364H6.69452H6.69539H6.69627H6.69715H6.69802H6.6989H6.69978H6.70065H6.70153H6.70241H6.70328H6.70416H6.70504H6.70591H6.70679H6.70766H6.70854H6.70942H6.71029H6.71117H6.71205H6.71292H6.7138H6.71468H6.71555H6.71643H6.7173H6.71818H6.71906H6.71993H6.72081H6.72169H6.72256H6.72344H6.72432H6.72519H6.72607H6.72694H6.72782H6.7287H6.72957H6.73045H6.73133H6.7322H6.73308H6.73396H6.73483H6.73571H6.73658H6.73746H6.73834H6.73921H6.74009H6.74097H6.74184H6.74272H6.7436H6.74447H6.74535H6.74622H6.7471H6.74798H6.74885H6.74973H6.75061H6.75148H6.75236H6.75324H6.75411H6.75499H6.75586H6.75674H6.75762H6.75849H6.75937H6.76025H6.76112H6.762H6.76288H6.76375H6.76463H6.7655H6.76638H6.76726H6.76813H6.76901H6.76989H6.77076H6.77164H6.77252H6.77339H6.77427H6.77514H6.77602H6.7769H6.77777H6.77865H6.77953H6.7804H6.78128H6.78216H6.78303H6.78391H6.78478H6.78566H6.78654H6.78741H6.78829H6.78917H6.79004H6.79092H6.7918H6.79267H6.79355H6.79442H6.7953H6.79618H6.79705H6.79793H6.79881H6.79968H6.80056H6.80144H6.80231H6.80319H6.80406H6.80494H6.80582H6.80669H6.80757H6.80845H6.80932H6.8102H6.81108H6.81195H6.81283H6.8137H6.81458H6.81546H6.81633H6.81721H6.81809H6.81896H6.81984H6.82072H6.82159H6.82247H6.82334H6.82422H6.8251H6.82597H6.82685H6.82773H6.8286H6.82948H6.83036H6.83123H6.83211H6.83298H6.83386H6.83474H6.83561H6.83649H6.83737H6.83824H6.83912H6.84H6.84087H6.84175H6.84263H6.8435H6.84438H6.84525H6.84613H6.84701H6.84788H6.84876H6.84964H6.85051H6.85139H6.85226H6.85314H6.85402H6.85489H6.85577H6.85665H6.85752H6.8584H6.85928H6.86015H6.86103H6.86191H6.86278H6.86366H6.86453H6.86541H6.86629H6.86716H6.86804H6.86892H6.86979H6.87067H6.87155H6.87242H6.8733H6.87417H6.87505H6.87593H6.8768H6.87768H6.87856H6.87943H6.88031H6.88119H6.88206H6.88294H6.88381H6.88469H6.88557H6.88644H6.88732H6.8882H6.88907H6.88995H6.89083H6.8917H6.89258H6.89345H6.89433H6.89521H6.89608H6.89696H6.89784H6.89871H6.89959H6.90047H6.90134H6.90222H6.90309H6.90397H6.90485H6.90572H6.9066H6.90748H6.90835H6.90923H6.91011H6.91098H6.91186H6.91273H6.91361H6.91449H6.91536H6.91624H6.91712H6.91799H6.91887H6.91975H6.92062H6.9215H6.92237H6.92325H6.92413H6.925H6.92588H6.92676H6.92763H6.92851H6.92939H6.93026H6.93114H6.93201H6.93289H6.93377H6.93464H6.93552H6.9364H6.93727H6.93815H6.93903H6.9399H6.94078H6.94165H6.94253H6.94341H6.94428H6.94516H6.94604H6.94691H6.94779H6.94867H6.94954H6.95042H6.95129H6.95217H6.95305H6.95392H6.9548H6.95568H6.95655H6.95743H6.95831H6.95918H6.96006H6.96093H6.96181H6.96269H6.96356H6.96444H6.96532H6.96619H6.96707H6.96795H6.96882H6.9697H6.97057H6.97145H6.97233H6.9732H6.97408H6.97496H6.97583H6.97671H6.97759H6.97846H6.97934H6.98022H6.98109H6.98197H6.98284H6.98372H6.9846H6.98547H6.98635H6.98723H6.9881H6.98898H6.98986H6.99073H6.99161H6.99248H6.99336H6.99424H6.99511H6.99599H6.99687H6.99774H6.99862H6.9995H7.00037H7.00125H7.00212H7.003H7.00388H7.00475H7.00563H7.00651H7.00738H7.00826H7.00914H7.01001H7.01089H7.01176H7.01264H7.01352H7.01439H7.01527H7.01615H7.01702C8.51915 0.5 9.82096 0.84585 10.7534 1.55227Z" fill="currentColor" stroke="currentColor"/>
</svg>
