<svg width="50" height="15" viewBox="0 0 50 15" fill="none" xmlns="http://www.w3.org/2000/svg" viewBox="0 0 50 15" preserveAspectRatio="xMidYMid meet">
<path d="M14.1191 10.8771C13.6368 12.8584 11.7075 14.3545 9.3835 14.3545C6.70876 14.3545 4.56021 12.3732 4.56021 9.90665V4.44788C4.56021 3.47744 3.68324 2.66873 2.63089 2.66873C1.57853 2.66873 0.701569 3.47744 0.701569 4.44788H0C0 1.98133 2.14856 0 4.8233 0C7.49803 0 9.64659 1.98133 9.64659 4.44788V9.90665C9.64659 10.8771 10.5236 11.6858 11.5759 11.6858C12.6283 11.6858 13.5052 10.8771 13.5052 9.90665H13.856" transform="translate(17.9336 0.164062)" fill="black"/>
<path d="M9.69044 9.90665C9.69044 10.8771 10.5674 11.6858 11.6198 11.6858C12.6721 11.6858 13.5491 10.8771 13.5491 9.90665H14.2506C14.2506 12.3732 12.1021 14.3545 9.42735 14.3545C6.75261 14.3545 4.60405 12.3732 4.60405 9.90665V4.44788C4.60405 3.47744 3.72709 2.66873 2.67474 2.66873C1.57853 2.66873 0.70157 3.47744 0.70157 4.44788H-1.67267e-07C-1.67267e-07 1.98133 2.14856 2.41013e-09 4.82329 2.41013e-09C7.49803 2.41013e-09 9.64659 1.98133 9.64659 4.44788V9.90665H9.69044Z" transform="translate(8.94531 0.164062)" fill="black"/>
<path d="M9.64659 9.90665C9.64659 10.8771 10.5236 11.6858 11.5759 11.6858C12.6283 11.6858 13.5052 10.8771 13.5052 9.90665H14.2068C14.2068 12.3732 12.0582 14.3545 9.3835 14.3545C6.70876 14.3545 4.56021 12.3732 4.56021 9.90665V4.44788C4.56021 3.47744 3.68324 2.66873 2.63089 2.66873C1.57853 2.66873 0.70157 3.47744 0.70157 4.44788H0C0 1.98133 2.14856 2.41013e-09 4.82329 2.41013e-09C7.49803 2.41013e-09 9.64659 1.98133 9.64659 4.44788V9.90665Z" transform="translate(0 0.164062)" fill="black"/>
<path d="M13.7245 9.90665H13.5052C13.5052 10.8771 12.6283 11.6858 11.5759 11.6858C10.5236 11.6858 9.64659 10.8771 9.64659 9.90665V4.44788C9.64659 1.98133 7.49803 2.41013e-09 4.8233 2.41013e-09C2.14856 2.41013e-09 0 1.98133 0 4.44788H0.657722C0.657722 3.47744 1.49084 2.66873 2.58704 2.66873C3.6394 2.66873 4.51636 3.47744 4.51636 4.44788V9.90665C4.51636 12.3732 6.66492 14.3545 9.33965 14.3545C11.6198 14.3545 13.5052 12.8989 14.0314 10.958L13.7245 9.90665ZM9.33965 13.9097C6.92801 13.9097 4.99869 12.1306 4.99869 9.90665V4.44788C4.99869 3.19439 3.90248 2.22394 2.58704 2.22394C1.84162 2.22394 1.1839 2.54742 0.745419 2.99221C1.35929 1.49611 2.93783 0.444788 4.77945 0.444788C7.19109 0.444788 9.12041 2.22394 9.12041 4.44788V9.90665C9.12041 11.1601 10.2166 12.1306 11.5321 12.1306C12.2775 12.1306 12.9352 11.8071 13.3737 11.3623C12.7598 12.8584 11.1813 13.9097 9.33965 13.9097Z" transform="translate(26.8477)" fill="black"/>
<path d="M13.3298 9.90665C13.3298 10.8771 12.4529 11.6858 11.4005 11.6858C10.3482 11.6858 9.4712 10.8771 9.4712 9.90665V4.44788C9.4712 1.98133 7.32264 2.41013e-09 4.6479 2.41013e-09C2.4555 2.41013e-09 0.570027 1.3748 1.33814e-06 3.23482L0.175391 4.44788H0.526178C0.526178 3.47744 1.40314 2.66873 2.4555 2.66873C3.50785 2.66873 4.38481 3.47744 4.38481 4.44788V9.90665C4.38481 12.3732 6.53337 14.3545 9.20811 14.3545C11.8828 14.3545 14.0314 12.3732 14.0314 9.90665H13.3298ZM9.16426 13.9097C6.75261 13.9097 4.8233 12.1306 4.8233 9.90665V4.44788C4.8233 3.19439 3.72709 2.22394 2.41165 2.22394C1.66623 2.22394 1.00851 2.54742 0.570025 2.99221C1.1839 1.49611 2.76243 0.444788 4.60406 0.444788C7.0157 0.444788 8.94502 2.22394 8.94502 4.44788V9.90665C8.94502 11.1601 10.0412 12.1306 11.3567 12.1306C12.1021 12.1306 12.7598 11.8071 13.1983 11.3623C12.5844 12.8584 11.0059 13.9097 9.16426 13.9097Z" transform="translate(35.9688)" fill="black"/>
</svg>
