<svg width="60" height="19" viewBox="0 0 60 19" fill="none" xmlns="http://www.w3.org/2000/svg">
<path d="M16.9428 14.0005C16.364 16.5413 14.0488 18.4599 11.2601 18.4599C8.05045 18.4599 5.4722 15.919 5.4722 12.756V5.70389C5.4722 4.45941 4.41986 3.42233 3.15704 3.42233C1.89422 3.42233 0.841877 4.45941 0.841877 5.70389H4.01439e-07C4.01439e-07 2.54082 2.57825 0 5.78791 0C8.99757 0 11.5758 2.54082 11.5758 5.70389V12.7041C11.5758 13.9486 12.6282 14.9857 13.891 14.9857C15.1538 14.9857 16.2061 13.9486 16.2061 12.7041H16.6271" transform="translate(32.2012)" fill="white"/>
<path d="M16.9428 14.0005C16.364 16.5413 14.0488 18.4599 11.2601 18.4599C8.05046 18.4599 5.4722 15.919 5.4722 12.756V5.70389C5.4722 4.45941 4.41986 3.42233 3.15704 3.42233C1.89422 3.42233 0.841877 4.45941 0.841877 5.70389H0C0 2.54082 2.57825 0 5.78791 0C8.99757 0 11.5758 2.54082 11.5758 5.70389V12.7041C11.5758 13.9486 12.6282 14.9857 13.891 14.9857C15.1538 14.9857 16.2061 13.9486 16.2061 12.7041H16.6271" transform="translate(42.8828)" fill="white"/>
<path d="M16.9428 13.9486C16.364 16.4894 14.0488 18.408 11.2601 18.408C8.05045 18.408 5.4722 15.8672 5.4722 12.7041V5.70389C5.4722 4.45941 4.41986 3.42233 3.15704 3.42233C1.89423 3.42233 0.841878 4.45941 0.841878 5.70389H8.02877e-07C8.02877e-07 2.54082 2.57825 3.09071e-09 5.78791 3.09071e-09C8.99757 3.09071e-09 11.5758 2.54082 11.5758 5.70389V12.7041C11.5758 13.9486 12.6282 14.9857 13.891 14.9857C15.1538 14.9857 16.2061 13.9486 16.2061 12.7041H16.6271" transform="translate(21.5215 0.208008)" fill="#4E6BFF"/>
<path d="M11.6284 12.7041C11.6284 13.9486 12.6808 14.9857 13.9436 14.9857C15.2064 14.9857 16.2588 13.9486 16.2588 12.7041H17.1006C17.1006 15.8672 14.5224 18.408 11.3127 18.408C8.10307 18.408 5.52482 15.8672 5.52482 12.7041V5.70389C5.52482 4.45941 4.47247 3.42233 3.20966 3.42233C1.89422 3.42233 0.841878 4.45941 0.841878 5.70389H-2.00719e-07C-2.00719e-07 2.54082 2.57825 3.09071e-09 5.78791 3.09071e-09C8.99757 3.09071e-09 11.5758 2.54082 11.5758 5.70389V12.7041H11.6284Z" transform="translate(10.7344 0.208008)" fill="#4E6BFF"/>
<path d="M11.5758 12.7041C11.5758 13.9486 12.6282 14.9857 13.891 14.9857C15.1538 14.9857 16.2061 13.9486 16.2061 12.7041H17.048C17.048 15.8672 14.4698 18.408 11.2601 18.408C8.05045 18.408 5.4722 15.8672 5.4722 12.7041V5.70389C5.4722 4.45941 4.41986 3.42233 3.15704 3.42233C1.89422 3.42233 0.841878 4.45941 0.841878 5.70389H0C0 2.54082 2.57825 3.09071e-09 5.78791 3.09071e-09C8.99757 3.09071e-09 11.5758 2.54082 11.5758 5.70389V12.7041Z" transform="translate(0 0.208008)" fill="#4E6BFF"/>
</svg>
