<svg width="80" height="25" viewBox="0 0 80 25" fill="none" xmlns="http://www.w3.org/2000/svg">
<path d="M65.5235 18.5694C64.7518 21.9394 61.665 24.484 57.9468 24.484C53.6673 24.484 50.2298 21.1141 50.2298 16.9188V7.5653C50.2298 5.91469 48.8267 4.53918 47.143 4.53918C45.4592 4.53918 44.0562 5.91469 44.0562 7.5653H42.9337C42.9337 3.37 46.3713 0 50.6507 0C54.9301 0 58.3677 3.37 58.3677 7.5653V16.85C58.3677 18.5006 59.7708 19.8761 61.4545 19.8761C63.1382 19.8761 64.5413 18.5006 64.5413 16.85H65.1025" fill="white"/>
<path d="M79.7652 18.5694C78.9935 21.9394 75.9067 24.484 72.1886 24.484C67.9091 24.484 64.4716 21.1141 64.4716 16.9188V7.5653C64.4716 5.91469 63.0685 4.53918 61.3848 4.53918C59.701 4.53918 58.2979 5.91469 58.2979 7.5653H57.1755C57.1755 3.37 60.6131 0 64.8925 0C69.1719 0 72.6095 3.37 72.6095 7.5653V16.85C72.6095 18.5006 74.0126 19.8761 75.6963 19.8761C77.38 19.8761 78.7831 18.5006 78.7831 16.85H79.3443" fill="white"/>
<path d="M51.2836 18.7764C50.5119 22.1464 47.4251 24.6911 43.7069 24.6911C39.4275 24.6911 35.9899 21.3211 35.9899 17.1258V7.84114C35.9899 6.19053 34.5868 4.81503 32.9031 4.81503C31.2194 4.81503 29.8163 6.19053 29.8163 7.84114H28.6938C28.6938 3.64584 32.1314 0.275848 36.4109 0.275848C40.6903 0.275848 44.1279 3.64584 44.1279 7.84114V17.1258C44.1279 18.7764 45.5309 20.1519 47.2147 20.1519C48.8984 20.1519 50.3015 18.7764 50.3015 17.1258H50.8627" fill="#5380F4"/>
<path d="M29.8154 17.1258C29.8154 18.7764 31.2185 20.1519 32.9022 20.1519C34.5859 20.1519 35.989 18.7764 35.989 17.1258H37.1115C37.1115 21.3211 33.6739 24.6911 29.3945 24.6911C25.115 24.6911 21.6774 21.3211 21.6774 17.1258V7.84114C21.6774 6.19053 20.2744 4.81503 18.5906 4.81503C16.8368 4.81503 15.4337 6.19053 15.4337 7.84114H14.3112C14.3112 3.64584 17.7488 0.275848 22.0282 0.275848C26.3077 0.275848 29.7452 3.64584 29.7452 7.84114V17.1258H29.8154Z" fill="#5380F4"/>
<path d="M15.434 17.1258C15.434 18.7764 16.8371 20.1519 18.5208 20.1519C20.2045 20.1519 21.6076 18.7764 21.6076 17.1258H22.7301C22.7301 21.3211 19.2925 24.6911 15.0131 24.6911C10.7337 24.6911 7.29608 21.3211 7.29608 17.1258V7.84114C7.29608 6.19053 5.89298 4.81503 4.20928 4.81503C2.52556 4.81503 1.12247 6.19053 1.12247 7.84114H0C0 3.64584 3.43757 0.275848 7.717 0.275848C11.9964 0.275848 15.434 3.64584 15.434 7.84114V17.1258Z" fill="#5380F4"/>
<path d="M64.9152 16.85H64.5645C64.5645 18.5006 63.1614 19.8761 61.4777 19.8761C59.7939 19.8761 58.3909 18.5006 58.3909 16.85V7.5653C58.3909 3.37 54.9533 4.09933e-09 50.6739 4.09933e-09C46.3944 4.09933e-09 42.9568 3.37 42.9568 7.5653H44.0092C44.0092 5.91469 45.3421 4.53918 47.096 4.53918C48.7797 4.53918 50.1828 5.91469 50.1828 7.5653V16.85C50.1828 21.0453 53.6203 24.4153 57.8998 24.4153C61.5478 24.4153 64.5645 21.9394 65.4063 18.6381L64.9152 16.85ZM57.8998 23.6587C54.0413 23.6587 50.9545 20.6326 50.9545 16.85V7.5653C50.9545 5.43326 49.2006 3.78265 47.096 3.78265C45.9033 3.78265 44.851 4.33285 44.1495 5.08938C45.1316 2.54469 47.6572 0.75653 50.6037 0.75653C54.4622 0.75653 57.549 3.78265 57.549 7.5653V16.85C57.549 18.982 59.3029 20.6326 61.4075 20.6326C62.6001 20.6326 63.6524 20.0824 64.354 19.3259C63.3718 21.8706 60.8463 23.6587 57.8998 23.6587Z" fill="#5380F4"/>
<path d="M78.8767 16.85C78.8767 18.5006 77.4736 19.8761 75.7899 19.8761C74.1062 19.8761 72.7031 18.5006 72.7031 16.85V7.5653C72.7031 3.37 69.2655 4.09933e-09 64.9861 4.09933e-09C61.4783 4.09933e-09 58.4617 2.33836 57.5497 5.50203L57.8303 7.5653H58.3915C58.3915 5.91469 59.7946 4.53918 61.4783 4.53918C63.162 4.53918 64.5651 5.91469 64.5651 7.5653V16.85C64.5651 21.0453 68.0027 24.4153 72.2821 24.4153C76.5616 24.4153 79.9991 21.0453 79.9991 16.85H78.8767ZM72.212 23.6587C68.3535 23.6587 65.2667 20.6326 65.2667 16.85V7.5653C65.2667 5.43326 63.5128 3.78265 61.4082 3.78265C60.2156 3.78265 59.1632 4.33285 58.4617 5.08938C59.4439 2.54469 61.9694 0.75653 64.9159 0.75653C68.7744 0.75653 71.8612 3.78265 71.8612 7.5653V16.85C71.8612 18.982 73.6151 20.6326 75.7197 20.6326C76.9123 20.6326 77.9647 20.0824 78.6662 19.3259C77.684 21.8706 75.1585 23.6587 72.212 23.6587Z" fill="#5380F4"/>
</svg>
