<svg width="47" height="28" fill="none" xmlns="http://www.w3.org/2000/svg"><path d="M46.152 0H.007v15.531h46.145V0zM36.855 27.077c-.035 0-.035-.034 0-.102.034-.068.034-.068.136-.068.103 0 .137 0 .171-.068.069-.102.034-.17-.136-.17-.103.033-.103.033-.103-.069.068-.272.068-.238-.137-.272-.24-.034-.444-.17-.615-.375-.24-.272-.342-.579-.308-1.022 0-.238.035-.306.103-.477.24-.51.752-.749 1.435-.715.137 0 .342.034.41.068l.137.034v.545h-.102c-.068 0-.103 0-.103-.034 0-.068-.17-.272-.307-.306-.171-.068-.479-.034-.65.034-.376.17-.547.647-.444 1.192.068.238.137.409.308.579.17.17.307.238.546.238.24 0 .445-.102.547-.306.069-.136.103-.17.171-.102.034.034.034.068 0 .306l-.034.273-.137.034c-.068.034-.239.068-.376.068-.239.034-.239.034-.239.102 0 .068 0 .068.068.068.103 0 .206.068.206.17.034.103-.069.307-.171.341 0 .068-.308.068-.376.034zm-17.877-.102c-.274-.068-.479-.205-.752-.375l-.24-.17-.376-.034c-.41-.034-.546-.068-.786-.239-.58-.408-.58-1.464-.034-1.975.41-.375 1.128-.477 1.675-.17.718.374.786 1.532.137 2.111-.103.103-.205.17-.205.17-.069 0 .649.375.854.477.24.103.479.103.684.035.137-.035.17-.035.205.034 0 .068 0 .068-.171.136-.24.034-.684.068-.991 0zm-.855-.954c.513-.272.581-1.09.171-1.635-.376-.51-1.06-.408-1.299.137-.24.51.034 1.294.479 1.498.205.136.444.102.65 0zm-15.792.34c-.136-.067-.273-.238-.512-.646-.376-.613-.445-.715-.547-.715h-.103v.34c0 .613.068.817.274.886.068 0 .068.034.068.102v.068H.28v-.068c0-.068.035-.068.103-.102.068 0 .137-.069.17-.103.035-.136.035-.17.035-1.294s0-1.158-.068-1.26c-.035-.034-.103-.102-.171-.102-.069-.034-.103-.034-.103-.102 0-.068 0-.068.752-.103.82-.034.991 0 1.197.103a.783.783 0 0 1 .444.68c0 .307-.205.614-.513.75l-.137.068.342.511c.376.58.513.75.616.784.102.068.102.17.034.204-.137.034-.547.034-.65 0zm-.752-1.668c.41-.102.547-.681.24-.954-.137-.136-.308-.17-.479-.17l-.137.034v1.158h.137a.636.636 0 0 1 .24-.068zm6.94 1.669a1.23 1.23 0 0 1-.411-.273c-.137-.204-.171-.306-.171-1.09 0-.817-.034-.92-.17-.987-.07-.034-.103-.068-.103-.102 0-.069.034-.069.512-.069.513 0 .513 0 .513.069 0 .034-.034.068-.068.068a.26.26 0 0 0-.137.068l-.068.068v.817c0 .75 0 .818.068.92.102.17.273.272.513.238.239 0 .376-.102.478-.306.069-.17.069-.17.069-.886 0-.647 0-.749-.069-.817-.034-.034-.102-.102-.137-.102-.034 0-.068-.034-.068-.068 0-.069.034-.069.41-.069s.41 0 .41.069c0 .034-.034.068-.068.068-.137.034-.137.102-.17.953v.818l-.103.17a.783.783 0 0 1-.513.409c-.137.068-.581.068-.718.034zm11.69 0a1.231 1.231 0 0 1-.411-.273c-.137-.17-.17-.306-.17-1.09 0-.817-.035-.92-.172-.987-.068-.034-.102-.068-.102-.102 0-.069.034-.069.512-.069.513 0 .513 0 .513.069 0 .034-.034.068-.068.068-.035 0-.103.034-.137.102-.068.068-.068.136-.068.783 0 .818 0 .988.136 1.124.24.239.752.17.923-.136.103-.204.103-.443.103-1.056 0-.681-.034-.75-.205-.783-.034 0-.069-.034-.069-.068 0-.069.035-.069.41-.069.377 0 .41 0 .41.069 0 .034-.034.068-.102.102-.034.034-.102.068-.102.102 0 .034-.035.409-.035.852v.817l-.102.17a.783.783 0 0 1-.513.409c-.17 0-.615 0-.752-.034zm9.502-.034c-.137-.068-.274-.239-.479-.613-.273-.477-.308-.511-.376-.511s-.068 0-.068.374c0 .443.034.58.17.614.069 0 .103.034.103.102v.068h-1.025v-.068c0-.068.034-.068.102-.102.137-.035.137-.103.137-1.159v-.92l-.068-.067a.259.259 0 0 0-.137-.068c-.034 0-.068-.034-.068-.068 0-.035.034-.069.205-.069h.752c.478 0 .547.034.65.069.204.102.307.306.307.579 0 .238-.137.476-.41.613-.069.034-.137.102-.103.102.034 0 .137.204.308.409.273.442.444.613.512.613.069 0 .069.136 0 .17-.102 0-.444 0-.512-.068zm-.581-1.397c.102-.068.239-.204.273-.34.034-.137-.034-.34-.137-.443-.102-.102-.205-.136-.376-.102h-.102V25h.136c.069-.035.171-.035.206-.069zm13.365 1.397c-.103-.034-.171-.034-.171-.068 0 0-.035-.137-.035-.307l-.034-.272h.069c.034 0 .068 0 .068.034 0 .068.205.306.308.374.307.137.683 0 .683-.272 0-.17-.068-.273-.376-.443-.41-.238-.547-.374-.65-.545a.933.933 0 0 1-.033-.613c.034-.136.239-.306.376-.375.17-.068.649-.068.854 0l.171.069v.545h-.068c-.069 0-.103 0-.103-.069-.034-.136-.205-.272-.342-.306-.376-.102-.65.272-.41.545.034.068.24.204.444.34.377.273.513.41.582.58.102.374-.069.68-.445.85-.205 0-.615 0-.889-.067zm-39.31-.068c0-.069 0-.069.07-.069a.26.26 0 0 0 .136-.068c.068-.068.068-.102.068-1.021 0-.648 0-.954-.034-1.022-.034-.068-.102-.136-.17-.136-.035 0-.07-.034-.07-.069v-.068h1.778v.647h-.068c-.068 0-.103-.034-.103-.102-.068-.17-.17-.238-.512-.238h-.308V25h.24c.273 0 .41-.069.41-.205 0-.034.034-.068.102-.068h.068v.749h-.068c-.068 0-.068 0-.068-.068 0-.136-.103-.17-.41-.204h-.274v.409c0 .51 0 .51.342.51s.513-.102.615-.306c.034-.102.137-.136.171-.068s-.068.409-.137.51l-.034.103H3.22l-.034-.102zm2.325.034c0-.068.034-.068.103-.102.17-.035.17-.069.17-1.022 0-.988 0-1.09-.17-1.158-.069-.034-.103-.068-.103-.102v-.069h.684c.752 0 .786.034.991.205.205.17.274.545.137.817-.137.239-.342.375-.718.409h-.205l-.034-.136-.034-.102h.102c.137-.034.308-.103.376-.205.034-.068.068-.136.068-.238 0-.307-.17-.477-.444-.477h-.17v.988c0 1.09 0 1.124.17 1.158.068 0 .068.034.068.102v.068H5.476v-.136h.034zm4.99-.034c0-.034.035-.069.069-.069a.259.259 0 0 0 .137-.068l.068-.068v-.92c0-1.021 0-1.123-.17-1.191-.07-.034-.103-.069-.103-.103 0-.034.034-.068.444-.068.889 0 1.06 0 1.196.068.171.103.274.205.274.443v.239a.725.725 0 0 1-.308.34l-.136.068.136.034a.682.682 0 0 1 .445.716c-.035.272-.137.442-.41.545-.137.068-.171.068-.89.068h-.717v-.034H10.5zm1.3-.205c.136-.102.205-.238.205-.442-.035-.307-.24-.511-.581-.511h-.171v.442c0 .443 0 .443.068.511.103.102.342.068.479 0zm-.103-1.26c.17-.068.274-.204.274-.375-.035-.238-.206-.374-.547-.374h-.171v.817h.17a.806.806 0 0 0 .274-.068zm1.23 1.499c0-.034.035-.068.069-.068s.102-.034.137-.103c.068-.068.068-.102.068-.987 0-.75 0-.92-.034-.988-.069-.102-.137-.136-.205-.136-.034 0-.069-.034-.069-.068 0-.069 0-.069.547-.069s.547 0 .547.069c0 .034-.034.068-.068.068a.26.26 0 0 0-.137.068l-.068.034v1.907l.068.034c.068.034.137.034.308.034.273 0 .41-.102.512-.272.069-.102.103-.136.171-.102.034.034.034.068-.034.272-.034.136-.068.273-.102.307l-.035.068h-1.709l.034-.068zm2.086 0c0-.068.034-.068.102-.102.171-.035.171-.103.171-1.124 0-.818 0-.886-.068-.988-.034-.068-.103-.102-.137-.102-.068 0-.068-.034-.068-.068 0-.069 0-.069.512-.069.513 0 .513 0 .513.069 0 .034-.034.068-.068.068-.035 0-.103.068-.137.102-.034.068-.068.17-.068.988 0 1.021 0 1.09.17 1.123.069 0 .103.035.103.103v.068h-1.025v-.068zm7.178 0c0-.034.034-.068.102-.068.171-.034.171-.103.171-1.124 0-.886 0-.886-.068-.988-.034-.068-.103-.102-.137-.102-.034 0-.068-.034-.068-.068v-.069h1.778v.239c0 .306 0 .306-.07.306-.068 0-.068-.034-.102-.102-.034-.17-.17-.238-.512-.238h-.308l-.034.136c0 .068-.035.273-.035.443v.272h.24c.273-.034.376-.068.41-.17 0-.068.034-.068.102-.068h.069v.749h-.069c-.034 0-.068 0-.068-.068 0-.136-.137-.204-.444-.204h-.24v.408c0 .511 0 .511.377.511.307 0 .478-.068.58-.272.035-.102.069-.136.137-.136.035 0 .069 0 .103.034.034.034-.103.545-.171.579-.034.034-.205.034-.889.034h-.854v-.034zm3.281 0c0-.034.034-.068.103-.102.068-.035.136-.069.17-.137.069-.068.069-.102.069-1.226 0-1.26 0-1.294-.205-1.362-.069-.034-.103-.034-.103-.102v-.068h2.085v.749h-.102c-.069 0-.103 0-.103-.068 0-.103-.102-.273-.239-.307-.068-.034-.24-.068-.444-.068h-.342v1.022h.24c.34 0 .444-.034.512-.17.034-.103.068-.103.137-.103h.102v.886h-.102c-.069 0-.103-.034-.103-.068-.034-.17-.24-.239-.581-.239h-.205v.545c0 .613.034.681.205.75.068.034.103.068.103.102v.068H25.438l.034-.102zm4.82 0c0-.068 0-.068.068-.068.103 0 .205-.17.41-.75.308-.749.581-1.532.581-1.6 0-.035.035-.035.137-.035h.137l.41 1.022c.444 1.124.513 1.294.615 1.329.034.034.069.068.069.102 0 .068 0 .068-.513.068h-.513v-.068c0-.068.034-.068.103-.102.136-.035.136-.103.034-.41l-.103-.238h-.683l-.069.205c-.102.272-.068.443 0 .443.034 0 .069.034.069.068v.068h-.752v-.034zm1.367-1.056c0-.034-.205-.647-.24-.647l-.068.136c-.034.068-.068.204-.136.34l-.069.205h.24c.17-.034.273-.034.273-.034zm1.299 1.056c0-.068.034-.068.068-.102.171-.035.171-.069.171-1.056 0-1.022 0-1.09-.17-1.158-.07-.034-.103-.068-.103-.103 0-.034.034-.068.342-.068h.341l.205.239c.103.136.376.477.616.75.239.272.444.544.478.578l.069.102v-.68c0-.75-.035-.818-.206-.852-.034 0-.068-.034-.068-.069 0-.068.034-.068.41-.068s.41 0 .41.069c0 .034-.034.068-.068.068s-.102.034-.137.102c-.068.068-.068.136-.068 1.192v1.09h-.137c-.102 0-.136 0-.239-.136-.068-.103-1.367-1.67-1.401-1.738v.75c0 .817.034.92.17.953.069 0 .103.035.103.103v.068h-.82l.034-.034zm5.264 0c0-.034.034-.068.034-.068.068 0 .17-.137.24-.307.102-.238.614-1.567.717-1.84l.068-.238h.274l.41 1.022c.205.545.41 1.056.444 1.124.069.136.171.239.206.239.034 0 .034.034.034.068v.068h-1.026v-.068c0-.068 0-.068.069-.068.136 0 .17-.137.034-.443l-.069-.239h-.683l-.069.205c-.136.374-.102.477.035.477.034 0 .068.034.068.068v.068h-.752v-.068h-.034zm1.264-1.363c-.068-.17-.102-.34-.136-.34 0-.034-.069.102-.137.272l-.137.34s.103.035.24.035h.239l-.069-.307zm1.368 1.363c0-.068 0-.068.068-.068a.26.26 0 0 0 .137-.069c.068-.068.068-.136.068-.987v-.988c-.034-.102-.137-.204-.205-.204-.034 0-.068-.034-.068-.068 0-.069 0-.069.513-.069.478 0 .512 0 .512.069 0 .034-.034.068-.102.102-.035.034-.103.068-.103.136-.034.102-.068 1.056-.034 1.567.034.34.034.442.068.477.035.034.069.068.103.068.034 0 .068.034.068.068v.068h-1.025v-.102zm3.35 0c0-.068 0-.068.068-.068a.26.26 0 0 0 .137-.069c.068-.068.068-.102.068-1.021 0-.647 0-.954-.034-1.022-.034-.068-.103-.136-.171-.136-.034 0-.068-.034-.068-.068v-.069H45.98v.613h-.068c-.069 0-.103-.034-.103-.102-.068-.17-.17-.238-.513-.238h-.307v.817h.17c.274 0 .377-.034.445-.17.034-.068.068-.102.137-.102h.068v.749h-.068c-.069 0-.069 0-.069-.068 0-.136-.102-.17-.41-.204h-.273v.408c0 .511 0 .511.342.511.341 0 .512-.102.615-.306.034-.102.136-.136.17-.068.035.068-.068.408-.136.51l-.034.103h-1.743zm-40.198-2.76l-.068-.067.17-.273.206-.272c.102 0 .41.068.41.102 0 .034-.615.579-.65.579.035 0-.034-.034-.068-.068zM.212 21.492h45.7v.273H.213v-.273zm17.364-.613c-.24-.102-.376-.306-.342-.545a.468.468 0 0 1 .274-.34l.137-.068-.103-.035c-.034-.034-.103-.068-.103-.102 0-.068.206-.272.274-.272 0 0 0-.034-.034-.102-.137-.273-.034-.647.239-.784.17-.068.205-.068.752-.034.308.034.308.034.308.068s-.035.069-.035.103c0 0-.068.034-.102.034h-.103v.17c.035.375-.239.647-.683.647-.24 0-.342.068-.24.102.035 0 .171.068.342.137.513.17.581.238.581.51a.686.686 0 0 1-.546.58c-.137-.035-.445-.035-.616-.069zm.684-.204c.24-.136.342-.34.205-.477-.103-.068-.479-.204-.581-.17-.205.034-.41.306-.376.477.068.238.444.34.752.17zm.068-1.328c.171-.103.24-.443.137-.58-.171-.204-.479.035-.479.375 0 .102 0 .137.069.205.102.068.17.068.273 0zm1.128.68c-.136-.033-.205-.101-.205-.272-.034-.408.308-.987.684-1.158.205-.102.58-.102.854-.034.034 0 0 .102-.068.307-.103.409-.171.817-.137.885.034.034.034.034.137.034.068-.034.102-.034.102 0 .035.069 0 .102-.17.137-.24.068-.342.068-.377-.069l-.034-.102-.136.068a.826.826 0 0 1-.65.205zm.547-.272c.103-.034.171-.102.205-.136.034-.068.171-.51.205-.783.035-.102.035-.102-.102-.137-.205-.068-.41.103-.581.41-.171.34-.205.646-.103.714.103.069.137.035.376-.068zm14.185.273c-.136-.034-.17-.068-.205-.205-.068-.204.069-.613.308-.885.273-.34.547-.477.991-.409.103.034.205.034.24.068l-.069.409c-.034.204-.102.477-.102.613v.204h.136c.103 0 .137 0 .137.069 0 .068-.034.068-.17.136-.24.068-.343.068-.377-.034 0-.034 0-.068-.034-.068 0 0-.068.034-.171.068a2.144 2.144 0 0 1-.478.136c-.103-.068-.137-.102-.206-.102zm.513-.273c.069-.034.171-.102.171-.136.068-.068.17-.477.24-.817 0-.102 0-.102-.103-.137-.103-.034-.137-.034-.24.034-.205.103-.375.41-.478.784-.068.375.068.443.41.272zm-32.54.205c0-.034.034-.307.102-.613.137-.613.137-.648 0-.613-.068.034-.103.034-.103-.035 0-.068.035-.068.171-.102.103-.034.205-.068.274-.068.102 0 .102 0 .102.102 0 .069-.034.34-.102.613-.069.273-.103.511-.103.545 0 .034.034.034.171.034.137-.034.137-.034.137.035 0 .068-.034.068-.171.136-.103 0-.24.034-.308.034-.136 0-.17 0-.17-.068zm1.162 0l-.069-.069.24-1.021c.136-.545.239-1.056.239-1.09 0-.102-.034-.102-.137-.068-.068.034-.068 0-.068-.068 0-.103.102-.137.41-.17.17 0 .17 0 .17.067 0 .035-.033.273-.102.545a3.936 3.936 0 0 0-.102.511c0 .034.034.034.136-.034.342-.136.616-.136.718.034.103.137.034.545-.102.852-.069.17-.342.409-.479.477-.205.102-.752.102-.854.034zm.752-.17c.136-.103.307-.478.376-.784.034-.306-.171-.375-.513-.136-.069.034-.137.136-.171.204-.068.136-.171.613-.171.715.034.102.308.102.479 0zm1.128.136c-.069-.069-.103-.103-.103-.307 0-.51.308-.954.684-1.09.205-.068.376-.034.478.068.069.068.069.102.069.205 0 .306-.274.545-.684.579-.103 0-.24.034-.24.034-.034.034-.034.238 0 .306.069.137.172.137.445 0 .17-.068.205-.102.205-.068.068.068.034.102-.205.204-.205.103-.273.103-.444.103-.069.068-.103.068-.205-.034zm.546-.716c.24-.068.41-.34.308-.476-.068-.069-.17-.069-.273 0-.069.068-.205.306-.274.442 0 .068 0 .068.034.068.069 0 .137 0 .205-.034zm1.026.784s.068-.239.137-.511c.068-.273.136-.58.136-.647v-.137l-.136.035c-.103 0-.137 0-.137-.035 0-.068.102-.102.342-.17.17-.034.239 0 .239.102v.069l.103-.069a.462.462 0 0 1 .444-.102c.068.034.102.068.102.102-.068.273-.136.375-.205.375-.068 0-.068 0-.068-.102 0-.204-.205-.204-.342 0-.102.136-.17.443-.24.851-.033.136-.068.239-.068.239-.068 0-.307.034-.307 0zm1.504 0c-.034-.034 0-.136.17-.92l.07-.306h-.206c0-.034.068-.137.103-.137.068 0 .205-.136.273-.272.068-.136.103-.17.205-.17.068 0 .068 0 .068.102 0 .068-.034.136-.034.204l-.034.102h.137c.137 0 .17.034.137.137 0 .034-.069.034-.171.034-.171 0-.137-.069-.274.579-.102.476-.102.51.069.476.136-.034.136-.034.136.035 0 .034-.034.068-.17.102-.206.068-.445.068-.48.034zm1.196-.068c-.205-.239-.068-.92.274-1.227.136-.136.376-.238.512-.238.103 0 .308.102.342.136.034.102.034.307-.034.409-.137.204-.41.34-.684.34h-.17v.17c0 .307.136.375.478.205.103-.068.205-.102.205-.068 0 0 .034.034.034.068s-.034.068-.205.17c-.205.103-.24.103-.444.103-.205.034-.24.034-.308-.068zm.547-.716c.171-.068.274-.136.308-.272.034-.102.034-.102 0-.17-.069-.103-.171-.103-.274 0-.102.068-.273.374-.273.442 0 .034.102.034.24 0zm11.246.784c-.034-.034 0-.205.136-.818.206-.817.308-1.328.308-1.396 0-.068 0-.068-.102-.034-.103 0-.103 0-.103-.068s.068-.102.376-.17c.171-.035.205 0 .205.102 0 .034-.102.51-.24 1.055-.136.545-.238 1.022-.238 1.056v.102l.136-.034c.137-.034.137 0 .137.034 0 .035-.034.069-.17.103-.172.102-.411.102-.445.068zm1.128 0c-.034-.068 0-.205.102-.681.069-.273.103-.511.103-.511 0-.068-.034-.068-.137-.034-.068 0-.068 0-.068-.034 0-.069.136-.137.376-.17.17-.035.24 0 .24.067 0 .034-.07.307-.138.613-.068.307-.136.58-.102.614 0 .034.068.034.137 0 .136 0 .136 0 .136.034s-.034.068-.17.102c-.206.034-.445.034-.48 0zm1.128-.034c0-.034 0-.137.034-.205.068-.306.205-.987.205-1.021h-.103c-.136 0-.102-.069.035-.17.102-.035.136-.103.205-.24.102-.17.102-.17.17-.17h.07v.17c-.035.103-.035.205-.035.205s.068.034.137.034c.17 0 .17 0 .136.102 0 .069-.034.069-.17.069h-.171l-.103.51c-.068.273-.103.511-.068.545 0 .034.034.034.102.034.137-.034.137-.034.137.035 0 .068-.034.068-.171.136-.205.034-.376.034-.41-.034zm1.23 0c-.068-.069-.102-.102-.102-.273-.034-.375.136-.817.41-.988.273-.204.581-.238.752-.068.068.069.102.103.068.239-.034.306-.307.51-.718.545-.239 0-.273.034-.205.238.069.238.137.238.445.102.205-.102.239-.102.239 0s-.376.239-.615.273c-.171 0-.205 0-.274-.068zm.65-.818c.17-.102.273-.306.17-.408-.136-.137-.375.034-.512.408l-.034.137.137-.035c.068-.034.17-.068.239-.102zm7.178.852s.068-.239.137-.511c.068-.273.136-.58.136-.647v-.137l-.136.035c-.103 0-.137 0-.137-.035 0-.068.068-.102.307-.17.206-.068.274-.034.274.102v.069l.103-.069a.462.462 0 0 1 .444-.102c.068.034.102.068.102.068l-.068.205c-.068.17-.068.17-.137.17-.068 0-.068 0-.068-.102 0-.205-.171-.205-.308-.034-.102.136-.136.306-.239.715-.034.204-.068.34-.102.375 0 .068-.308.102-.308.068zm3.452-.034c-.034-.069 0-.239.137-.784l.102-.442h-.068c-.102 0-.102-.103-.034-.137a.494.494 0 0 0 .273-.306c.069-.136.103-.17.206-.17.068 0 .068 0 .068.102 0 .068-.034.136-.034.204l-.034.102h.136c.137 0 .171.034.137.136 0 .034-.068.034-.171.034-.17 0-.137-.068-.273.58-.103.476-.103.51.068.476.137-.034.137-.034.137.034 0 .034-.034.069-.171.102-.24.137-.445.137-.479.069zm1.197 0c-.24-.239-.069-.92.273-1.226.137-.137.376-.239.513-.239.102 0 .307.102.341.136.035.103.035.307-.034.41-.136.203-.41.34-.683.34h-.171v.17c.034.306.136.34.444.17.103-.068.205-.102.205-.068 0 0 .035.034.035.068s-.035.068-.206.17c-.205.103-.239.103-.41.103-.205.034-.24 0-.307-.034zm.649-.784c.205-.102.308-.34.17-.442-.102-.069-.136-.069-.272.034-.103.068-.274.374-.274.442 0 .069.24.034.376-.034zm.889.818s.068-.239.136-.545c.069-.273.103-.545.103-.613 0-.102 0-.102-.103-.102-.102 0-.102 0-.136-.069 0-.034 0-.068.136-.102a.808.808 0 0 1 .274-.068c.102-.034.102-.034.17.136 0 0 .07-.034.172-.068.205-.102.239-.102.376-.034l.102.068-.068.205c-.069.17-.069.204-.137.204s-.068 0-.068-.102c0-.273-.24-.204-.376.068a2.427 2.427 0 0 0-.137.545c-.034.238-.102.443-.102.443-.035.034-.342.068-.342.034zm1.504 0s.034-.205.102-.443c.069-.239.103-.51.103-.613v-.204h-.103c-.102 0-.102 0-.136-.035 0-.034 0-.068.136-.102.274-.068.342-.102.376-.034.034.034.034.068.034.136v.069s.103-.034.206-.103c.239-.102.546-.17.649-.136.068.034.068.034.034.205 0 .068-.068.306-.102.51-.035.205-.103.41-.103.477 0 .102 0 .102.103.102.102 0 .136 0 .136.035.035.068 0 .068-.205.136s-.41.068-.444 0c0-.034.034-.273.102-.58.137-.578.137-.646.069-.68-.069-.035-.308.102-.445.204-.102.102-.136.136-.205.443-.034.17-.068.374-.102.477a.26.26 0 0 1-.069.17c.103-.034-.136 0-.136-.034zm2.05-.034c0-.034.035-.307.103-.613.069-.307.137-.58.137-.613 0-.035-.034-.035-.103 0-.068 0-.102.034-.102.034v-.069c0-.068.034-.068.17-.102.343-.102.48-.102.445.068 0 .034-.068.307-.137.58-.068.272-.102.51-.102.544 0 .034.034.034.136.034.137-.034.137 0 .137.035-.068.102-.615.238-.683.102zm1.163 0c-.034-.069 0-.205.137-.716.136-.579.136-.51.034-.51-.137 0-.103-.069.034-.17.102-.035.137-.103.205-.24.068-.135.102-.17.17-.204.103 0 .103 0 .035.307l-.034.102h.17c.137 0 .172 0 .137.034 0 .034-.034.068-.034.102 0 .034-.034.034-.17.034h-.172l-.102.511c-.068.273-.103.511-.068.545 0 .034.034.034.102.034.137-.034.137-.034.137.034 0 .069-.034.069-.171.137-.205.068-.41.068-.41 0zm1.23 0c-.102-.069-.102-.069-.102-.375 0-.273 0-.306.102-.51.137-.273.274-.41.513-.512.41-.17.718.102.547.477-.103.204-.376.375-.684.375-.17 0-.17 0-.205.068a.326.326 0 0 0 .069.306c.068.069.17.069.41-.034.17-.068.205-.102.205-.068.068.068.034.102-.171.204-.171.069-.24.103-.41.103-.171.034-.205.034-.274-.034zm.65-.818c.205-.102.273-.34.136-.442-.068-.035-.102-.035-.17-.035-.103.034-.274.239-.308.41l-.034.135.136-.034c.035.034.171 0 .24-.034zm-45.36.784c0-.035.035-.069.07-.069.102 0 .17-.102.239-.238.068-.17.341-1.43.341-1.703 0-.204 0-.238-.102-.272-.171-.103-.137-.137.376-.137.41 0 .478 0 .478.034 0 .035-.034.069-.102.069-.205.034-.274.238-.445 1.158-.17.851-.17.851-.102.92.068.067.102.067.308.033.307 0 .444-.068.546-.238.103-.136.103-.136.137-.102.034.034.034.034 0 .17-.034.068-.068.204-.102.272l-.069.137H.76c-.718.034-.786.034-.752-.034zm15.178.034c0-.034.034-.069.102-.102a.35.35 0 0 0 .171-.205c.102-.17.342-1.464.342-1.703 0-.204 0-.204-.103-.272-.205-.137-.17-.137.752-.137.855 0 .855 0 .855.069 0 .034-.034.136-.069.272-.034.17-.034.204-.102.204-.069 0-.069 0-.069-.068 0-.204-.102-.238-.546-.238h-.274l-.068.375c-.034.204-.103.408-.103.442 0 .034 0 .068.24.068.307 0 .375-.034.478-.17.068-.136.17-.136.17 0 0 .034-.033.204-.067.375-.035.204-.069.272-.103.272-.034 0-.068-.034-.068-.102 0-.034-.035-.102-.103-.136-.068-.034-.547-.068-.581-.034-.034.034-.103.442-.137.715-.034.136 0 .136.069.204.068.034.136.034.341.034.308 0 .41-.068.547-.238.069-.068.103-.136.137-.102.069.034.069.068-.034.272-.137.307-.068.307-.991.307-.684-.068-.787-.068-.787-.102zm15.21 0c0-.034.034-.069.103-.069.205-.068.24-.238.444-1.192.171-.817.171-.953-.034-1.021-.034 0-.068-.034-.034-.068 0-.035.24-.035.854-.035.82 0 .82 0 .82.069 0 .034-.033.136-.068.272-.034.17-.034.204-.102.204-.069 0-.069 0-.069-.068 0-.204-.136-.238-.546-.238h-.24l-.068.375a7.858 7.858 0 0 0-.069.442c0 .069.445.034.582 0 .034-.034.102-.068.136-.136.035-.068.069-.102.103-.102.068 0 .068-.034 0 .375-.069.272-.069.34-.137.34-.034 0-.068-.034-.068-.068 0-.136-.274-.238-.547-.204l-.103.034-.068.34c-.103.58-.103.648.068.716.171.068.069.102-.41.102-.444-.034-.547-.034-.547-.068zm-17.569-.648a.472.472 0 0 1-.24-.408c0-.239.206-.443.445-.443.274 0 .444.17.444.443-.034.34-.341.545-.649.409zm15.245 0a.744.744 0 0 1-.171-.136c-.068-.102-.068-.136-.068-.272 0-.273.17-.443.444-.443.137 0 .17 0 .274.102.205.17.239.443.068.647-.137.137-.342.205-.547.102zm-17.911-1.055c-.069-.068-.069-.068.273-.443l.103-.136.17.034c.103.034.172.034.172.068s-.65.545-.684.545c0 0-.034-.034-.034-.068zm15.245 0l-.069-.068.24-.273c.136-.136.239-.272.239-.272.068 0 .342.068.308.102 0 .034-.581.477-.65.51 0 .035-.034.035-.068 0zm19.962 0l-.069-.068.24-.273c.136-.136.239-.272.273-.272.069 0 .342.068.342.102 0 0-.581.477-.65.51-.068.035-.102.035-.136 0zm-42.83-.137c-.136-.136 0-.34.171-.34.137 0 .205.068.205.204 0 .17-.239.273-.376.136zm20.236 0c-.069-.068-.069-.238 0-.306.137-.136.376-.034.376.136s-.24.273-.376.17zm19.928 0c-.137-.136 0-.34.17-.34.206 0 .274.204.137.34-.068.069-.205.069-.307 0zm-26.286-.885c-.034-.034-.034-.068.171-.307l.24-.238.17.034c.103.034.171.034.171.068s-.615.477-.65.511c-.034 0-.068-.034-.102-.068z" fill="#fff"/><path d="M26.395 15.565l.068-.17c.103-.34.24-.58.41-.852.206-.272.616-.715.787-.783.205-.102.478-.136.786-.102.273.034 1.128.17 1.47.238.273.068.65.068.82 0 .342-.102.547-.306.65-.613.068-.238.068-.477 0-.613-.103-.204-.103-.238.17-.477.137-.102.24-.238.24-.238 0-.068-.171-.409-.205-.409-.035 0-.069-.034-.103-.068l-.068-.068.136-.068c.206-.102.342-.273.342-.375a.678.678 0 0 0-.102-.272c-.103-.205-.137-.375-.069-.477.035-.068.103-.102.41-.204.274-.069.377-.17.41-.307.035-.136 0-.238-.068-.409-.068-.136-.547-.851-.65-1.022-.17-.238-.41-.647-.478-.851-.068-.204-.068-.238-.034-.511.103-.579.034-1.056-.24-2.01-.204-.68-.273-.85-.34-.987-.103-.239-.103-.307.136-.477.102-.102.24-.204.24-.238.067-.137 0-.41-.138-.477-.102-.034-.136 0-.239.136-.068.136-.102.136-.17.136-.103 0-.138-.034-.07-.136.103-.102.07-.136-.068-.17-.102 0-.17-.068-.376-.273-.307-.306-.512-.443-.888-.647-.171-.068-.24-.136-.171-.102.068 0 .273.034.444.034.547.034.684-.034.82-.443.103-.272.137-.409-.068-.579L29.437 0h16.646v15.531H26.396v.034z" fill="#ABABAB"/><path d="M12.21 15.565a.838.838 0 0 1-.24-.034s.137-.102.752-.477c.206-.136.274-.17.24-.204-.034 0-.205-.034-.376-.034-.274 0-.376 0-.445.034a2.032 2.032 0 0 1-.512.136c-.547.136-.718.239-.89.477l-.067.102H.007V0H21.2l-.445.272c-.24.103-.478.273-.581.341-.308.273-.752.852-.854 1.192-.035.136-.069.17-.206.239-.17.136-.41.374-.58.647-.24.374-.718 1.226-.821 1.464-.137.375-.137.647.068 1.737.103.477.205.954.24 1.09.034.102.068.307.068.443.034.204.034.272.17.545.035.068.07.17.07.17 0 .034.033.068.068.102.034.034.068.068.068.103 0 .068.068.136.205.306.342.375.581.715.581.852 0 .102-.137.102-.342.068-.239-.068-.444-.205-.786-.511-.137-.136-.24-.205-.24-.205l.206.273c.24.238.273.306.205.409-.034.068-.137.102-.273.068-.171-.034-.274.034-.24.136 0 .068 0 .102-.034.068-.102-.034-.308-.068-.478-.102-.171-.034-.171-.034-.274-.17-.068-.103-.137-.17-.205-.17a22.542 22.542 0 0 0-1.538-.273c-.889-.102-1.094-.102-1.504-.068-.308.034-.41.068-.581.136-.308.17-.855.647-.855.783 0 .069.103.034.24-.034.41-.238 1.811-.613 2.529-.647.342 0 .342 0-.103.068a4.37 4.37 0 0 1-.615.137c-.205.068-.58.17-.82.204-.24.068-.513.136-.615.17l-.171.068h.239c1.299 0 2.769.409 3.384.954.273.204.342.238.752.204.513-.068 1.196-.306 1.504-.545.137-.102.24-.136.24-.102 0 .102-.172.613-.24.75-.069.136-.103.17-.034.204.034.034.034.034.034.068 0 0 0 .034.034.034.103.034.068.068-.068.102-.137.034-.274.102-.274.17l.034.034c.069 0 .035.069-.068.069-.068 0-.068.034-.068.034.034.034.034.034 0 .034s-.034.034-.034.068-.035.068-.103.102c-.137.068-.103.102.103.068h.136c-.034 0-.205.102-.376.17-.17.069-.41.17-.513.205-.136.034-.205.102-.205.102 0 .034.035.034.171 0h.034s-.307.204-.683.409c-.376.204-.752.409-.786.477-.035.068-.137.102-.171.102s-.069.034-.103.068c0 .204 0 .204.137.204.205-.034.308-.034.308 0s0 .034-.035.034c-.034 0-.068.034-.102.034-.034.034-.069.034-.103.069-.034 0-.102.034-.136.102-.035.034-.103.102-.137.102h.102c1.334-.102 1.607-.136 2.154-.409a5.228 5.228 0 0 0 1.299-.92c.102-.102.205-.17.205-.17.034 0 .034.17-.034.307-.103.238-.376.477-.89.817-.272.17-.546.34-.614.375-.274.068-.684.17-1.094.238-1.436.205-1.949.375-2.495.716-.103.068-.171.102-.205.102a.26.26 0 0 0-.137.068c-.171.136-.034.102.307-.068.342-.17.513-.205.24-.034-.342.204-.581.34-.82.34H12.21v-.034zm-1.778-1.737c.069-.034.24-.136.41-.238.171-.102.377-.205.445-.239a3.87 3.87 0 0 1 .478-.204c.376-.17.923-.34.957-.273 0 .034.103.034.171.034.137 0 .137 0 .103.035-.034 0-.068.034-.068.034 0 .068.273.034.41-.034.034-.034.137-.069.239-.069.103 0 .137-.034.137-.068s.034-.034.102-.034c.137.034.41-.034 1.128-.204.479-.136.855-.239 1.197-.409l.239-.102-.24-.136c-.58-.375-1.162-.613-2.426-.954-.24-.068-.41-.136-.445-.136-.034-.034 0-.034.034 0 .137.034.24.068.24.034s-.103-.068-.274-.102c-.17-.034-.273-.068-.17-.068.17 0-.137-.103-.48-.17-.272-.035-.272-.069-.17-.103.103-.034.205-.238.17-.306-.033-.069-.067-.069-.204.034-.274.17-.547.476-.684.817-.068.17-.068.204.376.204.342 0 .342 0 .274.069a.367.367 0 0 1-.205.068c-.308.034-.445.17-.308.204.034.034.034.034-.068.068-.103.034-.103.068-.069.068.034 0 .103.034.205.034.103 0 .137 0 .205.034l.069.069-.137.068c-.068.034-.17.136-.17.17-.035.068-.138.17-.24.272-.103.103-.171.205-.171.239s-.137.204-.308.34c-.478.375-.683.58-.683.682a.258.258 0 0 1-.069.136c-.136.102-.205.204-.136.204.034-.034.102-.034.136-.068zm3.521-.34c.103 0 .24-.034.273-.069l.069-.034-.137-.068-.137-.102-.136.068c-.069.034-.205.068-.24.102-.205.069-.239.205-.034.17.069-.033.24-.067.342-.067zM8.86 12.125c.684-.681 1.128-1.124 1.743-1.533.205-.136.342-.238.342-.204.034.068.103.034.24-.034.17-.102.239-.204.444-.579.205-.375.307-.477.58-.715.138-.102.343-.273.48-.375.17-.136.204-.136.204-.102 0 .034 0 .068.035.068.068 0 .375-.136.41-.17.034-.068-.308-.102-.547-.102-.171 0-.24.034-.479.17-.547.306-.923.613-1.675 1.362-.546.545-.957.886-1.162.988-.068.034-.136.102-.205.273a9.18 9.18 0 0 1-.718 1.192c-.273.374-.307.476-.102.272 0-.102.24-.306.41-.51zm6.7 3.27c.786-.17.888-.17 1.47-.204.649-.035.717-.035 1.093-.239.137-.068.171-.068.171-.034.034.034.24-.068.65-.34.17-.103.41-.273.512-.341.171-.102.24-.102.308-.102.102.034.137 0 .24-.102.34-.273.614-.41.888-.41.068 0 .102 0 .102.035 0 .034 0 .034.035.034.068-.034.034 0-.171.17-.24.17-.24.239.034.068.24-.17.24-.17.24-.102 0 .034-.103.136-.274.273-.376.306-.65.579-1.094 1.055l-.376.41h-4.683l.854-.171zm0-6.097H15.594h-.034z" fill="#5380F4"/><path d="M29.574 8.174c-.137-.034-.069-.068.068-.068.171 0 .24-.068.24-.17 0-.068 0-.068-.069-.034-.034 0-.068 0-.102-.034 0-.068-.069-.103-.171-.103-.171-.034-.445-.204-.41-.238 0 0 .102-.034.205-.034.17 0 .17-.034.205-.102a.47.47 0 0 1 .102-.136c.034 0 .103-.034.171-.103.034-.034.171-.136.308-.204.205-.136.342-.272.307-.34-.034-.035-.512-.103-.717-.069-.24.034-.684.103-.855.17-.17.069-.137 0 .137-.136.342-.204.991-.374 1.333-.374.137 0 .615.102.65.17.102.102 0 .409-.206.579l-.102.034.068.068.068.068-.068.068a.49.49 0 0 1-.102.069c-.035 0-.103.034-.137.102-.069.068-.103.102-.069.17.035.034 0 .102 0 .136-.034.034-.034.137 0 .205.035.204 0 .272-.17.306h-.684z" fill="#7F7F7F"/></svg>