<svg width="842" height="595" viewBox="0 0 842 595" fill="none" xmlns="http://www.w3.org/2000/svg">
<rect width="842" height="595" fill="white"/>
<text transform="translate(23 19)" fill="black" xml:space="preserve" style="white-space: pre" font-family="Inter UI" font-style="Regular" font-size="12" letter-spacing="0em"><tspan x="167.933" y="11.5398">&#10;</tspan></text>
<text transform="translate(23 19)" fill="black" xml:space="preserve" style="white-space: pre" font-family="Inter UI" font-style="Regular" font-size="9" letter-spacing="0em"><tspan x="0" y="11.5398">EIG / Mobilier National &#x2014; Projet Gobelins</tspan></text>
<text transform="translate(23 19)" fill="black" xml:space="preserve" style="white-space: pre" font-family="Inter UI" font-style="Bold" font-size="12" font-weight="bold" letter-spacing="0em"><tspan x="0" y="31.892">ARCHITECTURE TECHNIQUE</tspan></text>
<line y1="-0.125" x2="337" y2="-0.125" transform="translate(99 87) rotate(90)" stroke="#828282" stroke-width="0.25"/>
<line y1="-0.125" x2="12" y2="-0.125" transform="translate(99 87)" stroke="#828282" stroke-width="0.25"/>
<line y1="-0.125" x2="12" y2="-0.125" transform="translate(99 424)" stroke="#828282" stroke-width="0.25"/>
<text transform="translate(83 283) rotate(-90)" fill="#828282" xml:space="preserve" style="white-space: pre" font-family="Inter UI" font-style="Regular" font-size="9" letter-spacing="0em"><tspan x="0.106934" y="8.65483">Zone internet</tspan></text>
<line y1="-0.125" x2="105.859" y2="-0.125" transform="translate(164 87) rotate(90)" stroke="#828282" stroke-width="0.25"/>
<line y1="-0.125" x2="12" y2="-0.125" transform="translate(164 87)" stroke="#828282" stroke-width="0.25"/>
<line y1="-0.125" x2="12" y2="-0.125" transform="translate(164 193)" stroke="#828282" stroke-width="0.25"/>
<text transform="translate(148 161) rotate(-90)" fill="#828282" xml:space="preserve" style="white-space: pre" font-family="Inter UI" font-style="Regular" font-size="9" letter-spacing="0em"><tspan x="0.137207" y="8.65483">Tiers DMZ</tspan></text>
<line y1="-0.125" x2="105.859" y2="-0.125" transform="translate(164 202.571) rotate(90)" stroke="#828282" stroke-width="0.25"/>
<line y1="-0.125" x2="12" y2="-0.125" transform="translate(164 202.571)" stroke="#828282" stroke-width="0.25"/>
<line y1="-0.125" x2="12" y2="-0.125" transform="translate(164 308.571)" stroke="#828282" stroke-width="0.25"/>
<text transform="translate(148 285.571) rotate(-90)" fill="#828282" xml:space="preserve" style="white-space: pre" font-family="Inter UI" font-style="Regular" font-size="9" letter-spacing="0em"><tspan x="0.162598" y="8.65483">Tiers applicatif</tspan></text>
<line y1="-0.125" x2="105.859" y2="-0.125" transform="translate(164 318.141) rotate(90)" stroke="#828282" stroke-width="0.25"/>
<line y1="-0.125" x2="12" y2="-0.125" transform="translate(164 318.141)" stroke="#828282" stroke-width="0.25"/>
<line y1="-0.125" x2="12" y2="-0.125" transform="translate(164 424.141)" stroke="#828282" stroke-width="0.25"/>
<text transform="translate(148 400.141) rotate(-90)" fill="#828282" xml:space="preserve" style="white-space: pre" font-family="Inter UI" font-style="Regular" font-size="9" letter-spacing="0em"><tspan x="0.388672" y="8.65483">Tiers donn&#xe9;es</tspan></text>
<line y1="-0.125" x2="112" y2="-0.125" transform="translate(99 442) rotate(90)" stroke="#828282" stroke-width="0.25"/>
<line y1="-0.125" x2="12" y2="-0.125" transform="translate(99 442)" stroke="#828282" stroke-width="0.25"/>
<line y1="-0.125" x2="12" y2="-0.125" transform="translate(99 554)" stroke="#828282" stroke-width="0.25"/>
<text transform="translate(83 525) rotate(-90)" fill="#828282" xml:space="preserve" style="white-space: pre" font-family="Inter UI" font-style="Regular" font-size="9" letter-spacing="0em"><tspan x="0.212402" y="8.65483">Zone intranet</tspan></text>
<rect width="203" height="73" rx="2" transform="translate(308 460)" fill="#F2F2F2"/>
<text transform="translate(317 467)" fill="black" xml:space="preserve" style="white-space: pre" font-family="Inter UI" font-style="Regular" font-size="11" letter-spacing="0em"><tspan x="0" y="10.5781">Serveur R&#xe9;gie (Mobilier National)</tspan></text>
<text transform="translate(317 488)" fill="black" xml:space="preserve" style="white-space: pre" font-family="Inter UI" font-style="Regular" font-size="9" letter-spacing="0em"><tspan x="0" y="8.65483">Fichiers images sources</tspan></text>
<text transform="translate(317 506)" fill="black" xml:space="preserve" style="white-space: pre" font-family="Inter UI" font-style="Regular" font-size="9" letter-spacing="0em"><tspan x="0" y="8.65483">Fichiers dump SQL</tspan></text>
<rect width="203" height="73" rx="2" transform="translate(291 203)" fill="#F2F2F2"/>
<text transform="translate(300 210)" fill="black" xml:space="preserve" style="white-space: pre" font-family="Inter UI" font-style="Regular" font-size="11" letter-spacing="0em"><tspan x="0" y="10.5781">Serveur d&#x2019;application&#x2028;</tspan><tspan x="0" y="23.7344">(nginx / PHP-FPM)</tspan></text>
<text transform="translate(300 249)" fill="black" xml:space="preserve" style="white-space: pre" font-family="Inter UI" font-style="Regular" font-size="9" letter-spacing="0em"><tspan x="0" y="8.65483">Fichiers dump SQL</tspan></text>
<rect x="-0.125" y="-0.125" width="38.25" height="73.25" rx="2.125" transform="translate(512 203)" stroke="#4F4F4F" stroke-width="0.25" stroke-dasharray="5 5"/>
<text transform="translate(526 234)" fill="#4F4F4F" xml:space="preserve" style="white-space: pre" font-family="Inter UI" font-style="Italic" font-size="9" letter-spacing="0em"><tspan x="0" y="8.65483">+n</tspan></text>
<rect width="104" height="73" rx="2" transform="translate(247 333)" fill="#F2F2F2"/>
<text transform="translate(256 340)" fill="black" xml:space="preserve" style="white-space: pre" font-family="Inter UI" font-style="Regular" font-size="11" letter-spacing="0em"><tspan x="0" y="10.5781">PostgreSQL</tspan></text>
<rect x="-0.125" y="-0.125" width="38.25" height="73.25" rx="2.125" transform="translate(368 333)" stroke="#4F4F4F" stroke-width="0.25" stroke-dasharray="5 5"/>
<text transform="translate(382 364)" fill="#4F4F4F" xml:space="preserve" style="white-space: pre" font-family="Inter UI" font-style="Italic" font-size="9" letter-spacing="0em"><tspan x="0" y="8.65483">+n</tspan></text>
<rect width="104" height="73" rx="2" transform="translate(436 333)" fill="#F2F2F2"/>
<text transform="translate(445 340)" fill="black" xml:space="preserve" style="white-space: pre" font-family="Inter UI" font-style="Regular" font-size="11" letter-spacing="0em"><tspan x="0" y="10.5781">ElasticSearch</tspan></text>
<rect x="-0.125" y="-0.125" width="38.25" height="73.25" rx="2.125" transform="translate(557 333)" stroke="#4F4F4F" stroke-width="0.25" stroke-dasharray="5 5"/>
<text transform="translate(571 364)" fill="#4F4F4F" xml:space="preserve" style="white-space: pre" font-family="Inter UI" font-style="Italic" font-size="9" letter-spacing="0em"><tspan x="0" y="8.65483">+n</tspan></text>
<rect width="203" height="49" rx="2" transform="translate(319 116)" fill="#F2F2F2"/>
<text transform="translate(328 124)" fill="black" xml:space="preserve" style="white-space: pre" font-family="Inter UI" font-style="Regular" font-size="11" letter-spacing="0em"><tspan x="0" y="10.5781">Reverse proxy &#x2013; terminaison TLS</tspan></text>
<text transform="translate(328 145)" fill="black" xml:space="preserve" style="white-space: pre" font-family="Inter UI" font-style="Regular" font-size="9" letter-spacing="0em"><tspan x="0" y="8.65483">Mutualis&#xe9; DSI Culture</tspan></text>
<path d="M21.3536 0.353553C21.5488 0.158291 21.5488 -0.158291 21.3536 -0.353553L18.1716 -3.53553C17.9763 -3.7308 17.6597 -3.7308 17.4645 -3.53553C17.2692 -3.34027 17.2692 -3.02369 17.4645 -2.82843L20.2929 0L17.4645 2.82843C17.2692 3.02369 17.2692 3.34027 17.4645 3.53553C17.6597 3.7308 17.9763 3.7308 18.1716 3.53553L21.3536 0.353553ZM0 0.5H21V-0.5H0V0.5Z" transform="translate(421 172) rotate(90)" fill="#BDBDBD"/>
<path d="M49.19 0.353553C49.3853 0.158291 49.3853 -0.158291 49.19 -0.353553L46.008 -3.53553C45.8128 -3.7308 45.4962 -3.7308 45.3009 -3.53553C45.1057 -3.34027 45.1057 -3.02369 45.3009 -2.82843L48.1294 0L45.3009 2.82843C45.1057 3.02369 45.1057 3.34027 45.3009 3.53553C45.4962 3.7308 45.8128 3.7308 46.008 3.53553L49.19 0.353553ZM0 0.5H48.8365V-0.5H0V0.5Z" transform="translate(344 289) rotate(137.49)" fill="#BDBDBD"/>
<path d="M47.0226 0.353553C47.2179 0.158291 47.2179 -0.158291 47.0226 -0.353553L43.8406 -3.53553C43.6454 -3.7308 43.3288 -3.7308 43.1335 -3.53553C42.9383 -3.34027 42.9383 -3.02369 43.1335 -2.82843L45.9619 0L43.1335 2.82843C42.9383 3.02369 42.9383 3.34027 43.1335 3.53553C43.3288 3.7308 43.6454 3.7308 43.8406 3.53553L47.0226 0.353553ZM0 0.5H46.669V-0.5H0V0.5Z" transform="translate(446 289) rotate(45)" fill="#BDBDBD"/>
<path d="M11.5 14C11.5 17.8149 10.8363 21.2449 9.78307 23.7025C9.25605 24.9322 8.64136 25.8954 7.98425 26.5439C7.3293 27.1903 6.65935 27.5 6 27.5C5.34065 27.5 4.6707 27.1903 4.01575 26.5439C3.35864 25.8954 2.74394 24.9322 2.21693 23.7025C1.16367 21.2449 0.5 17.8149 0.5 14C0.5 10.1851 1.16367 6.75508 2.21693 4.29746C2.74394 3.06777 3.35864 2.10457 4.01575 1.45606C4.6707 0.809676 5.34065 0.5 6 0.5C6.65935 0.5 7.3293 0.809676 7.98425 1.45606C8.64136 2.10457 9.25605 3.06777 9.78307 4.29746C10.8363 6.75508 11.5 10.1851 11.5 14Z" transform="translate(283 481)" stroke="#BDBDBD"/>
<path d="M11.5 14C11.5 17.8149 10.8363 21.2449 9.78307 23.7025C9.25605 24.9322 8.64136 25.8954 7.98425 26.5439C7.3293 27.1903 6.65935 27.5 6 27.5C5.34065 27.5 4.6707 27.1903 4.01575 26.5439C3.35864 25.8954 2.74394 24.9322 2.21693 23.7025C1.16367 21.2449 0.5 17.8149 0.5 14C0.5 10.1851 1.16367 6.75508 2.21693 4.29746C2.74394 3.06777 3.35864 2.10457 4.01575 1.45606C4.6707 0.809676 5.34065 0.5 6 0.5C6.65935 0.5 7.3293 0.809676 7.98425 1.45606C8.64136 2.10457 9.25605 3.06777 9.78307 4.29746C10.8363 6.75508 11.5 10.1851 11.5 14Z" transform="translate(263 222)" stroke="#BDBDBD"/>
<path d="M0 260H-0.5V260.5H0V260ZM0 0V-0.5H-0.5V0H0ZM53 0L48 -2.88675V2.88675L53 0ZM52 259.5H51V260.5H52V259.5ZM49 259.5H47V260.5H49V259.5ZM45 259.5H43V260.5H45V259.5ZM41 259.5H39V260.5H41V259.5ZM37 259.5H35V260.5H37V259.5ZM33 259.5H31V260.5H33V259.5ZM29 259.5H27V260.5H29V259.5ZM25 259.5H23V260.5H25V259.5ZM21 259.5H19V260.5H21V259.5ZM17 259.5H15V260.5H17V259.5ZM13 259.5H11V260.5H13V259.5ZM9 259.5H7V260.5H9V259.5ZM5 259.5H3V260.5H5V259.5ZM1 259.5H0V260.5H1V259.5ZM0.5 260V259H-0.5V260H0.5ZM0.5 257V255H-0.5V257H0.5ZM0.5 253V251H-0.5V253H0.5ZM0.5 249V247H-0.5V249H0.5ZM0.5 245V243H-0.5V245H0.5ZM0.5 241V239H-0.5V241H0.5ZM0.5 237V235H-0.5V237H0.5ZM0.5 233V231H-0.5V233H0.5ZM0.5 229V227H-0.5V229H0.5ZM0.5 225V223H-0.5V225H0.5ZM0.5 221V219H-0.5V221H0.5ZM0.5 217V215H-0.5V217H0.5ZM0.5 213V211H-0.5V213H0.5ZM0.5 209V207H-0.5V209H0.5ZM0.5 205V203H-0.5V205H0.5ZM0.5 201V199H-0.5V201H0.5ZM0.5 197V195H-0.5V197H0.5ZM0.5 193V191H-0.5V193H0.5ZM0.5 189V187H-0.5V189H0.5ZM0.5 185V183H-0.5V185H0.5ZM0.5 181V179H-0.5V181H0.5ZM0.5 177V175H-0.5V177H0.5ZM0.5 173V171H-0.5V173H0.5ZM0.5 169V167H-0.5V169H0.5ZM0.5 165V163H-0.5V165H0.5ZM0.5 161V159H-0.5V161H0.5ZM0.5 157V155H-0.5V157H0.5ZM0.5 153V151H-0.5V153H0.5ZM0.5 149V147H-0.5V149H0.5ZM0.5 145V143H-0.5V145H0.5ZM0.5 141V139H-0.5V141H0.5ZM0.5 137V135H-0.5V137H0.5ZM0.5 133V131H-0.5V133H0.5ZM0.5 129V127H-0.5V129H0.5ZM0.5 125V123H-0.5V125H0.5ZM0.5 121V119H-0.5V121H0.5ZM0.5 117V115H-0.5V117H0.5ZM0.5 113V111H-0.5V113H0.5ZM0.5 109V107H-0.5V109H0.5ZM0.5 105V103H-0.5V105H0.5ZM0.5 101V99H-0.5V101H0.5ZM0.5 97V95H-0.5V97H0.5ZM0.5 93V91H-0.5V93H0.5ZM0.5 89V87H-0.5V89H0.5ZM0.5 85V83H-0.5V85H0.5ZM0.5 81V79H-0.5V81H0.5ZM0.5 77V75H-0.5V77H0.5ZM0.5 73V71H-0.5V73H0.5ZM0.5 69V67H-0.5V69H0.5ZM0.5 65V63H-0.5V65H0.5ZM0.5 61V59H-0.5V61H0.5ZM0.5 57V55H-0.5V57H0.5ZM0.5 53V51H-0.5V53H0.5ZM0.5 49V47H-0.5V49H0.5ZM0.5 45V43H-0.5V45H0.5ZM0.5 41V39H-0.5V41H0.5ZM0.5 37V35H-0.5V37H0.5ZM0.5 33V31H-0.5V33H0.5ZM0.5 29V27H-0.5V29H0.5ZM0.5 25V23H-0.5V25H0.5ZM0.5 21V19H-0.5V21H0.5ZM0.5 17V15H-0.5V17H0.5ZM0.5 13V11H-0.5V13H0.5ZM0.5 9V7H-0.5V9H0.5ZM0.5 5V3H-0.5V5H0.5ZM0.5 1V0H-0.5V1H0.5ZM0 0.5H1.01923V-0.5H0V0.5ZM3.05769 0.5H5.09615V-0.5H3.05769V0.5ZM7.13461 0.5H9.17308V-0.5H7.13461V0.5ZM11.2115 0.5H13.25V-0.5H11.2115V0.5ZM15.2885 0.5H17.3269V-0.5H15.2885V0.5ZM19.3654 0.5H21.4038V-0.5H19.3654V0.5ZM23.4423 0.5H25.4808V-0.5H23.4423V0.5ZM27.5192 0.5H29.5577V-0.5H27.5192V0.5ZM31.5962 0.5H33.6346V-0.5H31.5962V0.5ZM35.6731 0.5H37.7115V-0.5H35.6731V0.5ZM39.75 0.5H41.7885V-0.5H39.75V0.5ZM43.8269 0.5H45.8654V-0.5H43.8269V0.5ZM47.9038 0.5H49.9423V-0.5H47.9038V0.5Z" transform="translate(231 236)" fill="#BDBDBD"/>
<path d="M0 0H19.5" transform="translate(285 496)" stroke="#BDBDBD"/>
<path d="M0 0H15" transform="translate(266 236)" stroke="#BDBDBD"/>
<text transform="translate(215.5 483.5) rotate(-90)" fill="#BDBDBD" xml:space="preserve" style="white-space: pre" font-family="Inter UI" font-style="Regular" font-size="11" letter-spacing="0em"><tspan x="0" y="10.5781">T&#xe2;che r&#xe9;currente rsync images + dumps SQL</tspan></text>
</svg>
