<svg width="842" height="595" viewBox="0 0 842 595" fill="none" xmlns="http://www.w3.org/2000/svg">
<rect width="842" height="595" fill="white"/>
<text fill="black" xml:space="preserve" style="white-space: pre" font-family="Inter UI" font-size="12" letter-spacing="0em"><tspan x="190.933" y="30.5398">&#10;</tspan></text>
<text fill="black" xml:space="preserve" style="white-space: pre" font-family="Inter UI" font-size="9" letter-spacing="0em"><tspan x="23" y="30.5398">EIG / Mobilier National &#x2014; Projet Gobelins</tspan></text>
<text fill="black" xml:space="preserve" style="white-space: pre" font-family="Inter UI" font-size="12" font-weight="bold" letter-spacing="0em"><tspan x="23" y="50.892">ARCHITECTURE TECHNIQUE</tspan></text>
<line x1="99.125" y1="87" x2="99.125" y2="424" stroke="#828282" stroke-width="0.25"/>
<line x1="99" y1="86.875" x2="111" y2="86.875" stroke="#828282" stroke-width="0.25"/>
<line x1="99" y1="423.875" x2="111" y2="423.875" stroke="#828282" stroke-width="0.25"/>
<text transform="rotate(-90)" fill="#828282" xml:space="preserve" style="white-space: pre" font-family="Inter UI" font-size="9" letter-spacing="0em"><tspan x="83.1069" y="291.655">Zone internet</tspan></text>
<line x1="164.125" y1="87" x2="164.125" y2="192.859" stroke="#828282" stroke-width="0.25"/>
<line x1="164" y1="86.875" x2="176" y2="86.875" stroke="#828282" stroke-width="0.25"/>
<line x1="164" y1="192.875" x2="176" y2="192.875" stroke="#828282" stroke-width="0.25"/>
<text transform="rotate(-90)" fill="#828282" xml:space="preserve" style="white-space: pre" font-family="Inter UI" font-size="9" letter-spacing="0em"><tspan x="148.032" y="169.655">Tiers DMZ</tspan></text>
<line x1="164.125" y1="202.571" x2="164.125" y2="308.429" stroke="#828282" stroke-width="0.25"/>
<line x1="164" y1="202.446" x2="176" y2="202.446" stroke="#828282" stroke-width="0.25"/>
<line x1="164" y1="308.446" x2="176" y2="308.446" stroke="#828282" stroke-width="0.25"/>
<text transform="rotate(-90)" fill="#828282" xml:space="preserve" style="white-space: pre" font-family="Inter UI" font-size="9" letter-spacing="0em"><tspan x="148.026" y="294.225">Tiers applicatif</tspan></text>
<line x1="164.125" y1="318.141" x2="164.125" y2="424" stroke="#828282" stroke-width="0.25"/>
<line x1="164" y1="318.016" x2="176" y2="318.016" stroke="#828282" stroke-width="0.25"/>
<line x1="164" y1="424.016" x2="176" y2="424.016" stroke="#828282" stroke-width="0.25"/>
<text transform="rotate(-90)" fill="#828282" xml:space="preserve" style="white-space: pre" font-family="Inter UI" font-size="9" letter-spacing="0em"><tspan x="148.301" y="408.796">Tiers donn&#xe9;es</tspan></text>
<line x1="99.125" y1="442" x2="99.125" y2="554" stroke="#828282" stroke-width="0.25"/>
<line x1="99" y1="441.875" x2="111" y2="441.875" stroke="#828282" stroke-width="0.25"/>
<line x1="99" y1="553.875" x2="111" y2="553.875" stroke="#828282" stroke-width="0.25"/>
<text transform="rotate(-90)" fill="#828282" xml:space="preserve" style="white-space: pre" font-family="Inter UI" font-size="9" letter-spacing="0em"><tspan x="83.4487" y="534.655">Zone intranet</tspan></text>
<rect x="308" y="460" width="203" height="73" rx="2" fill="#F2F2F2"/>
<text fill="black" xml:space="preserve" style="white-space: pre" font-family="Inter UI" font-size="11" letter-spacing="0em"><tspan x="317" y="477.578">Serveur R&#xe9;gie (Mobilier National)</tspan></text>
<text fill="black" xml:space="preserve" style="white-space: pre" font-family="Inter UI" font-size="9" letter-spacing="0em"><tspan x="317" y="496.655">Fichiers images sources</tspan></text>
<text fill="black" xml:space="preserve" style="white-space: pre" font-family="Inter UI" font-size="9" letter-spacing="0em"><tspan x="317" y="514.655">Fichiers dump SQL</tspan></text>
<rect x="291" y="203" width="203" height="73" rx="2" fill="#F2F2F2"/>
<text fill="black" xml:space="preserve" style="white-space: pre" font-family="Inter UI" font-size="11" letter-spacing="0em"><tspan x="300" y="220.578">Serveur d&#x2019;application&#x2028;</tspan><tspan x="300" y="233.734">(nginx / PHP-FPM)</tspan></text>
<text fill="black" xml:space="preserve" style="white-space: pre" font-family="Inter UI" font-size="9" letter-spacing="0em"><tspan x="300" y="257.655">Fichiers dump SQL</tspan></text>
<rect x="511.875" y="202.875" width="38.25" height="73.25" rx="2.125" stroke="#4F4F4F" stroke-width="0.25" stroke-dasharray="5 5"/>
<text fill="#4F4F4F" xml:space="preserve" style="white-space: pre" font-family="Inter UI" font-size="9" font-style="italic" letter-spacing="0em"><tspan x="526" y="242.655">+n</tspan></text>
<rect x="247" y="333" width="104" height="73" rx="2" fill="#F2F2F2"/>
<text fill="black" xml:space="preserve" style="white-space: pre" font-family="Inter UI" font-size="11" letter-spacing="0em"><tspan x="256" y="350.578">PostgreSQL</tspan></text>
<rect x="367.875" y="332.875" width="38.25" height="73.25" rx="2.125" stroke="#4F4F4F" stroke-width="0.25" stroke-dasharray="5 5"/>
<text fill="#4F4F4F" xml:space="preserve" style="white-space: pre" font-family="Inter UI" font-size="9" font-style="italic" letter-spacing="0em"><tspan x="382" y="372.655">+n</tspan></text>
<rect x="436" y="333" width="104" height="73" rx="2" fill="#F2F2F2"/>
<text fill="black" xml:space="preserve" style="white-space: pre" font-family="Inter UI" font-size="11" letter-spacing="0em"><tspan x="445" y="350.578">ElasticSearch</tspan></text>
<rect x="556.875" y="332.875" width="38.25" height="73.25" rx="2.125" stroke="#4F4F4F" stroke-width="0.25" stroke-dasharray="5 5"/>
<text fill="#4F4F4F" xml:space="preserve" style="white-space: pre" font-family="Inter UI" font-size="9" font-style="italic" letter-spacing="0em"><tspan x="571" y="372.655">+n</tspan></text>
<rect x="319" y="116" width="203" height="49" rx="2" fill="#F2F2F2"/>
<text fill="black" xml:space="preserve" style="white-space: pre" font-family="Inter UI" font-size="11" letter-spacing="0em"><tspan x="328" y="134.578">Reverse proxy &#x2013; terminaison TLS</tspan></text>
<text fill="black" xml:space="preserve" style="white-space: pre" font-family="Inter UI" font-size="9" letter-spacing="0em"><tspan x="328" y="153.655">Mutualis&#xe9; DSI Culture</tspan></text>
<path d="M420.646 193.354C420.842 193.549 421.158 193.549 421.354 193.354L424.536 190.172C424.731 189.976 424.731 189.66 424.536 189.464C424.34 189.269 424.024 189.269 423.828 189.464L421 192.293L418.172 189.464C417.976 189.269 417.66 189.269 417.464 189.464C417.269 189.66 417.269 189.976 417.464 190.172L420.646 193.354ZM420.5 172V193H421.5V172H420.5Z" fill="#BDBDBD"/>
<path d="M307.5 321.978C307.488 322.254 307.702 322.488 307.978 322.5L312.474 322.695C312.75 322.707 312.983 322.493 312.995 322.217C313.007 321.941 312.793 321.708 312.517 321.696L308.521 321.522L308.695 317.526C308.707 317.25 308.493 317.017 308.217 317.005C307.941 316.993 307.708 317.207 307.696 317.483L307.5 321.978ZM343.662 288.631L307.662 321.631L308.338 322.369L344.338 289.369L343.662 288.631Z" fill="#BDBDBD"/>
<path d="M479 322.5C479.276 322.5 479.5 322.276 479.5 322L479.5 317.5C479.5 317.224 479.276 317 479 317C478.724 317 478.5 317.224 478.5 317.5L478.5 321.5L474.5 321.5C474.224 321.5 474 321.724 474 322C474 322.276 474.224 322.5 474.5 322.5L479 322.5ZM445.646 289.354L478.646 322.354L479.354 321.646L446.354 288.646L445.646 289.354Z" fill="#BDBDBD"/>
<path d="M294.5 495C294.5 498.815 293.836 502.245 292.783 504.703C292.256 505.932 291.641 506.895 290.984 507.544C290.329 508.19 289.659 508.5 289 508.5C288.341 508.5 287.671 508.19 287.016 507.544C286.359 506.895 285.744 505.932 285.217 504.703C284.164 502.245 283.5 498.815 283.5 495C283.5 491.185 284.164 487.755 285.217 485.297C285.744 484.068 286.359 483.105 287.016 482.456C287.671 481.81 288.341 481.5 289 481.5C289.659 481.5 290.329 481.81 290.984 482.456C291.641 483.105 292.256 484.068 292.783 485.297C293.836 487.755 294.5 491.185 294.5 495Z" stroke="#BDBDBD"/>
<path d="M274.5 236C274.5 239.815 273.836 243.245 272.783 245.703C272.256 246.932 271.641 247.895 270.984 248.544C270.329 249.19 269.659 249.5 269 249.5C268.341 249.5 267.671 249.19 267.016 248.544C266.359 247.895 265.744 246.932 265.217 245.703C264.164 243.245 263.5 239.815 263.5 236C263.5 232.185 264.164 228.755 265.217 226.297C265.744 225.068 266.359 224.105 267.016 223.456C267.671 222.81 268.341 222.5 269 222.5C269.659 222.5 270.329 222.81 270.984 223.456C271.641 224.105 272.256 225.068 272.783 226.297C273.836 228.755 274.5 232.185 274.5 236Z" stroke="#BDBDBD"/>
<path d="M231 496H230.5V496.5H231V496ZM231 236V235.5H230.5V236H231ZM284 236L279 233.113V238.887L284 236ZM283 495.5H282V496.5H283V495.5ZM280 495.5H278V496.5H280V495.5ZM276 495.5H274V496.5H276V495.5ZM272 495.5H270V496.5H272V495.5ZM268 495.5H266V496.5H268V495.5ZM264 495.5H262V496.5H264V495.5ZM260 495.5H258V496.5H260V495.5ZM256 495.5H254V496.5H256V495.5ZM252 495.5H250V496.5H252V495.5ZM248 495.5H246V496.5H248V495.5ZM244 495.5H242V496.5H244V495.5ZM240 495.5H238V496.5H240V495.5ZM236 495.5H234V496.5H236V495.5ZM232 495.5H231V496.5H232V495.5ZM231.5 496V495H230.5V496H231.5ZM231.5 493V491H230.5V493H231.5ZM231.5 489V487H230.5V489H231.5ZM231.5 485V483H230.5V485H231.5ZM231.5 481V479H230.5V481H231.5ZM231.5 477V475H230.5V477H231.5ZM231.5 473V471H230.5V473H231.5ZM231.5 469V467H230.5V469H231.5ZM231.5 465V463H230.5V465H231.5ZM231.5 461V459H230.5V461H231.5ZM231.5 457V455H230.5V457H231.5ZM231.5 453V451H230.5V453H231.5ZM231.5 449V447H230.5V449H231.5ZM231.5 445V443H230.5V445H231.5ZM231.5 441V439H230.5V441H231.5ZM231.5 437V435H230.5V437H231.5ZM231.5 433V431H230.5V433H231.5ZM231.5 429V427H230.5V429H231.5ZM231.5 425V423H230.5V425H231.5ZM231.5 421V419H230.5V421H231.5ZM231.5 417V415H230.5V417H231.5ZM231.5 413V411H230.5V413H231.5ZM231.5 409V407H230.5V409H231.5ZM231.5 405V403H230.5V405H231.5ZM231.5 401V399H230.5V401H231.5ZM231.5 397V395H230.5V397H231.5ZM231.5 393V391H230.5V393H231.5ZM231.5 389V387H230.5V389H231.5ZM231.5 385V383H230.5V385H231.5ZM231.5 381V379H230.5V381H231.5ZM231.5 377V375H230.5V377H231.5ZM231.5 373V371H230.5V373H231.5ZM231.5 369V367H230.5V369H231.5ZM231.5 365V363H230.5V365H231.5ZM231.5 361V359H230.5V361H231.5ZM231.5 357V355H230.5V357H231.5ZM231.5 353V351H230.5V353H231.5ZM231.5 349V347H230.5V349H231.5ZM231.5 345V343H230.5V345H231.5ZM231.5 341V339H230.5V341H231.5ZM231.5 337V335H230.5V337H231.5ZM231.5 333V331H230.5V333H231.5ZM231.5 329V327H230.5V329H231.5ZM231.5 325V323H230.5V325H231.5ZM231.5 321V319H230.5V321H231.5ZM231.5 317V315H230.5V317H231.5ZM231.5 313V311H230.5V313H231.5ZM231.5 309V307H230.5V309H231.5ZM231.5 305V303H230.5V305H231.5ZM231.5 301V299H230.5V301H231.5ZM231.5 297V295H230.5V297H231.5ZM231.5 293V291H230.5V293H231.5ZM231.5 289V287H230.5V289H231.5ZM231.5 285V283H230.5V285H231.5ZM231.5 281V279H230.5V281H231.5ZM231.5 277V275H230.5V277H231.5ZM231.5 273V271H230.5V273H231.5ZM231.5 269V267H230.5V269H231.5ZM231.5 265V263H230.5V265H231.5ZM231.5 261V259H230.5V261H231.5ZM231.5 257V255H230.5V257H231.5ZM231.5 253V251H230.5V253H231.5ZM231.5 249V247H230.5V249H231.5ZM231.5 245V243H230.5V245H231.5ZM231.5 241V239H230.5V241H231.5ZM231.5 237V236H230.5V237H231.5ZM231 236.5H232.019V235.5H231V236.5ZM234.058 236.5H236.096V235.5H234.058V236.5ZM238.135 236.5H240.173V235.5H238.135V236.5ZM242.212 236.5H244.25V235.5H242.212V236.5ZM246.288 236.5H248.327V235.5H246.288V236.5ZM250.365 236.5H252.404V235.5H250.365V236.5ZM254.442 236.5H256.481V235.5H254.442V236.5ZM258.519 236.5H260.558V235.5H258.519V236.5ZM262.596 236.5H264.635V235.5H262.596V236.5ZM266.673 236.5H268.712V235.5H266.673V236.5ZM270.75 236.5H272.788V235.5H270.75V236.5ZM274.827 236.5H276.865V235.5H274.827V236.5ZM278.904 236.5H280.942V235.5H278.904V236.5Z" fill="#BDBDBD"/>
<path d="M285 496H304.5" stroke="#BDBDBD"/>
<path d="M266 236H281" stroke="#BDBDBD"/>
<text transform="rotate(-90)" fill="#BDBDBD" xml:space="preserve" style="white-space: pre" font-family="Inter UI" font-size="11" letter-spacing="0em"><tspan x="215.5" y="494.078">T&#xe2;che r&#xe9;currente rsync images + dumps SQL</tspan></text>
</svg>
