<svg width="842" height="595" viewBox="0 0 842 595" fill="none" xmlns="http://www.w3.org/2000/svg">
<rect width="842" height="595" fill="white"/>
<text fill="black" xml:space="preserve" style="white-space: pre" font-family="Inter UI" font-size="12" letter-spacing="0em"><tspan x="190.933" y="30.5398">&#10;</tspan></text>
<text fill="black" xml:space="preserve" style="white-space: pre" font-family="Inter UI" font-size="9" letter-spacing="0em"><tspan x="23" y="30.5398">EIG / Mobilier National &#x2014; Projet Gobelins</tspan></text>
<text fill="black" xml:space="preserve" style="white-space: pre" font-family="Inter UI" font-size="12" font-weight="bold" letter-spacing="0em"><tspan x="23" y="50.892">ARCHITECTURE LOGIQUE</tspan></text>
<text fill="black" xml:space="preserve" style="white-space: pre" font-family="Inter UI" font-size="9" letter-spacing="0em"><tspan x="23" y="542.655">L&#xe9;gende</tspan></text>
<text fill="black" xml:space="preserve" style="white-space: pre" font-family="Inter UI" font-size="9" letter-spacing="0em"><tspan x="51" y="563.655">MVP</tspan></text>
<rect x="24" y="555" width="21" height="12" fill="#6FCF97"/>
<text fill="black" xml:space="preserve" style="white-space: pre" font-family="Inter UI" font-size="9" letter-spacing="0em"><tspan x="125" y="563.655">v 0.1</tspan></text>
<rect x="98" y="555" width="21" height="12" fill="#F2C94C"/>
<text fill="black" xml:space="preserve" style="white-space: pre" font-family="Inter UI" font-size="9" letter-spacing="0em"><tspan x="201" y="563.655">v 0.2</tspan></text>
<rect x="174" y="555" width="21" height="12" fill="#EB5757"/>
<ellipse cx="107.5" cy="240.5" rx="7.5" ry="8.5" fill="#C4C4C4"/>
<path fill-rule="evenodd" clip-rule="evenodd" d="M124 265C124 256.163 116.837 249 108 249C99.1634 249 92 256.163 92 265H124Z" fill="#C4C4C4"/>
<text fill="black" xml:space="preserve" style="white-space: pre" font-family="Inter UI" font-size="8" letter-spacing="0em"><tspan x="83.043" y="278.693">Grand public</tspan></text>
<ellipse cx="107.5" cy="407.5" rx="7.5" ry="8.5" fill="#C4C4C4"/>
<path fill-rule="evenodd" clip-rule="evenodd" d="M124 432C124 423.163 116.837 416 108 416C99.1634 416 92 423.163 92 432H124Z" fill="#C4C4C4"/>
<text fill="black" xml:space="preserve" style="white-space: pre" font-family="Inter UI" font-size="8" letter-spacing="0em"><tspan x="92.5352" y="445.693">Experts</tspan></text>
<ellipse cx="695.5" cy="143.5" rx="7.5" ry="8.5" fill="#C4C4C4"/>
<path fill-rule="evenodd" clip-rule="evenodd" d="M712 168C712 159.163 704.837 152 696 152C687.163 152 680 159.163 680 168H712Z" fill="#C4C4C4"/>
<text fill="black" xml:space="preserve" style="white-space: pre" font-family="Inter UI" font-size="8" letter-spacing="0em"><tspan x="673.824" y="181.693">Utilisateurs </tspan><tspan x="677.812" y="191.261">identifi&#xe9;s</tspan></text>
<path d="M302.345 430.362C302.545 430.171 302.552 429.855 302.362 429.655L299.255 426.4C299.064 426.2 298.747 426.193 298.548 426.383C298.348 426.574 298.341 426.89 298.531 427.09L301.293 429.984L298.4 432.745C298.2 432.936 298.193 433.253 298.383 433.452C298.574 433.652 298.89 433.659 299.09 433.469L302.345 430.362ZM129.988 426.5L301.988 430.5L302.012 429.5L130.012 425.5L129.988 426.5Z" fill="#BDBDBD"/>
<path d="M537.881 76.5144C537.613 76.5802 537.449 76.851 537.514 77.1192L538.587 81.4895C538.653 81.7577 538.924 81.9217 539.192 81.8559C539.46 81.79 539.624 81.5193 539.558 81.2511L538.605 77.3664L542.489 76.4129C542.758 76.3471 542.922 76.0763 542.856 75.8081C542.79 75.5399 542.519 75.3759 542.251 75.4417L537.881 76.5144ZM675.259 159.572L538.259 76.5724L537.741 77.4276L674.741 160.428L675.259 159.572Z" fill="#BDBDBD"/>
<path d="M537.701 139.599C537.48 139.764 537.434 140.077 537.599 140.299L540.288 143.907C540.453 144.128 540.766 144.174 540.988 144.009C541.209 143.844 541.255 143.531 541.09 143.309L538.7 140.102L541.907 137.712C542.128 137.547 542.174 137.234 542.009 137.012C541.844 136.791 541.531 136.745 541.309 136.91L537.701 139.599ZM675.072 159.505L538.072 139.505L537.928 140.495L674.928 160.495L675.072 159.505Z" fill="#BDBDBD"/>
<path d="M302.313 281.39C302.528 281.218 302.563 280.903 302.39 280.687L299.577 277.175C299.404 276.96 299.09 276.925 298.874 277.098C298.659 277.27 298.624 277.585 298.796 277.8L301.297 280.922L298.175 283.423C297.96 283.596 297.925 283.91 298.098 284.126C298.27 284.341 298.585 284.376 298.8 284.204L302.313 281.39ZM129.945 262.497L301.945 281.497L302.055 280.503L130.055 261.503L129.945 262.497Z" fill="#BDBDBD"/>
<path d="M302.134 359.482C302.4 359.407 302.556 359.132 302.482 358.866L301.273 354.531C301.199 354.265 300.923 354.11 300.657 354.184C300.391 354.258 300.236 354.534 300.31 354.8L301.384 358.653L297.531 359.727C297.265 359.801 297.11 360.077 297.184 360.343C297.258 360.609 297.534 360.764 297.8 360.69L302.134 359.482ZM129.754 262.436L301.754 359.436L302.246 358.564L130.246 261.564L129.754 262.436Z" fill="#BDBDBD"/>
<path d="M301.901 521.49C302.172 521.545 302.435 521.37 302.49 521.099L303.381 516.688C303.435 516.417 303.26 516.153 302.989 516.099C302.719 516.044 302.455 516.219 302.4 516.49L301.609 520.411L297.688 519.62C297.417 519.565 297.153 519.74 297.099 520.011C297.044 520.281 297.219 520.545 297.49 520.6L301.901 521.49ZM129.583 262.277L301.583 521.277L302.417 520.723L130.417 261.723L129.583 262.277Z" fill="#BDBDBD"/>
<path d="M302.448 204.222C302.571 203.975 302.469 203.675 302.222 203.552L298.19 201.554C297.943 201.431 297.643 201.532 297.52 201.78C297.397 202.027 297.499 202.327 297.746 202.45L301.33 204.226L299.554 207.81C299.431 208.057 299.532 208.357 299.78 208.48C300.027 208.603 300.327 208.501 300.45 208.254L302.448 204.222ZM130.16 262.474L302.16 204.474L301.84 203.526L129.84 261.526L130.16 262.474Z" fill="#BDBDBD"/>
<rect x="319" y="240" width="203" height="73" rx="2" fill="#F2F2F2"/>
<text fill="black" xml:space="preserve" style="white-space: pre" font-family="Inter UI" font-size="11" letter-spacing="0em"><tspan x="328" y="257.578">Moteur de recherche</tspan></text>
<text fill="black" xml:space="preserve" style="white-space: pre" font-family="Inter UI" font-size="9" letter-spacing="0em"><tspan x="328" y="276.655">Taxonomies</tspan></text>
<text fill="black" xml:space="preserve" style="white-space: pre" font-family="Inter UI" font-size="9" letter-spacing="0em"><tspan x="328" y="294.655">Fiches objets</tspan></text>
<circle cx="512" cy="251" r="5" fill="#6FCF97"/>
<rect x="319" y="403" width="203" height="53" rx="2" fill="#F2F2F2"/>
<text fill="black" xml:space="preserve" style="white-space: pre" font-family="Inter UI" font-size="11" letter-spacing="0em"><tspan x="328" y="420.578">Donn&#xe9;es ouvertes</tspan></text>
<text fill="black" xml:space="preserve" style="white-space: pre" font-family="Inter UI" font-size="9" letter-spacing="0em"><tspan x="328" y="439.655">Wikidata&#x2026;</tspan></text>
<circle cx="512" cy="413" r="5" fill="#6FCF97"/>
<circle cx="114" cy="430" r="5" fill="#6FCF97"/>
<circle cx="114" cy="264" r="5" fill="#6FCF97"/>
<rect x="319" y="177" width="203" height="53" rx="2" fill="#F2F2F2"/>
<text fill="black" xml:space="preserve" style="white-space: pre" font-family="Inter UI" font-size="11" letter-spacing="0em"><tspan x="328" y="195.578">Recirculation</tspan></text>
<text fill="black" xml:space="preserve" style="white-space: pre" font-family="Inter UI" font-size="9" letter-spacing="0em"><tspan x="328" y="214.655">Par artiste, th&#xe8;me, p&#xe9;riode&#x2026;</tspan></text>
<circle cx="512" cy="187" r="5" fill="#F2C94C"/>
<rect x="319" y="51" width="203" height="53" rx="2" fill="#F2F2F2"/>
<text fill="black" xml:space="preserve" style="white-space: pre" font-family="Inter UI" font-size="11" letter-spacing="0em"><tspan x="328" y="70.5781">Personnalisation</tspan></text>
<text fill="black" xml:space="preserve" style="white-space: pre" font-family="Inter UI" font-size="9" letter-spacing="0em"><tspan x="328" y="89.6548">Collections d&#x2019;objets, partage&#x2026;</tspan></text>
<circle cx="512" cy="61" r="5" fill="#F2C94C"/>
<rect x="319" y="114" width="203" height="53" rx="2" fill="#F2F2F2"/>
<text fill="black" xml:space="preserve" style="white-space: pre" font-family="Inter UI" font-size="11" letter-spacing="0em"><tspan x="328" y="133.578">Collaboratif</tspan></text>
<text fill="black" xml:space="preserve" style="white-space: pre" font-family="Inter UI" font-size="9" letter-spacing="0em"><tspan x="328" y="152.655">Participation, ajouts, corrections&#x2026; </tspan></text>
<circle cx="512" cy="124" r="5" fill="#EB5757"/>
<circle cx="702" cy="168" r="5" fill="#F2C94C"/>
<ellipse cx="695.5" cy="456.5" rx="7.5" ry="8.5" fill="#C4C4C4"/>
<path fill-rule="evenodd" clip-rule="evenodd" d="M712 481C712 472.163 704.837 465 696 465C687.163 465 680 472.163 680 481H712Z" fill="#C4C4C4"/>
<text fill="black" xml:space="preserve" style="white-space: pre" font-family="Inter UI" font-size="8" letter-spacing="0em"><tspan x="665.449" y="494.693">Administrateurs</tspan></text>
<path d="M537.626 480.668C537.443 480.874 537.461 481.19 537.668 481.374L541.03 484.365C541.236 484.548 541.552 484.53 541.736 484.323C541.919 484.117 541.901 483.801 541.694 483.618L538.706 480.959L541.365 477.97C541.548 477.764 541.53 477.448 541.323 477.264C541.117 477.081 540.801 477.099 540.618 477.306L537.626 480.668ZM674.971 472.501L537.971 480.501L538.029 481.499L675.029 473.499L674.971 472.501Z" fill="#BDBDBD"/>
<circle cx="702" cy="481" r="5" fill="#EB5757"/>
<rect x="319" y="466" width="203" height="30" rx="2" fill="#F2F2F2"/>
<text fill="black" xml:space="preserve" style="white-space: pre" font-family="Inter UI" font-size="11" letter-spacing="0em"><tspan x="328" y="484.578">Back office CMS</tspan></text>
<circle cx="512" cy="476" r="5" fill="#EB5757"/>
<rect x="319" y="506" width="203" height="30" rx="2" fill="#F2F2F2"/>
<text fill="black" xml:space="preserve" style="white-space: pre" font-family="Inter UI" font-size="11" letter-spacing="0em"><tspan x="328" y="524.578">CMS: pages savoirs</tspan></text>
<circle cx="512" cy="516" r="5" fill="#EB5757"/>
<rect x="319" y="363" width="203" height="30" rx="2" fill="#F2F2F2"/>
<text fill="black" xml:space="preserve" style="white-space: pre" font-family="Inter UI" font-size="11" letter-spacing="0em"><tspan x="328" y="381.578">Nuancier</tspan></text>
<circle cx="512" cy="374" r="5" fill="#F2C94C"/>
<rect x="319" y="323" width="203" height="30" rx="2" fill="#F2F2F2"/>
<text fill="black" xml:space="preserve" style="white-space: pre" font-family="Inter UI" font-size="11" letter-spacing="0em"><tspan x="328" y="340.82">Impression fiches</tspan></text>
<ellipse cx="512" cy="333.345" rx="5" ry="5.17241" fill="#F2C94C"/>
</svg>
